<svg xmlns="http://www.w3.org/2000/svg" xmlns:xlink="http://www.w3.org/1999/xlink" width="37.418" height="37.418" viewBox="0 0 37.418 37.418">
  <defs>
    <clipPath id="clip-path">
      <rect id="Rectangle_7317" data-name="Rectangle 7317" width="18.709" height="37.416" fill="none"/>
    </clipPath>
  </defs>
  <g id="Group_4319" data-name="Group 4319" transform="translate(0 0)">
    <path id="Path_4494" data-name="Path 4494" d="M179.82,551.217a12.472,12.472,0,1,0,12.472,12.472,12.487,12.487,0,0,0-12.472-12.472" transform="translate(-161.112 -544.98)" fill="#ffca28"/>
    <path id="Path_4495" data-name="Path 4495" d="M221.74,556.9l-.088-.154a1.248,1.248,0,0,0-2.166,1.238l.088.153a1.247,1.247,0,1,0,2.166-1.237" transform="translate(-186.746 -547.396)" fill="#42a5f5"/>
    <path id="Path_4496" data-name="Path 4496" d="M224.3,566.758a1.247,1.247,0,0,0,.9-1.517l-.054-.2a1.247,1.247,0,1,0-2.4.671l.039.143a1.246,1.246,0,0,0,1.207.939,1.21,1.21,0,0,0,.309-.04" transform="translate(-188.411 -551.35)" fill="#42a5f5"/>
    <path id="Path_4497" data-name="Path 4497" d="M226.443,573.982a1.228,1.228,0,0,0-1.262-1.233,1.246,1.246,0,0,0-1.232,1.263l0,.3a1.247,1.247,0,0,0,2.494,0Z" transform="translate(-189.028 -555.599)" fill="#42a5f5"/>
    <path id="Path_4502" data-name="Path 4502" d="M190.074,598.1a16.18,16.18,0,0,1-20.111,2.239,1.24,1.24,0,0,0-.087-2.477h-3.742a1.247,1.247,0,0,0-1.247,1.247v3.742a1.247,1.247,0,0,0,2.494,0v-1.28a18.655,18.655,0,0,0,24.454-1.7,1.247,1.247,0,0,0-1.761-1.767" transform="translate(-159.897 -567.922)" fill="#66bb6a"/>
    <path id="Path_4493" data-name="Path 4493" d="M191.2,540.158a1.247,1.247,0,0,0-1.247,1.247v1.28a18.655,18.655,0,0,0-24.454,1.7,1.248,1.248,0,0,0,1.762,1.767,16.178,16.178,0,0,1,20.11-2.238,1.24,1.24,0,0,0,.088,2.477H191.2a1.247,1.247,0,0,0,1.247-1.248v-3.742a1.247,1.247,0,0,0-1.247-1.247" transform="translate(-160.018 -538.911)" fill="#66bb6a"/>
    <path id="Path_4498" data-name="Path 4498" d="M161.831,590.945a1.247,1.247,0,1,0-2.166,1.238l.087.153a1.247,1.247,0,0,0,2.166-1.237Z" transform="translate(-157.241 -564.265)" fill="#42a5f5"/>
    <path id="Path_4499" data-name="Path 4499" d="M158.7,583.346l-.039-.143a1.247,1.247,0,0,0-2.416.618l.054.2a1.246,1.246,0,0,0,1.2.912,1.224,1.224,0,0,0,.338-.047,1.248,1.248,0,0,0,.865-1.537" transform="translate(-155.617 -560.293)" fill="#42a5f5"/>
    <path id="Path_4500" data-name="Path 4500" d="M156.306,576.173a1.246,1.246,0,0,0,1.233-1.262l0-.3a1.247,1.247,0,1,0-2.494,0l0,.326a1.247,1.247,0,0,0,1.247,1.233Z" transform="translate(-155.042 -555.905)" fill="#42a5f5"/>
    <path id="Path_4501" data-name="Path 4501" d="M189.565,574.781v-.229a3.733,3.733,0,0,0-1.247-7.255,1.247,1.247,0,1,1,1.247-1.247,1.247,1.247,0,0,0,2.494,0,3.739,3.739,0,0,0-2.494-3.513v-.229a1.247,1.247,0,0,0-2.494,0v.229a3.733,3.733,0,0,0,1.247,7.255,1.247,1.247,0,1,1-1.247,1.247,1.247,1.247,0,0,0-2.494,0,3.735,3.735,0,0,0,2.494,3.512v.23a1.247,1.247,0,0,0,2.494,0" transform="translate(-169.609 -549.836)" fill="#ff8f00"/>
    <g id="Group_4264" data-name="Group 4264" transform="translate(18.709 0)" opacity="0.1">
      <g id="Group_4159" data-name="Group 4159">
        <g id="Group_4158" data-name="Group 4158" clip-path="url(#clip-path)">
          <path id="Path_3936" data-name="Path 3936" d="M204.431,563.69a12.493,12.493,0,0,1-12.472,12.472V551.217a12.493,12.493,0,0,1,12.472,12.472" transform="translate(-191.959 -544.98)"/>
          <path id="Path_3937" data-name="Path 3937" d="M221.74,556.9l-.088-.154a1.248,1.248,0,0,0-2.166,1.238l.088.153a1.247,1.247,0,1,0,2.166-1.237" transform="translate(-205.455 -547.396)"/>
          <path id="Path_3938" data-name="Path 3938" d="M224.3,566.758a1.247,1.247,0,0,0,.9-1.517l-.054-.2a1.247,1.247,0,1,0-2.4.671l.039.143a1.246,1.246,0,0,0,1.207.939,1.21,1.21,0,0,0,.309-.04" transform="translate(-207.12 -551.35)"/>
          <path id="Path_3939" data-name="Path 3939" d="M226.443,573.982a1.228,1.228,0,0,0-1.262-1.233,1.246,1.246,0,0,0-1.232,1.263l0,.3a1.247,1.247,0,0,0,2.494,0Z" transform="translate(-207.737 -555.599)"/>
          <path id="Path_3940" data-name="Path 3940" d="M205.192,599.861a18.661,18.661,0,0,1-13.234,5.476v-2.494a16.114,16.114,0,0,0,11.463-4.753,1.252,1.252,0,1,1,1.771,1.771" transform="translate(-191.958 -567.919)"/>
          <path id="Path_3941" data-name="Path 3941" d="M205.679,541.405v3.742a1.251,1.251,0,0,1-1.247,1.247H200.69a1.242,1.242,0,0,1-.088-2.482,16.16,16.16,0,0,0-8.643-2.507v-2.494a18.531,18.531,0,0,1,11.225,3.779v-1.284a1.247,1.247,0,0,1,2.494,0" transform="translate(-191.959 -538.91)"/>
        </g>
      </g>
    </g>
  </g>
</svg>
