<svg id="bank" xmlns="http://www.w3.org/2000/svg" width="31.473" height="31.313" viewBox="0 0 31.473 31.313">
  <g id="Group_23061" data-name="Group 23061" transform="translate(2.534 1.806)">
    <path id="Path_54549" data-name="Path 54549" d="M41.227,38.3v7.48H67.633V38.3l-13.2-7.623Z" transform="translate(-41.227 -30.678)" fill="#eceaec" fill-rule="evenodd"/>
  </g>
  <g id="Group_23062" data-name="Group 23062" transform="translate(0.462 0.461)">
    <path id="Path_54550" data-name="Path 54550" d="M7.674,18.7a1.212,1.212,0,0,0,1.652.443l.26-.15,13.2-7.623,13.2,7.623.26.15a1.209,1.209,0,0,0,1.207-2.094L23.451,8.961a1.414,1.414,0,0,0-1.328,0L8.117,17.047A1.214,1.214,0,0,0,7.674,18.7Z" transform="translate(-7.513 -8.795)" fill="#9fd4fe" fill-rule="evenodd"/>
  </g>
  <g id="Group_23063" data-name="Group 23063" transform="translate(0.463 16.91)">
    <path id="Path_54551" data-name="Path 54551" d="M9.234,278.632H37.792a.283.283,0,0,0,.282-.282v-1.687a.283.283,0,0,0-.282-.282H7.807a.283.283,0,0,0-.282.282v1.687a.283.283,0,0,0,.282.282Z" transform="translate(-7.525 -276.381)" fill="#9fd4fe" fill-rule="evenodd"/>
  </g>
  <g id="Group_23064" data-name="Group 23064" transform="translate(2.172 19.161)">
    <path id="Path_54552" data-name="Path 54552" d="M36.62,315.015h5.074a.275.275,0,0,0,.274-.274V313H35.331v1.737a.275.275,0,0,0,.274.274Z" transform="translate(-35.331 -313.004)" fill="#eceaec" fill-rule="evenodd"/>
  </g>
  <g id="Group_23065" data-name="Group 23065" transform="translate(12.417 19.161)">
    <path id="Path_54553" data-name="Path 54553" d="M203.292,315.015h5.072a.276.276,0,0,0,.275-.274V313H202v1.737a.276.276,0,0,0,.275.274Z" transform="translate(-202.001 -313.004)" fill="#eceaec" fill-rule="evenodd"/>
  </g>
  <g id="Group_23066" data-name="Group 23066" transform="translate(22.664 19.161)">
    <path id="Path_54554" data-name="Path 54554" d="M368.973,315.015h6.088a.276.276,0,0,0,.275-.274V313H368.7v1.737A.276.276,0,0,0,368.973,315.015Z" transform="translate(-368.698 -313.004)" fill="#eceaec" fill-rule="evenodd"/>
  </g>
  <g id="Group_23067" data-name="Group 23067" transform="translate(23.955 21.172)">
    <path id="Path_54555" data-name="Path 54555" d="M389.7,345.715h4.056v5.419H389.7Z" transform="translate(-389.702 -345.715)" fill="#ffe07d" fill-rule="evenodd"/>
  </g>
  <g id="Group_23068" data-name="Group 23068" transform="translate(13.708 21.172)">
    <path id="Path_54556" data-name="Path 54556" d="M223,345.715h4.056v5.419H223Z" transform="translate(-223.004 -345.715)" fill="#ffe07d" fill-rule="evenodd"/>
  </g>
  <g id="Group_23069" data-name="Group 23069" transform="translate(3.461 21.172)">
    <path id="Path_54557" data-name="Path 54557" d="M56.306,345.715h4.058v5.419H56.306Z" transform="translate(-56.306 -345.715)" fill="#ffe07d" fill-rule="evenodd"/>
  </g>
  <g id="Group_23070" data-name="Group 23070" transform="translate(2.172 26.59)">
    <path id="Path_54558" data-name="Path 54558" d="M35.331,435.881h6.637v-1.735a.276.276,0,0,0-.274-.275H35.6a.276.276,0,0,0-.274.275Z" transform="translate(-35.331 -433.87)" fill="#eceaec" fill-rule="evenodd"/>
  </g>
  <g id="Group_23071" data-name="Group 23071" transform="translate(22.664 26.59)">
    <path id="Path_54559" data-name="Path 54559" d="M368.7,435.881h6.638v-1.735a.276.276,0,0,0-.275-.275h-6.088a.276.276,0,0,0-.275.275Z" transform="translate(-368.698 -433.87)" fill="#eceaec" fill-rule="evenodd"/>
  </g>
  <g id="Group_23072" data-name="Group 23072" transform="translate(12.417 26.59)">
    <path id="Path_54560" data-name="Path 54560" d="M202,435.881h6.638v-1.735a.276.276,0,0,0-.275-.275h-6.088a.276.276,0,0,0-.275.275v1.735Z" transform="translate(-202 -433.87)" fill="#eceaec" fill-rule="evenodd"/>
  </g>
  <g id="Group_23073" data-name="Group 23073" transform="translate(0.462 28.601)">
    <path id="Path_54561" data-name="Path 54561" d="M7.806,468.833H37.791a.283.283,0,0,0,.282-.282v-1.687a.283.283,0,0,0-.282-.282H7.806a.283.283,0,0,0-.282.282v1.687a.283.283,0,0,0,.282.282Z" transform="translate(-7.524 -466.582)" fill="#9fd4fe" fill-rule="evenodd"/>
  </g>
  <g id="Group_23074" data-name="Group 23074" transform="translate(14.328 5.76)">
    <path id="Path_54562" data-name="Path 54562" d="M233.1,96.471a1.476,1.476,0,1,0,1.476-1.476A1.475,1.475,0,0,0,233.1,96.471Z" transform="translate(-233.095 -94.995)" fill="#ffe07d" fill-rule="evenodd"/>
  </g>
  <g id="Group_23075" data-name="Group 23075" transform="translate(7.519 19.161)">
    <path id="Path_54563" data-name="Path 54563" d="M122.322,315.015v5.419h1.016a.276.276,0,0,1,.274.275v1.735h3.608v-1.735a.276.276,0,0,1,.275-.275h1.016v-5.419H127.5a.276.276,0,0,1-.275-.274V313h-3.608v1.737a.275.275,0,0,1-.274.274Z" transform="translate(-122.322 -313.004)" fill="#b6b1b7" fill-rule="evenodd"/>
  </g>
  <g id="Group_23076" data-name="Group 23076" transform="translate(17.764 19.161)">
    <path id="Path_54564" data-name="Path 54564" d="M288.992,315.015v5.419h1.016a.276.276,0,0,1,.275.275v1.735h3.608v-1.735a.276.276,0,0,1,.275-.275h1.016v-5.419h-1.016a.276.276,0,0,1-.275-.274V313h-3.608v1.737a.276.276,0,0,1-.275.274Z" transform="translate(-288.992 -313.004)" fill="#b6b1b7" fill-rule="evenodd"/>
  </g>
  <g id="Group_23077" data-name="Group 23077" transform="translate(2.534 3.035)">
    <path id="Path_54565" data-name="Path 54565" d="M54.429,50.662l-13.2,7.623V60l13.2-7.623L67.633,60V58.285Z" transform="translate(-41.227 -50.662)" fill="#dad8db" fill-rule="evenodd"/>
  </g>
  <g id="Group_23078" data-name="Group 23078" transform="translate(14.328 5.76)">
    <path id="Path_54566" data-name="Path 54566" d="M234.572,94.995a1.477,1.477,0,0,0-1.4,1.957,1.475,1.475,0,0,1,2.763.071,1.458,1.458,0,0,0,.108-.552A1.476,1.476,0,0,0,234.572,94.995Z" transform="translate(-233.096 -94.995)" fill="#ffc269" fill-rule="evenodd"/>
  </g>
  <g id="Group_23079" data-name="Group 23079" transform="translate(3.461 21.172)">
    <path id="Path_54567" data-name="Path 54567" d="M56.306,345.715h4.058v1.474H56.306Z" transform="translate(-56.306 -345.715)" fill="#ffc269" fill-rule="evenodd"/>
  </g>
  <g id="Group_23080" data-name="Group 23080" transform="translate(13.708 21.172)">
    <path id="Path_54568" data-name="Path 54568" d="M223,345.715h4.056v1.474H223Z" transform="translate(-223.004 -345.715)" fill="#ffc269" fill-rule="evenodd"/>
  </g>
  <g id="Group_23081" data-name="Group 23081" transform="translate(23.955 21.172)">
    <path id="Path_54569" data-name="Path 54569" d="M389.7,345.715h4.056v1.474H389.7Z" transform="translate(-389.702 -345.715)" fill="#ffc269" fill-rule="evenodd"/>
  </g>
  <g id="Group_23082" data-name="Group 23082" transform="translate(2.172 19.161)">
    <path id="Path_54570" data-name="Path 54570" d="M35.331,313h6.637v1.079H35.331Z" transform="translate(-35.331 -313.004)" fill="#dad8db" fill-rule="evenodd"/>
  </g>
  <g id="Group_23083" data-name="Group 23083" transform="translate(12.417 19.161)">
    <path id="Path_54571" data-name="Path 54571" d="M202,313h6.638v1.079H202Z" transform="translate(-202.001 -313.004)" fill="#dad8db" fill-rule="evenodd"/>
  </g>
  <g id="Group_23084" data-name="Group 23084" transform="translate(22.664 19.161)">
    <path id="Path_54572" data-name="Path 54572" d="M368.7,313h6.638v1.079H368.7Z" transform="translate(-368.698 -313.004)" fill="#dad8db" fill-rule="evenodd"/>
  </g>
  <g id="Group_23086" data-name="Group 23086" transform="translate(0 0)">
    <path id="Path_54573" data-name="Path 54573" d="M29.028,22.928a.736.736,0,0,0,.736-.735V20.917h.966a.744.744,0,0,0,.743-.743V18.487a.744.744,0,0,0-.743-.743H29.4V12.676a1.645,1.645,0,0,0,.4.049,1.685,1.685,0,0,0,.438-.058,1.671,1.671,0,0,0,.4-3.058L16.633,1.523a1.873,1.873,0,0,0-1.79,0L.835,9.609a1.671,1.671,0,0,0,1.239,3.067v5.067H.746A.744.744,0,0,0,0,18.487v1.687a.744.744,0,0,0,.743.743h.966v1.276a.735.735,0,0,0,.735.735H3v4.5H2.446a.736.736,0,0,0-.735.736v1.274H.746A.744.744,0,0,0,0,30.178v1.687a.744.744,0,0,0,.743.743h14.03a.461.461,0,0,0,0-.922H.924V30.357H30.551v1.329H16.9a.461.461,0,1,0,0,.922H30.73a.744.744,0,0,0,.743-.743V30.178a.744.744,0,0,0-.743-.743h-.966V28.161a.737.737,0,0,0-.736-.736h-.555v-4.5h.555ZM2.045,11.7a.751.751,0,0,1-1.022-.274h0A.749.749,0,0,1,1.3,10.407L15.3,2.32a.886.886,0,0,1,.432-.1.875.875,0,0,1,.433.1l14.007,8.087a.748.748,0,0,1-.747,1.3L15.967,3.93a.461.461,0,0,0-.461,0ZM.924,18.666H14.775a.461.461,0,0,0,0-.922H3V12.219L15.737,4.862,28.48,12.219v5.525H16.826a.461.461,0,1,0,0,.922H30.551v1.329H.924Zm11.954,3.34V20.917H18.6v1.089Zm4.425.922v4.5H14.17v-4.5ZM2.633,22.005V20.917H8.348v1.089Zm4.425.922v4.5H3.923v-4.5Zm1.289,6.508H2.633V28.346H8.348Zm3.608-1.274v1.274H9.27V28.161a.736.736,0,0,0-.735-.736H7.981v-4.5h.555a.735.735,0,0,0,.735-.735V20.917h2.686v1.276a.736.736,0,0,0,.736.735h.555v4.5h-.555A.737.737,0,0,0,11.957,28.161ZM18.6,29.435H12.879V28.346H18.6ZM22.2,28.161v1.274H19.517V28.161a.737.737,0,0,0-.736-.736h-.555v-4.5h.555a.736.736,0,0,0,.736-.735V20.917H22.2v1.276a.736.736,0,0,0,.736.735h.555v4.5H22.94A.737.737,0,0,0,22.2,28.161Zm6.639.186v1.089H23.126V28.346Zm-4.425-.922v-4.5h3.134v4.5Zm-1.291-5.419V20.917h5.716v1.089Z" transform="translate(-0.001 -1.295)"/>
    <path id="Path_54574" data-name="Path 54574" d="M229.469,89.432a1.937,1.937,0,1,0-1.937,1.937A1.939,1.939,0,0,0,229.469,89.432Zm-2.952,0a1.015,1.015,0,1,1,1.015,1.015A1.016,1.016,0,0,1,226.517,89.432Z" transform="translate(-211.728 -82.196)"/>
    <g id="Group_23085" data-name="Group 23085" transform="translate(7.59 10.521)">
      <path id="Path_54575" data-name="Path 54575" d="M126.068,175.15a1.283,1.283,0,0,0-1.084-1.972h-1.04a.461.461,0,0,0-.461.461v3.58a.461.461,0,0,0,.461.461h0l1.22,0a1.424,1.424,0,0,0,.9-2.526Zm-1.084-1.05a.363.363,0,1,1,0,.726H124.4V174.1h.579Zm.182,2.654-.761,0v-1.007h.761a.5.5,0,0,1,0,1.005Z" transform="translate(-123.483 -173.133)"/>
      <path id="Path_54576" data-name="Path 54576" d="M189.634,173.528l0-.012a.54.54,0,0,0-.5-.336h0a.54.54,0,0,0-.5.337l0,.011-1.344,3.53a.461.461,0,0,0,.862.328l.222-.582h1.524l.219.581a.461.461,0,1,0,.863-.326Zm-.922,2.353.414-1.087.41,1.087Z" transform="translate(-183.327 -173.134)"/>
      <path id="Path_54577" data-name="Path 54577" d="M266.772,173.179h0a.461.461,0,0,0-.457.465l.021,2.138-1.656-2.4a.461.461,0,0,0-.84.262v3.574a.461.461,0,1,0,.922,0v-2.095l1.576,2.282a.508.508,0,0,0,.574.211.526.526,0,0,0,.359-.524l-.033-3.46A.461.461,0,0,0,266.772,173.179Z" transform="translate(-255.208 -173.134)"/>
      <path id="Path_54578" data-name="Path 54578" d="M344.295,176.2l-1.61-1.554,1.474-1.354a.461.461,0,0,0-.624-.679l-1.177,1.082v-.788a.461.461,0,1,0-.922,0v3.625a.461.461,0,1,0,.922,0v-.92l1.3,1.252a.461.461,0,1,0,.64-.664Z" transform="translate(-328.038 -172.45)"/>
    </g>
  </g>
</svg>
