<svg id="Group_18197" data-name="Group 18197" xmlns="http://www.w3.org/2000/svg" width="40.109" height="40.11" viewBox="0 0 40.109 40.11">
  <path id="Path_39838" data-name="Path 39838" d="M219.107,22.517A18.96,18.96,0,1,1,200.146,3.556a18.98,18.98,0,0,1,18.961,18.961" transform="translate(-180.092 -2.458)" fill="#fff"/>
  <path id="Path_39839" data-name="Path 39839" d="M200.466,2.781A20.055,20.055,0,1,0,220.52,22.836,20.078,20.078,0,0,0,200.466,2.781m0,39.016a18.96,18.96,0,1,1,18.961-18.961A18.98,18.98,0,0,1,200.466,41.8" transform="translate(-180.411 -2.781)" fill="#007fe6"/>
  <path id="Path_39840" data-name="Path 39840" d="M198.7,12.312s-.213-3.849,1.375-3.787-1.375,3.787-1.375,3.787" transform="translate(-172.889 -0.414)" fill="#007fe6"/>
  <path id="Path_39841" data-name="Path 39841" d="M198.935,12.023s3.268-3.3,3.482-1.955-3.482,1.955-3.482,1.955" transform="translate(-172.788 0.092)" fill="#007fe6"/>
  <path id="Path_39842" data-name="Path 39842" d="M191.507,12.087s-3.726-.987-3.177-2.477,3.177,2.477,3.177,2.477" transform="translate(-177.175 -0.107)" fill="#007fe6"/>
  <path id="Path_39843" data-name="Path 39843" d="M191.141,12.232s-2.127-4.127-.783-3.916.783,3.916.783,3.916" transform="translate(-176.501 -0.504)" fill="#007fe6"/>
  <path id="Path_39844" data-name="Path 39844" d="M189.145,19.02s-2.089,3.239-3.338,2.256,3.338-2.256,3.338-2.256" transform="translate(-178.279 3.906)" fill="#007fe6"/>
  <path id="Path_39845" data-name="Path 39845" d="M189.178,19.022s-4.583.748-3.966-.466,3.966.466,3.966.466" transform="translate(-178.459 3.534)" fill="#007fe6"/>
  <path id="Path_39846" data-name="Path 39846" d="M194.726,23.752s2.435,2.988,1.114,3.872-1.114-3.872-1.114-3.872" transform="translate(-174.525 5.854)" fill="#007fe6"/>
  <path id="Path_39847" data-name="Path 39847" d="M194.989,23.769s-.706,4.59-1.668,3.628,1.668-3.628,1.668-3.628" transform="translate(-175.186 5.859)" fill="#007fe6"/>
  <path id="Path_39848" data-name="Path 39848" d="M194.817,7.378a8.089,8.089,0,0,1,2.474,3.726,4.953,4.953,0,0,0-3.3-.947s4.826,1.955,1.863,9.133c0,0-8.736-6.322-1.039-11.912" transform="translate(-175.788 -0.887)" fill="#fff100"/>
  <path id="Path_39849" data-name="Path 39849" d="M185.438,15.006a8.085,8.085,0,0,1,4.308-1.2,4.957,4.957,0,0,0-1.92,2.844s3.351-3.986,9.262,1.05c0,0-8.713,6.355-11.651-2.693" transform="translate(-178.342 1.756)" fill="#fff100"/>
  <path id="Path_39850" data-name="Path 39850" d="M189.812,27.93A8.1,8.1,0,0,1,190,23.461a4.955,4.955,0,0,0,2.112,2.7s-2.755-4.418,3.861-8.483c0,0,3.351,10.25-6.161,10.248" transform="translate(-176.638 3.356)" fill="#fff100"/>
  <path id="Path_39851" data-name="Path 39851" d="M203.147,26.659a8.1,8.1,0,0,1-4.192-1.561,4.947,4.947,0,0,0,3.225-1.173s-5.053,1.256-6.875-6.293c0,0,10.784-.02,7.842,9.027" transform="translate(-174.282 3.331)" fill="#fff100"/>
  <path id="Path_39852" data-name="Path 39852" d="M206.634,13.657a8.091,8.091,0,0,1-2.779,3.5,4.954,4.954,0,0,0-.119-3.43s-.368,5.194-8.111,4.594c0,0,3.314-10.263,11.008-4.669" transform="translate(-174.15 1.01)" fill="#fff100"/>
  <path id="Path_39853" data-name="Path 39853" d="M194.606,5.408s-.152,1.222,2.443,3.451,3.971,6.2-1.74,11.394c0,0,2.641-6.017,1.642-8.767s-3.688-2.9-2.345-6.078" transform="translate(-174.721 -1.696)" fill="#007fe6"/>
  <path id="Path_39854" data-name="Path 39854" d="M183.752,14.13s1.115.522,4.038-1.258,7.124-1.86,10.3,5.177c0,0-4.906-4.373-7.83-4.271s-3.9,2.611-6.506.351" transform="translate(-179.036 0.959)" fill="#007fe6"/>
  <path id="Path_39855" data-name="Path 39855" d="M188.141,29.8s.841-.9.052-4.229.432-7.35,8.1-8.194c0,0-5.674,3.316-6.48,6.127s1.277,4.515-1.677,6.3" transform="translate(-177.294 3.228)" fill="#007fe6"/>
  <path id="Path_39856" data-name="Path 39856" d="M204.351,29.357s-.594-1.078-4.006-1.356-6.857-2.682-5.287-10.241c0,0,1.4,6.421,3.824,8.057s4.689.181,5.47,3.54" transform="translate(-174.544 3.388)" fill="#007fe6"/>
  <path id="Path_39857" data-name="Path 39857" d="M209.538,13.146s-1.21.233-2.528,3.39-4.669,5.693-11.373,1.865c0,0,6.538.654,8.845-1.148s1.619-4.4,5.056-4.108" transform="translate(-174.145 1.48)" fill="#007fe6"/>
  <path id="Path_39858" data-name="Path 39858" d="M201.267,19.092s3.594-1.393,4.027.137-4.027-.137-4.027-.137" transform="translate(-171.828 3.698)" fill="#007fe6"/>
  <path id="Path_39859" data-name="Path 39859" d="M201.2,19.2s4.147,2.089,2.935,2.707S201.2,19.2,201.2,19.2" transform="translate(-171.858 3.977)" fill="#007fe6"/>
  <path id="Path_39860" data-name="Path 39860" d="M199.956,40.581h-.011c-.429,0-.864-.016-1.292-.045a.274.274,0,0,1,.038-.546c.415.03.837.044,1.253.044a.278.278,0,0,1,.278.274.268.268,0,0,1-.267.274m1.283-.047a.274.274,0,0,1-.02-.546c.421-.03.843-.075,1.258-.134a.273.273,0,0,1,.078.541c-.428.062-.864.109-1.3.14h-.02M197.4,40.4l-.038,0c-.429-.061-.861-.138-1.283-.23a.273.273,0,1,1,.114-.534c.411.088.829.162,1.245.222a.274.274,0,0,1-.038.545m6.383-.23a.273.273,0,0,1-.058-.541c.411-.09.823-.195,1.225-.313a.274.274,0,0,1,.155.525c-.415.121-.841.23-1.263.322a.283.283,0,0,1-.059.007m-8.891-.312a.252.252,0,0,1-.078-.011c-.415-.121-.831-.258-1.237-.409a.276.276,0,0,1-.161-.353.272.272,0,0,1,.352-.16c.394.145.8.279,1.2.4a.273.273,0,0,1-.076.535m11.354-.412a.274.274,0,0,1-.1-.529c.394-.147.786-.311,1.167-.484a.273.273,0,0,1,.227.5c-.392.179-.8.347-1.2.5a.28.28,0,0,1-.1.017m-13.761-.483a.275.275,0,0,1-.114-.025c-.394-.179-.786-.377-1.166-.584a.274.274,0,0,1,.263-.48c.368.2.75.392,1.131.567a.274.274,0,0,1-.113.522m16.093-.584a.274.274,0,0,1-.131-.514c.368-.2.733-.418,1.085-.645a.273.273,0,1,1,.3.459c-.364.234-.74.459-1.119.666a.28.28,0,0,1-.131.034m-18.347-.648a.271.271,0,0,1-.148-.044c-.364-.233-.724-.484-1.071-.744a.273.273,0,1,1,.327-.438c.337.253.686.5,1.04.723a.273.273,0,0,1-.148.5m20.5-.741a.274.274,0,0,1-.165-.493c.336-.251.668-.519.985-.795a.273.273,0,0,1,.357.414c-.326.284-.668.559-1.013.819a.275.275,0,0,1-.164.055m-22.56-.8a.276.276,0,0,1-.178-.066c-.327-.284-.649-.583-.956-.888a.273.273,0,0,1,.387-.387c.3.3.608.586.926.861a.273.273,0,0,1-.179.48m24.5-.885a.273.273,0,0,1-.193-.466c.3-.3.587-.608.862-.926a.274.274,0,1,1,.414.359c-.284.326-.583.648-.889.953a.271.271,0,0,1-.193.08m-26.313-.929a.278.278,0,0,1-.208-.095c-.284-.326-.559-.668-.819-1.013a.273.273,0,1,1,.438-.327c.251.335.519.666.795.982a.276.276,0,0,1-.027.387.279.279,0,0,1-.179.066m28-1.011a.269.269,0,0,1-.164-.055.273.273,0,0,1-.055-.383c.251-.336.5-.686.723-1.039a.273.273,0,1,1,.459.3c-.234.364-.484.724-.744,1.07a.274.274,0,0,1-.219.11m-29.537-1.042a.275.275,0,0,1-.23-.124c-.234-.364-.459-.741-.666-1.119a.274.274,0,0,1,.48-.263c.2.367.418.733.646,1.085a.274.274,0,0,1-.082.378.281.281,0,0,1-.148.042m30.926-1.118a.256.256,0,0,1-.13-.034.271.271,0,0,1-.109-.37c.2-.37.392-.75.568-1.132a.273.273,0,1,1,.5.227c-.181.394-.377.786-.586,1.166a.271.271,0,0,1-.24.143M183.581,30.08a.271.271,0,0,1-.248-.16c-.181-.394-.349-.8-.5-1.2a.273.273,0,1,1,.512-.191c.147.391.311.783.486,1.166a.272.272,0,0,1-.136.361.249.249,0,0,1-.113.025m33.227-1.205a.278.278,0,0,1-.095-.017.274.274,0,0,1-.161-.351c.147-.394.281-.8.4-1.2a.273.273,0,1,1,.524.152c-.121.416-.26.833-.411,1.238a.273.273,0,0,1-.257.178m-34.128-1.2a.272.272,0,0,1-.261-.2c-.123-.415-.231-.84-.323-1.263a.273.273,0,1,1,.534-.116c.09.411.195.823.313,1.225a.272.272,0,0,1-.185.339.24.24,0,0,1-.078.011m34.85-1.266a.26.26,0,0,1-.058-.006.275.275,0,0,1-.21-.326c.089-.409.164-.827.223-1.244a.274.274,0,1,1,.542.076c-.061.429-.138.861-.23,1.283a.274.274,0,0,1-.267.216m-35.4-1.241a.274.274,0,0,1-.27-.234c-.062-.428-.109-.864-.14-1.3a.273.273,0,0,1,.545-.04c.031.419.076.843.135,1.258a.273.273,0,0,1-.231.309l-.039,0m35.758-1.3h-.018a.274.274,0,0,1-.254-.292c.03-.419.044-.844.044-1.265V22.27a.274.274,0,0,1,.548,0v.044c0,.433-.015.872-.047,1.3a.273.273,0,0,1-.272.254M181.95,22.61a.272.272,0,0,1-.272-.272v-.02c0-.429.014-.86.044-1.283a.273.273,0,1,1,.545.038c-.028.411-.042.829-.042,1.241v.024a.273.273,0,0,1-.274.272m35.938-1.351a.273.273,0,0,1-.272-.254c-.031-.419-.078-.843-.137-1.256a.273.273,0,1,1,.541-.079c.062.428.11.864.141,1.3a.274.274,0,0,1-.253.294h-.02m-35.761-1.21h-.038a.274.274,0,0,1-.233-.309c.061-.429.138-.861.229-1.284a.274.274,0,0,1,.535.116c-.089.409-.164.829-.222,1.245a.273.273,0,0,1-.271.234m35.392-1.33a.274.274,0,0,1-.267-.215c-.09-.411-.2-.823-.315-1.225a.273.273,0,1,1,.524-.155c.123.415.231.84.325,1.263a.272.272,0,0,1-.209.325.282.282,0,0,1-.058.007m-34.853-1.179a.293.293,0,0,1-.076-.011.273.273,0,0,1-.185-.339c.12-.415.258-.831.409-1.238a.273.273,0,0,1,.512.191c-.147.394-.279.8-.4,1.2a.273.273,0,0,1-.262.2m34.125-1.283a.274.274,0,0,1-.255-.176c-.148-.392-.312-.785-.487-1.166a.273.273,0,1,1,.5-.229c.181.392.35.8.5,1.2a.274.274,0,0,1-.16.353.281.281,0,0,1-.1.017m-33.23-1.124a.268.268,0,0,1-.113-.025.271.271,0,0,1-.136-.361c.179-.394.375-.788.583-1.167a.273.273,0,1,1,.48.261c-.2.37-.391.751-.566,1.132a.272.272,0,0,1-.248.161m32.158-1.205a.273.273,0,0,1-.24-.141c-.2-.367-.419-.733-.648-1.085a.273.273,0,1,1,.459-.3c.236.363.46.74.669,1.118a.274.274,0,0,1-.24.405m-30.929-1.05a.266.266,0,0,1-.147-.044.272.272,0,0,1-.083-.377c.234-.366.484-.726.744-1.073a.273.273,0,0,1,.438.327c-.251.337-.494.686-.721,1.04a.271.271,0,0,1-.23.126m29.536-1.1a.275.275,0,0,1-.219-.109c-.253-.336-.519-.666-.8-.982a.274.274,0,1,1,.412-.36c.285.327.56.668.82,1.013a.271.271,0,0,1-.054.383.275.275,0,0,1-.164.055m-28-.953a.276.276,0,0,1-.178-.066.273.273,0,0,1-.028-.385c.284-.327.582-.649.888-.956a.273.273,0,0,1,.387.385c-.3.3-.587.61-.861.927a.273.273,0,0,1-.207.095m26.313-.982a.271.271,0,0,1-.193-.08c-.3-.3-.61-.586-.927-.86a.273.273,0,0,1,.357-.414c.327.282.649.58.956.886a.273.273,0,0,1-.192.467M188.143,9a.272.272,0,0,1-.179-.479c.326-.285.668-.56,1.012-.82a.276.276,0,0,1,.384.054.273.273,0,0,1-.055.383c-.335.253-.666.521-.982.8a.272.272,0,0,1-.179.066M210.7,8.162a.268.268,0,0,1-.162-.055c-.337-.251-.687-.494-1.04-.72a.273.273,0,1,1,.295-.46c.364.233.724.483,1.071.742a.273.273,0,0,1-.164.493m-20.505-.7a.273.273,0,0,1-.148-.5c.363-.236.74-.46,1.118-.668a.273.273,0,0,1,.264.479c-.368.2-.734.421-1.085.648a.274.274,0,0,1-.148.044m18.344-.687a.276.276,0,0,1-.131-.034c-.37-.2-.751-.391-1.132-.565a.274.274,0,0,1,.226-.5c.394.179.788.375,1.167.583a.273.273,0,0,1-.13.514m-16.1-.548a.272.272,0,0,1-.114-.521c.392-.181.8-.35,1.2-.5a.274.274,0,1,1,.192.512c-.392.147-.785.311-1.166.486a.266.266,0,0,1-.113.024M206.2,5.711a.273.273,0,0,1-.095-.017c-.394-.145-.8-.279-1.2-.4a.273.273,0,1,1,.152-.525c.416.121.833.258,1.238.409a.273.273,0,0,1-.095.529m-11.356-.384a.273.273,0,0,1-.078-.535c.415-.123.84-.231,1.263-.325a.274.274,0,0,1,.116.535c-.409.089-.822.195-1.224.313a.252.252,0,0,1-.078.011m8.891-.333a.256.256,0,0,1-.056-.006c-.411-.088-.829-.162-1.245-.222a.273.273,0,1,1,.075-.541c.431.061.862.137,1.285.227a.273.273,0,0,1-.058.541M197.35,4.78a.273.273,0,0,1-.039-.543c.428-.062.864-.109,1.3-.14a.273.273,0,1,1,.04.545c-.419.03-.843.076-1.256.136a.194.194,0,0,1-.04,0m3.844-.143h-.018c-.408-.028-.821-.042-1.231-.042h-.034a.274.274,0,0,1,0-.548h.034c.422,0,.848.016,1.268.044a.273.273,0,0,1-.018.546" transform="translate(-179.89 -2.254)" fill="#007fe6"/>
</svg>
