<svg xmlns="http://www.w3.org/2000/svg" xmlns:xlink="http://www.w3.org/1999/xlink" width="38.7" height="38.7" viewBox="0 0 38.7 38.7"><defs><style>.a{fill:none;}.b{clip-path:url(#a);}.c{fill:#3897f0;}.d{fill:#fff;}</style><clipPath id="a"><rect class="a" width="38.7" height="38.7"/></clipPath></defs><g class="b" transform="translate(0 0)"><path class="c" d="M38.7,19.351c0,1.653-2.025,2.976-2.441,4.539s.654,3.766-.148,5.135-3.246,1.563-4.376,2.71-1.31,3.572-2.709,4.375-3.574-.268-5.135.15S21,38.7,19.349,38.7s-2.976-2.025-4.464-2.441-3.766.654-5.135-.15-1.563-3.244-2.71-4.375-3.572-1.31-4.375-2.71.268-3.572-.15-5.135S0,21,0,19.351s2.023-2.976,2.441-4.466S1.785,11.12,2.59,9.75,5.835,8.113,6.966,6.966s1.31-3.572,2.709-4.375,3.572.268,5.135-.15S17.7,0,19.349,0s2.978,2.025,4.541,2.441,3.764-.654,5.135.15,1.563,3.244,2.709,4.375,3.572,1.31,4.376,2.71-.268,3.572.148,5.135S38.7,17.7,38.7,19.351" transform="translate(0 0)"/><path class="d" d="M16.181,5.017A11.164,11.164,0,1,1,5.017,16.181,11.165,11.165,0,0,1,16.181,5.017" transform="translate(3.169 3.169)"/><path class="c" d="M12.849,17.534a1.091,1.091,0,0,1-.788-.328L8.592,13.8a1.116,1.116,0,1,1,1.522-1.633c.02.018.038.038.055.055l2.679,2.65,5.269-5.194A1.121,1.121,0,1,1,19.7,11.268l-6.073,5.953a1.035,1.035,0,0,1-.773.313" transform="translate(5.203 5.907)"/></g></svg>