<svg xmlns="http://www.w3.org/2000/svg" width="26.024" height="26.024" viewBox="0 0 26.024 26.024"><defs><style>.a{fill:#f0cd00;}.b{fill:#ffde50;}.c,.h{fill:#ffea94;}.d{fill:#faa300;}.e{fill:#ffbd00;}.f,.g{fill:#f68e00;}.g,.h{font-size:16px;font-family:SuisseIntl-Medium, Suisse Intl;font-weight:500;}</style></defs><path class="a" d="M168.671,13.012a13.04,13.04,0,1,1-4.2-9.575,13.012,13.012,0,0,1,4.2,9.575" transform="translate(-142.647 0)"/><path class="b" d="M169.188,13.017a12.536,12.536,0,1,1-12.528-13,13.012,13.012,0,0,1,12.528,13" transform="translate(-143.164 -0.004)"/><path class="c" d="M165.422,4.391,147.037,22.776a13.132,13.132,0,0,1-1.648-2.223L163.2,2.743a13.013,13.013,0,0,1,2.222,1.648" transform="translate(-143.601 -0.954)"/><path class="c" d="M170.421,10.9,153.549,27.773a13.012,13.012,0,0,1-3.294-1.893L168.529,7.607a12.976,12.976,0,0,1,1.892,3.3" transform="translate(-145.294 -2.647)"/><path class="d" d="M167.318,14.561a10.111,10.111,0,0,1-20.221.125c0-.041,0-.083,0-.124A10.11,10.11,0,0,1,157.207,4.451h.125a10.064,10.064,0,0,1,5.7,1.844,10.2,10.2,0,0,1,2.785,2.963,10.048,10.048,0,0,1,1.5,5.3" transform="translate(-144.195 -1.548)"/><path class="e" d="M164.356,7.411l-14.3,14.3a10.071,10.071,0,0,1-2.961-7.024c0-.041,0-.082,0-.124A10.11,10.11,0,0,1,157.207,4.45h.125a10.105,10.105,0,0,1,7.025,2.959" transform="translate(-144.195 -1.548)"/><path class="f" d="M172.411,14.561A10.111,10.111,0,0,1,162.3,24.671q-.287,0-.57-.016a10.111,10.111,0,0,0,0-20.19c.189-.01.379-.016.571-.016a10.111,10.111,0,0,1,10.111,10.111" transform="translate(-149.288 -1.548)"/><text class="g" transform="translate(6.297 18.822)"><tspan x="0" y="0">C</tspan></text><text class="h" transform="translate(7.727 18.447)"><tspan x="0" y="0">C</tspan></text></svg>