<svg id="Group_4798" data-name="Group 4798" xmlns="http://www.w3.org/2000/svg" width="26.024" height="26.024" viewBox="0 0 26.024 26.024">
  <path id="Path_4471" data-name="Path 4471" d="M168.671,13.012a13.04,13.04,0,1,1-4.2-9.575,13.012,13.012,0,0,1,4.2,9.575" transform="translate(-142.647 0)" fill="#f0cd00"/>
  <path id="Path_4472" data-name="Path 4472" d="M169.188,13.017a12.536,12.536,0,1,1-12.528-13,13.012,13.012,0,0,1,12.528,13" transform="translate(-143.164 -0.004)" fill="#ffde50"/>
  <path id="Path_4473" data-name="Path 4473" d="M165.422,4.391,147.037,22.776a13.132,13.132,0,0,1-1.648-2.223L163.2,2.743a13.013,13.013,0,0,1,2.222,1.648" transform="translate(-143.601 -0.954)" fill="#ffea94"/>
  <path id="Path_4474" data-name="Path 4474" d="M170.421,10.9,153.549,27.773a13.012,13.012,0,0,1-3.294-1.893L168.529,7.607a12.976,12.976,0,0,1,1.892,3.3" transform="translate(-145.294 -2.647)" fill="#ffea94"/>
  <path id="Path_4475" data-name="Path 4475" d="M167.318,14.561a10.111,10.111,0,0,1-20.221.125c0-.041,0-.083,0-.124A10.11,10.11,0,0,1,157.207,4.451h.125a10.064,10.064,0,0,1,5.7,1.844,10.2,10.2,0,0,1,2.785,2.963,10.048,10.048,0,0,1,1.5,5.3" transform="translate(-144.195 -1.548)" fill="#faa300"/>
  <path id="Path_4476" data-name="Path 4476" d="M164.356,7.411l-14.3,14.3a10.071,10.071,0,0,1-2.961-7.024c0-.041,0-.082,0-.124A10.11,10.11,0,0,1,157.207,4.45h.125a10.105,10.105,0,0,1,7.025,2.959" transform="translate(-144.195 -1.548)" fill="#ffbd00"/>
  <path id="Path_4477" data-name="Path 4477" d="M172.411,14.561A10.111,10.111,0,0,1,162.3,24.671q-.287,0-.57-.016a10.111,10.111,0,0,0,0-20.19c.189-.01.379-.016.571-.016a10.111,10.111,0,0,1,10.111,10.111" transform="translate(-149.288 -1.548)" fill="#f68e00"/>
  <text id="C" transform="translate(5.863 16.089)" fill="#f68e00" font-size="13" font-family="SegoeUI, Segoe UI"><tspan x="0" y="0">C</tspan></text>
  <text id="C-2" data-name="C" transform="translate(6.884 15.821)" fill="#ffea94" font-size="13" font-family="SegoeUI, Segoe UI"><tspan x="0" y="0">C</tspan></text>
</svg>
