<svg xmlns="http://www.w3.org/2000/svg" width="12.884" height="12.656" viewBox="0 0 12.884 12.656">
  <g id="calendar_1_" data-name="calendar (1)" transform="translate(0)">
    <g id="_x31_5_38_" transform="translate(0 0)">
      <g id="Group_22947" data-name="Group 22947">
        <path id="Path_54431" data-name="Path 54431" d="M99.922,7.7h.184a.507.507,0,0,0,.507-.507V5.269a.507.507,0,0,0-.507-.507h-.184a.507.507,0,0,0-.507.507V7.192A.507.507,0,0,0,99.922,7.7Z" transform="translate(-96.774 -4.749)" fill="#043655"/>
        <path id="Path_54432" data-name="Path 54432" d="M344.788,7.227h.184a.507.507,0,0,0,.507-.507V4.8a.507.507,0,0,0-.507-.507h-.184a.507.507,0,0,0-.507.507V6.719A.507.507,0,0,0,344.788,7.227Z" transform="translate(-335.134 -4.289)" fill="#043655"/>
        <path id="Path_54433" data-name="Path 54433" d="M12.059,43.558h-1.3v1.52a.816.816,0,0,1-.919.787H9.654a.921.921,0,0,1-.919-.919V43.558H4.252v1.4a.921.921,0,0,1-.919.919H3.148a.921.921,0,0,1-.919-.919v-1.4H.825A.825.825,0,0,0,0,44.383v9.964a.825.825,0,0,0,.825.825H12.059a.825.825,0,0,0,.825-.825V44.383A.825.825,0,0,0,12.059,43.558Zm0,10.788H.825V46.822H12.059v7.524Z" transform="translate(0 -42.515)" fill="#043655"/>
        <path id="Path_54434" data-name="Path 54434" d="M254.6,206.65h1.48a.106.106,0,0,0,.106-.106v-1.282a.106.106,0,0,0-.106-.106H254.6a.106.106,0,0,0-.106.106v1.282A.106.106,0,0,0,254.6,206.65Z" transform="translate(-247.737 -199.819)" fill="#043655"/>
        <path id="Path_54435" data-name="Path 54435" d="M345.549,206.65h1.48a.106.106,0,0,0,.106-.106v-1.282a.106.106,0,0,0-.106-.106h-1.48a.106.106,0,0,0-.106.106v1.282A.106.106,0,0,0,345.549,206.65Z" transform="translate(-336.266 -199.819)" fill="#043655"/>
        <path id="Path_54436" data-name="Path 54436" d="M72.717,285.649H74.2a.106.106,0,0,0,.106-.106V284.26a.106.106,0,0,0-.106-.106h-1.48a.106.106,0,0,0-.106.106v1.282A.106.106,0,0,0,72.717,285.649Z" transform="translate(-70.682 -276.719)" fill="#043655"/>
        <path id="Path_54437" data-name="Path 54437" d="M163.661,285.649h1.48a.106.106,0,0,0,.106-.106V284.26a.106.106,0,0,0-.106-.106h-1.48a.106.106,0,0,0-.106.106v1.282A.106.106,0,0,0,163.661,285.649Z" transform="translate(-159.21 -276.719)" fill="#043655"/>
        <path id="Path_54438" data-name="Path 54438" d="M254.605,285.649h1.48a.106.106,0,0,0,.106-.106V284.26a.106.106,0,0,0-.106-.106h-1.48a.106.106,0,0,0-.106.106v1.282A.106.106,0,0,0,254.605,285.649Z" transform="translate(-247.738 -276.719)" fill="#043655"/>
        <path id="Path_54439" data-name="Path 54439" d="M345.549,285.649h1.48a.106.106,0,0,0,.106-.106V284.26a.106.106,0,0,0-.106-.106h-1.48a.106.106,0,0,0-.106.106v1.282A.106.106,0,0,0,345.549,285.649Z" transform="translate(-336.266 -276.719)" fill="#043655"/>
        <path id="Path_54440" data-name="Path 54440" d="M74.2,363.154h-1.48a.106.106,0,0,0-.106.106v1.282a.106.106,0,0,0,.106.106H74.2a.106.106,0,0,0,.106-.106V363.26A.106.106,0,0,0,74.2,363.154Z" transform="translate(-70.683 -353.62)" fill="#043655"/>
        <path id="Path_54441" data-name="Path 54441" d="M165.143,363.154h-1.48a.106.106,0,0,0-.106.106v1.282a.106.106,0,0,0,.106.106h1.48a.106.106,0,0,0,.106-.106V363.26A.106.106,0,0,0,165.143,363.154Z" transform="translate(-159.211 -353.62)" fill="#043655"/>
        <path id="Path_54442" data-name="Path 54442" d="M256.087,363.154h-1.481a.106.106,0,0,0-.106.106v1.282a.106.106,0,0,0,.106.106h1.481a.106.106,0,0,0,.106-.106V363.26A.106.106,0,0,0,256.087,363.154Z" transform="translate(-247.739 -353.62)" fill="#043655"/>
        <path id="Path_54443" data-name="Path 54443" d="M347.03,363.154h-1.481a.106.106,0,0,0-.106.106v1.282a.106.106,0,0,0,.106.106h1.481a.106.106,0,0,0,.106-.106V363.26A.106.106,0,0,0,347.03,363.154Z" transform="translate(-336.266 -353.62)" fill="#043655"/>
      </g>
    </g>
  </g>
</svg>
