<svg xmlns="http://www.w3.org/2000/svg" width="16.017" height="8.875" viewBox="0 0 16.017 8.875">
  <g id="Group_23850" data-name="Group 23850" transform="translate(0 -114.151)">
    <g id="Group_23849" data-name="Group 23849">
      <g id="Group_23004" data-name="Group 23004" transform="translate(0 114.151)">
        <g id="Group_23003" data-name="Group 23003">
          <path id="Path_54480" data-name="Path 54480" d="M15.541,114.151H.476a.476.476,0,0,0-.476.476v7.923a.476.476,0,0,0,.476.476H15.541a.476.476,0,0,0,.476-.476v-7.923A.476.476,0,0,0,15.541,114.151Zm-.476,7.923H.951V115.1H15.065v6.972Z" transform="translate(0 -114.151)" fill="#043655"/>
        </g>
      </g>
      <path id="Path_54481" data-name="Path 54481" d="M71.481,168.246a.786.786,0,0,1-.785-.785.476.476,0,0,0-.476-.476h-8.81a.476.476,0,0,0-.476.476.786.786,0,0,1-.785.785.476.476,0,0,0-.476.476v2.1a.476.476,0,0,0,.476.476.786.786,0,0,1,.785.785.476.476,0,0,0,.476.476h8.81a.476.476,0,0,0,.476-.476.786.786,0,0,1,.785-.785.476.476,0,0,0,.476-.476v-2.1A.476.476,0,0,0,71.481,168.246Zm-.476,2.162a1.744,1.744,0,0,0-1.195,1.195H61.82a1.744,1.744,0,0,0-1.195-1.195v-1.277a1.744,1.744,0,0,0,1.195-1.195h7.991a1.744,1.744,0,0,0,1.195,1.195Z" transform="translate(-57.807 -51.181)" fill="#043655"/>
    </g>
    <path id="Path_54482" data-name="Path 54482" d="M211.852,210.426a1.426,1.426,0,1,0,1.426,1.426A1.427,1.427,0,0,0,211.852,210.426Zm0,1.9a.474.474,0,1,1,.474-.474A.475.475,0,0,1,211.852,212.326Z" transform="translate(-203.843 -93.263)" fill="#043655"/>
  </g>
</svg>
