<svg xmlns="http://www.w3.org/2000/svg" width="18.833" height="18.833" viewBox="0 0 18.833 18.833"><defs><style>.a{fill:#03273c;}</style></defs><g transform="translate(0)"><path class="a" d="M17.432,17.73V11.843h-6.34V17.73h-1.1V10.74H13.71V4.446H12.469V1.981h-1.4V0h-1.1V1.981h-1.4V4.446H7.318V17.73h-1.1V6.912H1.4V17.73H0v1.1H18.833v-1.1ZM11.195,5.808h1.1v1.1h-1.1Zm0,2.466h1.1v1.1h-1.1ZM4.335,17.3h-1.1v-1.1h1.1Zm0-2.64h-1.1v-1.1h1.1Zm0-2.64h-1.1v-1.1h1.1Zm0-2.64h-1.1v-1.1h1.1Zm5.5,0h-1.1v-1.1h1.1Zm0-2.466h-1.1v-1.1h1.1Zm.129-3.569h1.1v1.1h-1.1ZM13.573,17.73h-1.1V13.3h1.1Zm2.481,0h-1.1V13.3h1.1Z"/></g></svg>