<svg xmlns="http://www.w3.org/2000/svg" width="10.471" height="13.746" viewBox="0 0 10.471 13.746">
  <g id="Group_22963" data-name="Group 22963" transform="translate(0 0)">
    <g id="notes" transform="translate(0 0)">
      <g id="Group_22960" data-name="Group 22960" transform="translate(8.054 0.062)">
        <g id="Group_22959" data-name="Group 22959">
          <path id="Path_54458" data-name="Path 54458" d="M302.079,4.018l-1.53-1.454a1.189,1.189,0,0,0-.51-.27V4.649h2.391A1.214,1.214,0,0,0,302.079,4.018Z" transform="translate(-300.039 -2.294)" fill="#043655"/>
        </g>
      </g>
      <g id="Group_22962" data-name="Group 22962" transform="translate(0)">
        <g id="Group_22961" data-name="Group 22961">
          <path id="Path_54459" data-name="Path 54459" d="M6.958,9.882a2.03,2.03,0,0,1,.415-.825l3.136-3.711V3.222H7.69a.4.4,0,0,1-.4-.4V0H1.246A1.209,1.209,0,0,0,.038,1.208v11.33a1.209,1.209,0,0,0,1.208,1.208H9.3a1.209,1.209,0,0,0,1.208-1.208v-.952l-.052.062a2.022,2.022,0,0,1-.737.549l-1.479.641a1.208,1.208,0,0,1-1.656-1.389ZM2.052,2.416H6.079a.4.4,0,0,1,0,.805H2.052a.4.4,0,1,1,0-.805Zm0,2.443H8.5a.4.4,0,0,1,0,.805H2.052a.4.4,0,1,1,0-.805ZM5.273,10.5H2.052a.4.4,0,1,1,0-.805H5.273a.4.4,0,1,1,0,.805ZM2.052,8.081a.4.4,0,0,1,0-.805H6.884a.4.4,0,0,1,0,.805Z" transform="translate(-0.038)" fill="#043655"/>
        </g>
      </g>
    </g>
    <path id="Path_54460" data-name="Path 54460" d="M810.64,1578.813v7.045l-2.265,1.2-1.632-.309-.43-1.031.55-2.56,1.581-2.045Z" transform="translate(-800.169 -1573.641)" fill="#043655"/>
  </g>
</svg>
