<svg xmlns="http://www.w3.org/2000/svg" width="15.642" height="15.642" viewBox="0 0 15.642 15.642"><defs><style>.a{fill:#043655;}</style></defs><path class="a" d="M7.821,0a7.821,7.821,0,1,0,7.821,7.821A7.821,7.821,0,0,0,7.821,0Zm2.247,10.9a2.516,2.516,0,0,1-1.3.837.363.363,0,0,0-.315.415c.01.232,0,.46,0,.692a.287.287,0,0,1-.309.322c-.132,0-.264.006-.4.006-.116,0-.232,0-.348,0a.3.3,0,0,1-.322-.341c0-.167,0-.338,0-.505,0-.373-.016-.386-.373-.444a4.744,4.744,0,0,1-1.326-.38c-.328-.161-.364-.241-.27-.589.071-.257.142-.515.222-.769.058-.187.113-.27.212-.27a.564.564,0,0,1,.232.08,4.294,4.294,0,0,0,1.474.441,2.362,2.362,0,0,0,.261.016,1.739,1.739,0,0,0,.7-.145.75.75,0,0,0,.18-1.316,2.35,2.35,0,0,0-.55-.322,12.885,12.885,0,0,1-1.506-.676,2.129,2.129,0,0,1-1.2-2.037A2.244,2.244,0,0,1,6.765,3.837c.4-.145.406-.142.406-.56,0-.142,0-.283,0-.428.01-.315.061-.37.377-.38h.367c.6,0,.6.026.6.673,0,.476,0,.476.476.55A4.191,4.191,0,0,1,10.039,4a.3.3,0,0,1,.2.406c-.084.29-.164.583-.254.869-.058.174-.113.254-.216.254a.517.517,0,0,1-.219-.068A3.291,3.291,0,0,0,8.088,5.13c-.064,0-.132,0-.2.006a1.3,1.3,0,0,0-.441.09A.625.625,0,0,0,7.3,6.341a2.914,2.914,0,0,0,.718.4,12.942,12.942,0,0,1,1.31.592A2.355,2.355,0,0,1,10.068,10.9Z"/></svg>