<svg xmlns="http://www.w3.org/2000/svg" width="34.903" height="30.969" viewBox="0 0 34.903 30.969"><defs><style>.a{fill:#eaeae1;}.b{fill:#4c4c4c;}.c{fill:#0a9bd8;}.d{fill:#158db7;}.e{fill:#c6c5af;}.f{fill:#3a3a38;}.g{fill:#e0dbd3;}.h{fill:#4c453f;}.i{fill:#ddb58e;}.j{fill:#e8c59e;}.k{fill:#8dc63f;}.l{fill:#fff;}.m{fill:#f0cd00;}.n{fill:#ffde50;}.o{fill:#ffea94;}.p{fill:#faa300;}.q{fill:#ffbd00;}.r{fill:#f68e00;}</style></defs><g transform="translate(-102.775 -230.032)"><g transform="translate(102.775 230.032)"><g transform="translate(0 0)"><path class="a" d="M109.229,207.44v10.612c1.53.114,3.129.187,4.711.187,1.657,0,3.351-.08,4.975-.2l.017-10.628-9.7.033Z" transform="translate(-99.374 -187.269)"/><path class="a" d="M36.466,165.074c-1.083-3.666-6.517-3.259-8.862-4.312s-1.979-4.585-2.277-5.2H19.6c-.3.615.069,4.147-2.277,5.2s-7.78.646-8.862,4.312a17.729,17.729,0,0,0-.733,4.88A86.855,86.855,0,0,0,22.3,171.428a93.563,93.563,0,0,0,14.9-1.475A17.748,17.748,0,0,0,36.466,165.074Z" transform="translate(-7.732 -140.459)"/><path class="b" d="M147.586,238.836l.056-.775-.591-7.817H145.5l-.689,7.817.057.783c.4.008.8.014,1.2.014C146.569,238.858,147.077,238.85,147.586,238.836Z" transform="translate(-131.498 -207.889)"/><path class="c" d="M36.465,211.885c-1.083-3.666-6.517-3.259-8.862-4.312a2.742,2.742,0,0,1-.314-.165h0s-3.663,5.06-4.762,5.06-4.94-5.027-4.94-5.027h0a2.864,2.864,0,0,1-.258.132c-2.345,1.053-7.78.646-8.862,4.312a17.729,17.729,0,0,0-.733,4.88A86.856,86.856,0,0,0,22.3,218.239a93.564,93.564,0,0,0,14.9-1.475A17.743,17.743,0,0,0,36.465,211.885Z" transform="translate(-7.731 -187.27)"/><path class="d" d="M208.108,211.885c-1.083-3.666-6.517-3.259-8.862-4.312a2.743,2.743,0,0,1-.314-.165h0s-.458.633-1.1,1.452c2.633.566,6.369.862,7.246,3.833a16.568,16.568,0,0,1,.711,4.57c1.867-.273,3.053-.5,3.053-.5A17.727,17.727,0,0,0,208.108,211.885Z" transform="translate(-179.375 -187.27)"/><path class="e" d="M169.883,206.221l-4.223-.128,1.965,3c.41-.481.811-.978,1.159-1.421Z" transform="translate(-150.326 -186.083)"/><path class="d" d="M187.308,222.41l-.25-.052c-.347.443-.748.94-1.159,1.421l.341.521Z" transform="translate(-168.6 -200.769)"/><path class="e" d="M113.5,206.092l-4.267.16s1.085,1.42,2.266,2.75Z" transform="translate(-99.379 -186.082)"/><path class="d" d="M111.507,210.5c-1.182-1.33-2.266-2.75-2.266-2.75h0l1.847,3.361Z" transform="translate(-99.385 -187.575)"/><path class="e" d="M147.519,205.519h-2.448l-.186.6,2.823.016Z" transform="translate(-131.569 -185.565)"/><path class="d" d="M198.081,208.912l.85-1.5s-.458.633-1.1,1.452Z" transform="translate(-179.374 -187.27)"/><path class="f" d="M151.968,230.274l1.55-.035.032.437Z" transform="translate(-137.964 -207.885)"/><path class="b" d="M140.541,208.163l3.662,0-.007,1.048-1.029,1.131H141.65l-1.1-1.131Z" transform="translate(-127.646 -187.95)"/><path class="a" d="M113.5,192.948l-3.117-1.413s-.329.468-1.15,1.574l1.869,2.825Z" transform="translate(-99.379 -172.938)"/><path class="a" d="M165.66,192.948l3.028-1.413s.375.435,1.2,1.541l-1.915,2.857Z" transform="translate(-150.326 -172.938)"/><path class="g" d="M172.238,193.076c-.821-1.106-1.2-1.541-1.2-1.541l-2.774,1.3a2.834,2.834,0,0,0,1.254,1.219,8.785,8.785,0,0,0,1.727.5Z" transform="translate(-152.681 -172.938)"/><path class="h" d="M75.749,10.467s-1.625-5.459.5-5.856c0,0,.249-5.307,8.6-4.4,0,0,2.759.452,3.674-.08S92.1.469,91,5.693c0,0,1.4.072-.025,4.928l-3.685,4.471h-8.5Z" transform="translate(-68.609 0)"/><ellipse class="i" cx="2.076" cy="1.129" rx="2.076" ry="1.129" transform="translate(22.916 9.667) rotate(100.195)"/><ellipse class="j" cx="1.129" cy="2.076" rx="1.129" ry="2.076" transform="translate(9.492 13.356) rotate(169.805)"/><path class="j" d="M102.024,47.366l-6.18.9a11.713,11.713,0,0,0-3.977.945,5.944,5.944,0,0,0-2.9,2.755c-.16,4.287.77,10.16,6.826,11.018C105.518,61.6,102.024,47.366,102.024,47.366Z" transform="translate(-81.06 -42.767)"/><path class="i" d="M159.421,62.979c9.73-1.378,6.235-15.613,6.235-15.613H164.2c.4,5.946.952,9.1-1.341,12.548C161.039,62.643,159.421,62.979,159.421,62.979Z" transform="translate(-144.693 -42.767)"/><path class="i" d="M101.973,40.835a21.338,21.338,0,0,1-8.408,1.445c-4.438-.071-4.381,3.51-4.419,3.751,0,0,.607-1.529,3.493-2.023a7.8,7.8,0,0,1,5.751,1.156,3.445,3.445,0,0,0,3.256.385C102.161,45.363,102.966,41.664,101.973,40.835Z" transform="translate(-81.241 -36.87)"/><path class="h" d="M101.244,36.681a20.142,20.142,0,0,1-8.408,1.445c-5.38-.149-4.447,4.044-4.419,4.155,0,0,.607-1.932,3.493-2.427A7.8,7.8,0,0,1,97.66,41.01a3.445,3.445,0,0,0,3.256.385,3.514,3.514,0,0,0,1.988-2.583A7.854,7.854,0,0,0,101.244,36.681Z" transform="translate(-80.512 -33.12)"/></g></g><g transform="translate(124.583 245.516)"><path class="k" d="M6.547,13.095a6.547,6.547,0,1,1,6.547-6.547,6.554,6.554,0,0,1-6.547,6.547" transform="translate(0)"/><path class="l" d="M60.256,64.322V62.076H58.009v-1.82h2.246V58.01h1.82v2.246h2.246v1.82H62.076v2.246Z" transform="translate(-54.619 -54.62)"/></g><g transform="translate(127.538 232.281)"><g transform="translate(0 0)"><path class="m" d="M152.787,5.07a5.081,5.081,0,1,1-1.638-3.731,5.07,5.07,0,0,1,1.638,3.731" transform="translate(-142.647 0)"/><path class="n" d="M153.9,5.081A4.885,4.885,0,1,1,149.014.014,5.07,5.07,0,0,1,153.9,5.081" transform="translate(-143.755 -0.01)"/><path class="o" d="M153.195,3.385l-7.164,7.164a5.115,5.115,0,0,1-.642-.866l6.94-6.94a5.074,5.074,0,0,1,.866.642" transform="translate(-144.692 -2.046)"/><path class="o" d="M158.113,8.891l-6.574,6.574a5.069,5.069,0,0,1-1.284-.737l7.12-7.12a5.057,5.057,0,0,1,.737,1.284" transform="translate(-148.322 -5.674)"/><path class="p" d="M154.976,8.39a3.94,3.94,0,0,1-7.879.049c0-.016,0-.032,0-.048a3.94,3.94,0,0,1,3.94-3.94h.049a3.921,3.921,0,0,1,2.221.718,3.976,3.976,0,0,1,1.085,1.155,3.915,3.915,0,0,1,.585,2.066" transform="translate(-145.966 -3.32)"/><path class="q" d="M153.821,5.6l-5.571,5.571a3.931,3.931,0,0,1-.88-1.339,3.913,3.913,0,0,1-.274-1.4c0-.016,0-.032,0-.048a3.94,3.94,0,0,1,3.94-3.94h.049A3.938,3.938,0,0,1,153.821,5.6" transform="translate(-145.966 -3.319)"/><path class="r" d="M165.891,8.39a3.94,3.94,0,0,1-3.94,3.94q-.112,0-.222-.006a3.94,3.94,0,0,0,0-7.867c.074,0,.148-.006.222-.006a3.94,3.94,0,0,1,3.94,3.94" transform="translate(-156.881 -3.319)"/></g><g transform="translate(3.298 2.078)"><path class="r" d="M103.291,64.607v.009a1.313,1.313,0,0,1-.393.935,1.453,1.453,0,0,1-.849.406v.588h-.533v-.587a1.381,1.381,0,0,1-1.255-1.343h.8a.59.59,0,0,0,.617.552h.19a.66.66,0,0,0,.466-.185.518.518,0,0,0,.158-.368v-.009a.562.562,0,0,0-.4-.516l-.889-.3a1.36,1.36,0,0,1-.942-1.274,1.38,1.38,0,0,1,1.255-1.342v-.613h.533v.615a1.379,1.379,0,0,1,1.243,1.341h-.8a.59.59,0,0,0-.62-.552h-.19a.59.59,0,0,0-.62.552.562.562,0,0,0,.4.516l.889.3a1.36,1.36,0,0,1,.942,1.274" transform="translate(-100.26 -60.559)"/><path class="o" d="M98.8,62.482v.009a1.313,1.313,0,0,1-.393.935,1.453,1.453,0,0,1-.849.406v.588H97.02v-.587a1.381,1.381,0,0,1-1.255-1.343h.8a.59.59,0,0,0,.617.552h.19a.66.66,0,0,0,.466-.185A.518.518,0,0,0,98,62.49v-.009a.562.562,0,0,0-.4-.516l-.889-.3a1.36,1.36,0,0,1-.942-1.274,1.38,1.38,0,0,1,1.255-1.343v-.613h.533v.615A1.379,1.379,0,0,1,98.8,60.39H98a.59.59,0,0,0-.62-.552h-.19a.59.59,0,0,0-.62.552.562.562,0,0,0,.4.516l.889.3a1.36,1.36,0,0,1,.942,1.274" transform="translate(-95.251 -58.434)"/></g></g></g></svg>