<svg xmlns="http://www.w3.org/2000/svg" width="18.006" height="18.006" viewBox="0 0 18.006 18.006"><defs><style>.a{fill:#03273c;}</style></defs><g transform="translate(0)"><g transform="translate(0)"><path class="a" d="M187.5,195.63a.959.959,0,0,0-.958-.958l-.06,0v.121c.02,0,.04,0,.06,0a.838.838,0,0,1,0,1.676l-.04,0v.36h-.3v.161h.675v-.161h-.257v-.241A.959.959,0,0,0,187.5,195.63Z" transform="translate(-176.807 -184.852)"/><g transform="translate(0)"><path class="a" d="M254.115,69.837l.016.133-.2.042-.027.284h.24l.319-.03.164-.2L254.454,70l-.1-.11-.144-.234-.068-.329-.272.054-.075.117v.131l.13.089Z" transform="translate(-240.996 -65.832)"/><path class="a" d="M245.477,76.929l.014-.178-.158-.068-.222.052-.166.264v.172h.193Z" transform="translate(-232.588 -72.815)"/><path class="a" d="M159.462,96.575l-.049.126h-.237v.122h.057l.008.06.145-.012.09-.057.023-.113.118-.01.046-.1-.108-.022Z" transform="translate(-151.146 -91.702)"/><path class="a" d="M152.574,99.192l-.009.119.172-.014.018-.12-.1-.081Z" transform="translate(-144.869 -94.097)"/><path class="a" d="M18,8.911q0-.4-.04-.782a8.93,8.93,0,0,0-.6-2.451c-.022-.057-.043-.115-.067-.172A9.032,9.032,0,0,0,15.61,2.9c-.046-.05-.093-.1-.139-.147-.134-.138-.269-.273-.411-.4a8.985,8.985,0,0,0-12.151.038,9.151,9.151,0,0,0-1.03,1.124,9,9,0,1,0,15.141,9.583,8.915,8.915,0,0,0,.735-1.982q.063-.264.111-.534A8.99,8.99,0,0,0,18.006,9C18,8.972,18,8.942,18,8.911Zm-1.694-3.6.052-.059c.069.133.134.268.194.4l-.086,0-.16.022V5.312h0Zm-1.3-1.571v-.4c.142.15.278.3.408.465l-.162.241-.567-.006-.035-.118Zm-10.86-1V2.727h.18l.016-.062h.295v.129l-.085.113H4.147V2.742h0Zm.288.4s.18-.031.2-.031,0,.18,0,.18l-.408.026-.077-.093ZM16.881,6.717h-.659l-.4-.3-.422.041v.258h-.134l-.144-.1-.732-.185V5.955l-.927.072-.288.154h-.368l-.181-.018-.447.248v.467l-.913.659.076.282h.185l-.049.268-.13.048-.007.7.789.9h.344l.021-.055h.618l.178-.165h.351l.192.192.521.054-.069.694.58,1.023-.306.584.02.274.241.24v.661l.315.424v.55h.272A8.259,8.259,0,0,1,1.4,5.77V5.513l.3-.359q.154-.291.33-.567l.013.15-.343.417c-.106.2-.206.406-.3.616v.47l.343.165v.654l.33.562.268.041.034-.193-.315-.487L2,6.508h.185L2.26,7l.457.666L2.6,7.877l.289.444.721.178V8.382l.288.041-.027.206L4.1,8.67l.351.1.494.564.631.047.062.515-.433.3-.02.46-.062.282.625.782.048.268s.227.061.255.061.508.365.508.365v1.414l.171.049-.116.652.288.385-.054.647.382.669.489.427.491.01.048-.159-.361-.3.021-.151.064-.186.014-.189-.244-.007-.123-.155.2-.2.028-.147-.227-.065.013-.137.323-.049.491-.236.165-.3.514-.659-.117-.515.158-.274.474.014.319-.253.1-.993.355-.448.062-.288-.322-.1-.213-.35L9.227,10.5l-.577-.219-.027-.412L8.43,9.536l-.521-.007-.3-.473-.267-.13-.014.144L6.837,9.1l-.178-.248-.508-.1-.419.484-.659-.112-.048-.743-.481-.082.192-.364-.055-.209-.632.422-.4-.049L3.51,7.782,3.6,7.462l.219-.4.5-.256H5.3l0,.3.351.163-.028-.508L5.867,6.5l.51-.335.035-.235L6.92,5.4l.54-.3-.047-.039.366-.344.134.035.061.077.139-.154.034-.015L7.995,4.64l-.156-.05V4.441l.082-.067H8.1l.083.037.072.144.088-.013V4.529l.025.008L8.623,4.5l.036-.124L8.8,4.41v.135l-.134.092h0l.019.148.46.141a.022.022,0,0,0,0,.006l.1-.009.007-.2L8.9,4.557l-.02-.1.3-.1.014-.289-.315-.192-.021-.488L8.424,3.6H8.266l.042-.371-.59-.139-.243.184v.561l-.438.139-.176.365-.19.03V3.906l-.412-.057-.207-.135-.083-.3.737-.431.36-.11.036.242.2-.011.016-.122.21-.03,0-.042-.09-.037-.021-.128.258-.022.156-.162.009-.012h0L7.9,2.5,8.44,2.43l.239.2-.629.335.8.189.1-.268H9.3l.123-.233-.247-.062V2.3l-.775-.343-.536.062-.3.158.021.385-.316-.048L7.224,2.3l.3-.275L6.977,2l-.158.048-.069.185.206.035-.041.206-.35.02-.055.137L6,2.643a1.309,1.309,0,0,0-.035-.288l.4-.007.3-.3L6.5,1.971l-.219.213-.364-.02-.222-.3H5.231l-.487.364H5.19l.04.131-.116.11.495.014.075.178-.557-.021L5.1,2.5,4.75,2.422l-.186-.1-.416,0a8.239,8.239,0,0,1,10.309.482l-.1.175-.382.149-.161.175.037.2.2.028.119.3.338-.137.057.4h-.1l-.278-.041-.308.052-.3.423-.427.067-.062.366L13.267,5l-.053.235-.424-.085-.389.085-.083.217.067.455.229.107.384,0,.258-.023.08-.206.4-.526.266.055.262-.237.049.186.645.435-.079.106-.291-.016.112.158.179.04.21-.088,0-.252.094-.047-.075-.079-.43-.24-.114-.319h.358l.113.113.309.265.012.321.319.34L15.8,5.53l.222-.121.04.381.216.237.431-.007c.084.214.159.432.223.655ZM4.91,4.091l.215-.1.2.047L5.254,4.3l-.211.067Zm1.148.618v.17H5.564l-.186-.052.046-.118.237-.1h.325v.1h.071Zm.227.237v.164l-.124.08-.154.029V4.946h.278Zm-.139-.067v-.2l.17.155Zm.077.4v.16L6.1,5.554H5.842l.041-.18.124-.011L6.032,5.3Zm-.654-.329h.273l-.351.489-.144-.077.031-.206Zm1.117.273v.16H6.423l-.071-.1V5.126h.02ZM6.444,5l.074-.079L6.645,5l-.1.084ZM17.015,7.135l.026-.031c.012.047.022.094.033.141Z" transform="translate(0)"/><path class="a" d="M27.734,102.51v.258c.089-.211.189-.415.3-.617Z" transform="translate(-26.335 -96.998)"/></g></g></g></svg>