<svg xmlns="http://www.w3.org/2000/svg" width="16.43" height="14.455" viewBox="0 0 16.43 14.455"><defs><style>.a{fill:#043655;}</style></defs><ellipse class="a" cx="2.833" cy="2.833" rx="2.833" ry="2.833" transform="translate(5.37 0)"/><ellipse class="a" cx="1.889" cy="1.889" rx="1.889" ry="1.889" transform="translate(12.123 1.889)"/><ellipse class="a" cx="1.889" cy="1.889" rx="1.889" ry="1.889" transform="translate(0.789 1.889)"/><path class="a" d="M4.306,241.025a2.854,2.854,0,0,0-2.127-.494A2.175,2.175,0,0,0,0,242.7v3.5a.943.943,0,0,0,.944.94c2.247,0,1.976.041,1.976-.1C2.92,244.562,2.626,242.741,4.306,241.025Z" transform="translate(0 -233.738)"/><path class="a" d="M125.307,239.888a4.764,4.764,0,0,0-3.674.87c-1.76,1.41-1.422,3.308-1.422,5.631a1.126,1.126,0,0,0,1.124,1.124c6.773,0,7.043.219,7.445-.671.132-.3.1-.205.1-3.083A3.89,3.89,0,0,0,125.307,239.888Z" transform="translate(-116.328 -233.081)"/><path class="a" d="M379.937,240.533a2.852,2.852,0,0,0-2.127.494c1.667,1.7,1.386,3.4,1.386,6.02,0,.138-.225.1,1.943.1a.977.977,0,0,0,.977-.974V242.7A2.175,2.175,0,0,0,379.937,240.533Z" transform="translate(-365.686 -233.739)"/></svg>