<svg xmlns="http://www.w3.org/2000/svg" xmlns:xlink="http://www.w3.org/1999/xlink" width="116" height="116" viewBox="0 0 116 116">
  <defs>
    <filter id="Rectangle_25427" x="0" y="0" width="116" height="116" filterUnits="userSpaceOnUse">
      <feOffset dy="2" input="SourceAlpha"/>
      <feGaussianBlur stdDeviation="1.5" result="blur"/>
      <feFlood flood-opacity="0.22"/>
      <feComposite operator="in" in2="blur"/>
      <feComposite in="SourceGraphic"/>
    </filter>
  </defs>
  <g id="Group_22808" data-name="Group 22808" transform="translate(-65.5 -213.5)">
    <g transform="matrix(1, 0, 0, 1, 65.5, 213.5)" filter="url(#Rectangle_25427)">
      <g id="Rectangle_25427-2" data-name="Rectangle 25427" transform="translate(4.5 2.5)" fill="none" stroke="#d6e3ff" stroke-width="7">
        <rect width="107" height="107" stroke="none"/>
        <rect x="3.5" y="3.5" width="100" height="100" fill="none"/>
      </g>
    </g>
    <g id="Group_18195" data-name="Group 18195" transform="translate(-124.786 19.01)">
      <path id="Path_39831" data-name="Path 39831" d="M186.472,38.605a35.617,35.617,0,0,1-35.62,35.619c-1.156,0-2.294-.054-3.422-.165a15.124,15.124,0,0,0,3.156-.448c7.677-1.864,12.482-8.666,14.147-16.089a19.251,19.251,0,0,0-.026-8.337c-1.473-6.6-5.808-11.959-10.551-16.575-3.092-3.015-7.137-5.79-8.385-10.131a15.34,15.34,0,0,1,1.287-11.431,19.267,19.267,0,0,1,8.187-7.791,35.62,35.62,0,0,1,31.225,35.346" transform="translate(97.434 211.887)" fill="#ce1126"/>
      <path id="Path_39832" data-name="Path 39832" d="M174.492,60.652c-1.985,10.064-8.3,13.015-9.5,13.491A35.619,35.619,0,0,1,173.334,3.4c-2.325.44-12.979,2.987-17.489,13.218a18.105,18.105,0,0,0-.5,12.935c3.095,9.557,13.164,13.491,17.639,22.118a13.719,13.719,0,0,1,1.506,8.985" transform="translate(79.103 211.725)" fill="#0038a8"/>
      <path id="Path_39833" data-name="Path 39833" d="M185.55,62.42a14.751,14.751,0,0,0,2.608-3.231c4.109-6.748,2.7-14.953-1.375-21.379a19.208,19.208,0,0,0-5.916-5.878c-5.705-3.628-12.561-4.346-19.178-4.261-4.318.057-9.14.953-13.092-1.233a15.346,15.346,0,0,1-7.175-8.993,19.318,19.318,0,0,1,.358-11.521s-7.842,10.35-3.288,22.087a18.108,18.108,0,0,0,8.795,9.5c8.947,4.57,18.846.229,28.112,3.164a13.723,13.723,0,0,1,7.418,5.291c6.326,9.433,2.734,16.454,2.734,16.454" transform="translate(84.623 216.08)" fill="#fff"/>
      <path id="Path_39834" data-name="Path 39834" d="M204.438,30.054a14.671,14.671,0,0,0-.44-4.127c-1.867-7.677-8.666-12.482-16.091-14.145a19.133,19.133,0,0,0-8.337.026c-6.6,1.468-11.959,5.808-16.575,10.548-3.015,3.092-5.79,7.137-10.131,8.385a15.341,15.341,0,0,1-11.431-1.287,19.326,19.326,0,0,1-7.9-8.4S135.31,33.919,146.831,39a18.1,18.1,0,0,0,12.937.5c9.557-3.095,13.488-13.161,22.116-17.639a13.707,13.707,0,0,1,8.985-1.5c11.143,2.2,13.568,9.7,13.568,9.7" transform="translate(79.059 224.6)" fill="#fff"/>
      <path id="Path_39835" data-name="Path 39835" d="M192.739,11.5a14.747,14.747,0,0,0-3.231-2.608c-6.748-4.109-14.953-2.7-21.379,1.375a19.208,19.208,0,0,0-5.878,5.916c-3.628,5.705-4.346,12.561-4.261,19.178.057,4.318.953,9.14-1.233,13.092a15.346,15.346,0,0,1-8.993,7.175,19.319,19.319,0,0,1-11.521-.358s10.35,7.842,22.087,3.288a18.108,18.108,0,0,0,9.5-8.795c4.57-8.947.229-18.846,3.164-28.112a13.722,13.722,0,0,1,5.291-7.417c9.433-6.326,16.454-2.734,16.454-2.734" transform="translate(83.32 216.871)" fill="#fff"/>
      <path id="Path_39836" data-name="Path 39836" d="M169.956,2.662a36.885,36.885,0,1,0,36.886,36.884A36.923,36.923,0,0,0,169.956,2.662m0,72.5q-1.734,0-3.419-.165c-.26-.023-.518-.049-.772-.085a35.617,35.617,0,0,1,8.344-70.744c.082.005.162.015.242.028a35.619,35.619,0,0,1-4.395,70.966" transform="translate(78.328 210.947)" fill="#fcd116"/>
      <path id="Path_39837" data-name="Path 39837" d="M170.325,57.587c-1.666,7.423-6.47,14.222-14.147,16.089a15.272,15.272,0,0,1-3.154.448c-.324.008-.649.008-.973-.008,0,0,.07-.021.2-.075,1.2-.476,7.518-3.427,9.5-13.491a13.719,13.719,0,0,0-1.506-8.985C155.774,42.937,145.7,39,142.61,29.446a18.106,18.106,0,0,1,.5-12.935C147.617,6.278,158.271,3.734,160.6,3.294c.252-.049.407-.07.443-.075-.067.036-.134.067-.2.1a19.267,19.267,0,0,0-8.187,7.791,15.325,15.325,0,0,0-1.285,11.431c1.246,4.341,5.291,7.116,8.385,10.131,4.74,4.616,9.078,9.971,10.548,16.573a19.183,19.183,0,0,1,.026,8.339" transform="translate(91.841 211.822)" fill="#fcd116"/>
    </g>
  </g>
</svg>
