<svg xmlns="http://www.w3.org/2000/svg" xmlns:xlink="http://www.w3.org/1999/xlink" width="116" height="116" viewBox="0 0 116 116">
  <defs>
    <filter id="Rectangle_25438" x="0" y="0" width="116" height="116" filterUnits="userSpaceOnUse">
      <feOffset dy="2" input="SourceAlpha"/>
      <feGaussianBlur stdDeviation="1.5" result="blur"/>
      <feFlood flood-opacity="0.22"/>
      <feComposite operator="in" in2="blur"/>
      <feComposite in="SourceGraphic"/>
    </filter>
  </defs>
  <g id="Group_22811" data-name="Group 22811" transform="translate(-65.5 -334.5)">
    <g id="Group_18197" data-name="Group 18197" transform="translate(-3.214 20.109)">
      <path id="Path_39838" data-name="Path 39838" d="M250.353,38.14A34.583,34.583,0,1,1,215.769,3.556,34.62,34.62,0,0,1,250.353,38.14" transform="translate(-89.054 332.256)" fill="#fff"/>
      <path id="Path_39839" data-name="Path 39839" d="M216.991,2.781a36.58,36.58,0,1,0,36.58,36.58,36.622,36.622,0,0,0-36.58-36.58m0,71.164a34.583,34.583,0,1,1,34.585-34.584,34.62,34.62,0,0,1-34.585,34.584" transform="translate(-90.276 331.027)" fill="#007fe6"/>
      <path id="Path_39840" data-name="Path 39840" d="M198.708,15.433s-.389-7.021,2.508-6.908-2.508,6.908-2.508,6.908" transform="translate(-61.493 340.078)" fill="#007fe6"/>
      <path id="Path_39841" data-name="Path 39841" d="M198.935,13.9s5.96-6.017,6.351-3.566-6.351,3.566-6.351,3.566" transform="translate(-61.108 342.006)" fill="#007fe6"/>
      <path id="Path_39842" data-name="Path 39842" d="M194.171,14.4s-6.8-1.8-5.8-4.518,5.8,4.518,5.8,4.518" transform="translate(-77.893 341.256)" fill="#007fe6"/>
      <path id="Path_39843" data-name="Path 39843" d="M192.154,15.465s-3.88-7.528-1.429-7.142,1.429,7.142,1.429,7.142" transform="translate(-75.315 339.734)" fill="#007fe6"/>
      <path id="Path_39844" data-name="Path 39844" d="M192.073,19.02s-3.81,5.909-6.089,4.114,6.089-4.114,6.089-4.114" transform="translate(-82.119 356.605)" fill="#007fe6"/>
      <path id="Path_39845" data-name="Path 39845" d="M192.493,19.768s-8.36,1.365-7.235-.85,7.235.85,7.235.85" transform="translate(-82.807 355.182)" fill="#007fe6"/>
      <path id="Path_39846" data-name="Path 39846" d="M194.736,23.752s4.441,5.45,2.031,7.062-2.031-7.062-2.031-7.062" transform="translate(-67.753 364.057)" fill="#007fe6"/>
      <path id="Path_39847" data-name="Path 39847" d="M196.538,23.769s-1.287,8.373-3.043,6.617,3.043-6.617,3.043-6.617" transform="translate(-70.282 364.08)" fill="#007fe6"/>
      <path id="Path_39848" data-name="Path 39848" d="M197.43,7.378a14.754,14.754,0,0,1,4.513,6.8s-2.953-2.23-6.017-1.728c0,0,8.8,3.566,3.4,16.658,0,0-15.934-11.532-1.895-21.727" transform="translate(-72.585 338.27)" fill="#fff100"/>
      <path id="Path_39849" data-name="Path 39849" d="M185.438,16a14.748,14.748,0,0,1,7.858-2.191s-3.03,2.119-3.5,5.188c0,0,6.112-7.271,16.894,1.916,0,0-15.893,11.591-21.251-4.912" transform="translate(-82.36 348.379)" fill="#fff100"/>
      <path id="Path_39850" data-name="Path 39850" d="M190,36.373a14.765,14.765,0,0,1,.345-8.151s1.079,3.537,3.852,4.933c0,0-5.026-8.058,7.042-15.473,0,0,6.112,18.7-11.238,18.691" transform="translate(-75.84 354.5)" fill="#fff100"/>
      <path id="Path_39851" data-name="Path 39851" d="M209.609,34.1a14.765,14.765,0,0,1-7.647-2.847s3.7.07,5.883-2.139c0,0-9.217,2.291-12.541-11.478,0,0,19.67-.036,14.3,16.464" transform="translate(-66.824 354.412)" fill="#fff100"/>
      <path id="Path_39852" data-name="Path 39852" d="M215.705,15.032a14.758,14.758,0,0,1-5.069,6.393s1.208-3.5-.216-6.256c0,0-.672,9.474-14.794,8.38,0,0,6.045-18.72,20.079-8.517" transform="translate(-66.319 345.529)" fill="#fff100"/>
      <path id="Path_39853" data-name="Path 39853" d="M194.91,5.408s-.278,2.23,4.457,6.295,7.242,11.31-3.174,20.782c0,0,4.817-10.975,2.994-15.991S192.459,11.2,194.91,5.408" transform="translate(-68.504 335.172)" fill="#007fe6"/>
      <path id="Path_39854" data-name="Path 39854" d="M183.752,16s2.034.953,7.366-2.294,12.994-3.393,18.782,9.444c0,0-8.949-7.976-14.281-7.791S188.5,20.123,183.752,16" transform="translate(-85.015 345.33)" fill="#007fe6"/>
      <path id="Path_39855" data-name="Path 39855" d="M188.269,40.037s1.534-1.64.1-7.713.788-13.406,14.783-14.945c0,0-10.35,6.048-11.82,11.176s2.33,8.236-3.059,11.483" transform="translate(-78.348 354.016)" fill="#007fe6"/>
      <path id="Path_39856" data-name="Path 39856" d="M212.331,38.913s-1.084-1.967-7.307-2.474-12.507-4.892-9.644-18.679c0,0,2.551,11.712,6.975,14.7s8.553.33,9.977,6.457" transform="translate(-67.828 354.621)" fill="#007fe6"/>
      <path id="Path_39857" data-name="Path 39857" d="M220.992,13.165s-2.206.425-4.611,6.184-8.517,10.383-20.744,3.4c0,0,11.926,1.192,16.132-2.093s2.953-8.033,9.222-7.492" transform="translate(-66.301 347.32)" fill="#007fe6"/>
      <path id="Path_39858" data-name="Path 39858" d="M201.267,19.571s6.555-2.541,7.345.25-7.345-.25-7.345-.25" transform="translate(-57.436 355.807)" fill="#007fe6"/>
      <path id="Path_39859" data-name="Path 39859" d="M201.2,19.2s7.564,3.81,5.353,4.938S201.2,19.2,201.2,19.2" transform="translate(-57.548 356.881)" fill="#007fe6"/>
      <path id="Path_39860" data-name="Path 39860" d="M215.016,70.685H215c-.783,0-1.576-.028-2.356-.082a.5.5,0,0,1,.07-1c.757.054,1.527.08,2.286.08a.507.507,0,0,1,.507.5.489.489,0,0,1-.487.5m2.34-.085a.5.5,0,0,1-.036-1c.767-.054,1.537-.136,2.294-.245a.5.5,0,0,1,.142.986c-.78.113-1.576.2-2.364.255h-.036m-7.011-.242-.07-.005c-.783-.111-1.571-.252-2.34-.42a.5.5,0,1,1,.209-.973c.749.16,1.511.3,2.271.4a.5.5,0,0,1-.069.994m11.642-.42a.5.5,0,0,1-.105-.986c.749-.165,1.5-.355,2.235-.572a.5.5,0,0,1,.283.958c-.757.221-1.534.42-2.3.587a.516.516,0,0,1-.108.013m-16.217-.569a.46.46,0,0,1-.142-.021c-.757-.221-1.517-.471-2.255-.747a.5.5,0,0,1-.293-.644.5.5,0,0,1,.641-.291c.718.265,1.454.51,2.188.726a.5.5,0,0,1-.139.976m20.71-.752a.5.5,0,0,1-.175-.965c.718-.268,1.434-.566,2.129-.883a.5.5,0,0,1,.414.906c-.716.327-1.455.633-2.194.911a.511.511,0,0,1-.175.031m-25.1-.881a.5.5,0,0,1-.209-.046c-.718-.327-1.434-.687-2.127-1.066a.5.5,0,0,1,.479-.875c.672.368,1.367.716,2.062,1.035a.5.5,0,0,1-.206.953m29.353-1.066a.5.5,0,0,1-.239-.937c.672-.366,1.336-.762,1.98-1.177a.5.5,0,1,1,.541.837c-.664.427-1.349.837-2.041,1.215a.511.511,0,0,1-.239.062M197.27,65.489a.494.494,0,0,1-.27-.08c-.664-.425-1.321-.883-1.954-1.357a.5.5,0,1,1,.6-.8c.615.461,1.251.9,1.9,1.318a.5.5,0,0,1-.27.917m37.4-1.352a.5.5,0,0,1-.3-.9c.613-.458,1.218-.947,1.8-1.449a.5.5,0,1,1,.651.754c-.595.518-1.218,1.02-1.849,1.493a.5.5,0,0,1-.3.1m-41.15-1.455a.5.5,0,0,1-.324-.121c-.6-.517-1.184-1.063-1.743-1.619a.5.5,0,0,1,.705-.705c.543.541,1.11,1.068,1.689,1.57a.5.5,0,0,1-.327.875M238.2,61.069a.5.5,0,0,1-.353-.85c.541-.543,1.071-1.11,1.573-1.689a.5.5,0,1,1,.754.654c-.517.595-1.063,1.182-1.622,1.738a.5.5,0,0,1-.353.147m-48-1.694a.507.507,0,0,1-.379-.173c-.517-.595-1.019-1.218-1.493-1.849a.5.5,0,1,1,.8-.6c.458.61.947,1.215,1.45,1.792a.5.5,0,0,1-.049.705.509.509,0,0,1-.327.121m51.064-1.843a.491.491,0,0,1-.3-.1.5.5,0,0,1-.1-.7c.458-.613.9-1.251,1.318-1.895a.5.5,0,1,1,.837.541c-.427.664-.883,1.321-1.357,1.952a.5.5,0,0,1-.4.2m-53.876-1.9a.5.5,0,0,1-.42-.227c-.427-.664-.837-1.352-1.215-2.042a.5.5,0,0,1,.875-.479c.366.669.762,1.336,1.179,1.98a.5.5,0,0,1-.149.69.513.513,0,0,1-.27.077m56.409-2.039a.466.466,0,0,1-.237-.062.5.5,0,0,1-.2-.675c.368-.675.716-1.367,1.035-2.065a.5.5,0,1,1,.906.415c-.329.718-.687,1.434-1.068,2.127a.494.494,0,0,1-.438.26M185.149,51.53a.5.5,0,0,1-.453-.291c-.33-.718-.636-1.455-.914-2.194a.5.5,0,1,1,.935-.348c.268.713.566,1.429.886,2.127a.5.5,0,0,1-.247.659.454.454,0,0,1-.206.046m60.606-2.2a.508.508,0,0,1-.172-.031.5.5,0,0,1-.294-.641c.268-.718.512-1.455.729-2.188a.5.5,0,1,1,.955.278c-.221.76-.474,1.519-.749,2.258a.5.5,0,0,1-.469.324m-62.249-2.183a.5.5,0,0,1-.476-.358c-.224-.757-.422-1.532-.589-2.3a.5.5,0,1,1,.973-.211c.165.749.355,1.5.572,2.235a.5.5,0,0,1-.337.618.439.439,0,0,1-.142.021m63.567-2.309a.474.474,0,0,1-.106-.01.5.5,0,0,1-.384-.595c.162-.747.3-1.509.407-2.268a.5.5,0,1,1,.989.139c-.111.783-.252,1.57-.42,2.34a.5.5,0,0,1-.487.394M182.51,42.576a.5.5,0,0,1-.492-.427c-.113-.78-.2-1.576-.255-2.363a.5.5,0,0,1,.994-.072c.057.765.139,1.537.247,2.294a.5.5,0,0,1-.422.564l-.072.005M247.732,40.2H247.7a.5.5,0,0,1-.463-.533c.054-.765.08-1.54.08-2.307v-.08a.5.5,0,0,1,1,0v.08c0,.79-.028,1.591-.085,2.376a.5.5,0,0,1-.5.463m-65.557-2.3a.5.5,0,0,1-.5-.5v-.036c0-.783.026-1.568.08-2.34a.5.5,0,1,1,.994.07c-.051.749-.077,1.511-.077,2.263v.044a.5.5,0,0,1-.5.5m65.552-2.464a.5.5,0,0,1-.5-.463c-.057-.765-.142-1.537-.25-2.291a.5.5,0,1,1,.986-.144c.113.78.2,1.576.257,2.363a.5.5,0,0,1-.461.536h-.036M182.5,33.235l-.07,0a.5.5,0,0,1-.425-.564c.111-.783.252-1.57.417-2.343a.5.5,0,0,1,.976.211c-.162.747-.3,1.511-.4,2.271a.5.5,0,0,1-.494.427m64.555-2.425a.5.5,0,0,1-.487-.391c-.165-.749-.358-1.5-.574-2.235a.5.5,0,1,1,.955-.283c.224.757.422,1.532.592,2.3a.5.5,0,0,1-.381.592.515.515,0,0,1-.106.013m-63.572-2.15a.535.535,0,0,1-.139-.021.5.5,0,0,1-.337-.618c.219-.757.471-1.516.747-2.258a.5.5,0,0,1,.935.348c-.268.718-.51,1.455-.726,2.188a.5.5,0,0,1-.479.36m62.243-2.34A.5.5,0,0,1,245.26,26c-.27-.716-.569-1.431-.888-2.127a.5.5,0,1,1,.906-.417c.33.716.639,1.455.914,2.191a.5.5,0,0,1-.291.644.512.512,0,0,1-.175.031M185.115,24.27a.489.489,0,0,1-.206-.046.494.494,0,0,1-.247-.659c.327-.718.685-1.437,1.063-2.129a.5.5,0,1,1,.875.476c-.368.675-.713,1.37-1.032,2.065a.5.5,0,0,1-.453.294m58.657-2.2a.5.5,0,0,1-.438-.257c-.368-.669-.765-1.336-1.182-1.98a.5.5,0,1,1,.837-.541c.43.662.839,1.349,1.22,2.039a.5.5,0,0,1-.438.739m-56.415-1.915a.485.485,0,0,1-.268-.08.5.5,0,0,1-.152-.687c.427-.667.883-1.323,1.357-1.957a.5.5,0,0,1,.8.6c-.458.615-.9,1.251-1.316,1.9a.494.494,0,0,1-.42.229m53.873-2.013a.5.5,0,0,1-.4-.2c-.461-.613-.947-1.215-1.452-1.792a.5.5,0,1,1,.752-.657c.52.6,1.022,1.218,1.5,1.849a.5.5,0,0,1-.1.7.5.5,0,0,1-.3.1m-51.07-1.738a.5.5,0,0,1-.325-.121.5.5,0,0,1-.051-.7c.518-.6,1.061-1.184,1.619-1.743a.5.5,0,1,1,.705.7c-.541.543-1.071,1.112-1.571,1.692a.5.5,0,0,1-.378.172m48-1.792a.5.5,0,0,1-.353-.147c-.543-.541-1.112-1.068-1.692-1.568a.5.5,0,0,1,.651-.754c.6.515,1.184,1.058,1.743,1.617a.5.5,0,0,1-.35.852M193.47,13.089a.5.5,0,0,1-.327-.873c.595-.52,1.218-1.022,1.846-1.5a.5.5,0,0,1,.7.1.5.5,0,0,1-.1.7c-.61.461-1.215.95-1.792,1.452a.5.5,0,0,1-.327.121m41.142-1.537a.489.489,0,0,1-.3-.1c-.615-.458-1.254-.9-1.9-1.313a.5.5,0,1,1,.538-.839c.664.425,1.321.881,1.954,1.354a.5.5,0,0,1-.3.9m-37.4-1.274a.5.5,0,0,1-.27-.917c.662-.43,1.349-.839,2.039-1.218a.5.5,0,0,1,.481.873c-.672.368-1.339.767-1.98,1.182a.5.5,0,0,1-.27.08M230.67,9.024a.5.5,0,0,1-.239-.062c-.675-.366-1.37-.713-2.065-1.03a.5.5,0,0,1,.412-.909c.718.327,1.437.685,2.129,1.063a.5.5,0,0,1-.237.937m-29.358-1a.5.5,0,0,1-.209-.95c.716-.33,1.455-.638,2.191-.914a.5.5,0,1,1,.35.935c-.716.268-1.432.566-2.127.886a.486.486,0,0,1-.206.044M226.4,7.082a.5.5,0,0,1-.172-.031c-.718-.265-1.455-.51-2.191-.723a.5.5,0,0,1,.278-.958c.76.221,1.519.471,2.258.747a.5.5,0,0,1-.172.965m-20.713-.7a.5.5,0,0,1-.142-.976c.757-.224,1.532-.422,2.3-.592a.5.5,0,0,1,.211.976c-.747.162-1.5.355-2.232.572a.46.46,0,0,1-.141.021m16.217-.608a.466.466,0,0,1-.1-.01c-.749-.16-1.511-.3-2.271-.4a.5.5,0,1,1,.136-.986c.785.111,1.573.25,2.343.415a.5.5,0,0,1-.106.986m-11.645-.391a.5.5,0,0,1-.072-.991c.78-.113,1.576-.2,2.363-.255a.5.5,0,1,1,.072.994c-.765.054-1.537.139-2.291.247a.353.353,0,0,1-.072.005m7.011-.26h-.033c-.744-.051-1.5-.077-2.245-.077h-.062a.5.5,0,0,1,0-1H215c.77,0,1.547.028,2.312.08a.5.5,0,0,1-.034,1" transform="translate(-88.281 333.031)" fill="#007fe6"/>
    </g>
    <g transform="matrix(1, 0, 0, 1, 65.5, 334.5)" filter="url(#Rectangle_25438)">
      <g id="Rectangle_25438-2" data-name="Rectangle 25438" transform="translate(4.5 2.5)" fill="none" stroke="#d6e3ff" stroke-width="7">
        <rect width="107" height="107" stroke="none"/>
        <rect x="3.5" y="3.5" width="100" height="100" fill="none"/>
      </g>
    </g>
  </g>
</svg>
