<svg id="Group_22813" data-name="Group 22813" xmlns="http://www.w3.org/2000/svg" width="111" height="111" viewBox="0 0 111 111">
  <rect id="Rectangle_25436" data-name="Rectangle 25436" width="111" height="111" fill="#a4bae5"/>
  <g id="Group_18196" data-name="Group 18196" transform="translate(19.124 19.123)">
    <path id="Path_39861" data-name="Path 39861" d="M264.209,75.934A36.586,36.586,0,0,1,249.972,5.655a36.585,36.585,0,0,1,28.475,67.4,36.346,36.346,0,0,1-14.237,2.876" transform="translate(-227.632 -2.782)" fill="#fff"/>
    <path id="Path_39862" data-name="Path 39862" d="M260.236,18.478h-1.2a33.649,33.649,0,0,0-9.083-11.21l.68-.808a34.921,34.921,0,0,1,9.191,11.187c.144.275.281.554.414.832" transform="translate(-192.489 3.011)" fill="#ce1126"/>
    <path id="Path_39863" data-name="Path 39863" d="M260.029,21.678q-.309.834-.669,1.655a34.455,34.455,0,0,1-7.75,11.151l-.731-.76a33.432,33.432,0,0,0,8.035-12.046Z" transform="translate(-191.027 26.976)" fill="#ce1126"/>
    <path id="Path_39864" data-name="Path 39864" d="M238.4,33.724l-.736.76a34.46,34.46,0,0,1-7.747-11.151c-.237-.546-.461-1.1-.669-1.655h1.115A33.406,33.406,0,0,0,238.4,33.724" transform="translate(-225.095 26.976)" fill="#ce1126"/>
    <path id="Path_39865" data-name="Path 39865" d="M240.017,7.267a33.619,33.619,0,0,0-9.083,11.21h-1.2c.134-.278.27-.556.415-.829a34.9,34.9,0,0,1,9.191-11.189Z" transform="translate(-224.327 3.015)" fill="#ce1126"/>
    <path id="Path_39866" data-name="Path 39866" d="M243.616,27.927l-5.381,7.508-1.138-.814,3.692-5.149-4.753,4.387-.8-.569,2.629-5.911-3.689,5.149-1.115-.8,5.381-7.51,1.609,1.156-2.451,5.5,4.382-4.117Z" transform="translate(-219.077 30.976)" fill="#ce1126"/>
    <path id="Path_39867" data-name="Path 39867" d="M239.655,33.194l-1.393-.566-1.05,1.782-1.3-.525,4.889-7.981,1.735.705-2.052,9.129-1.321-.533Zm.335-1.316.927-3.795-1.977,3.368Z" transform="translate(-214.586 33.628)" fill="#ce1126"/>
    <path id="Path_39868" data-name="Path 39868" d="M240.343,26.43l1.372.275-1.557,7.762,2.443.489-.258,1.3-3.815-.767Z" transform="translate(-210.475 34.456)" fill="#ce1126"/>
    <path id="Path_39869" data-name="Path 39869" d="M243.968,33.956l-1.5-.015-.324,2.042-1.4-.015,1.622-9.214,1.874.021,1.434,9.245L244.252,36Zm-.17-1.347-.528-3.87-.608,3.859Z" transform="translate(-206.984 34.968)" fill="#ce1126"/>
    <path id="Path_39870" data-name="Path 39870" d="M247.574,26.451l-.955,5.607.641,3.813-1.38.232-.641-3.813L242.5,27.306l1.47-.247,1.653,3.3.507-3.658Z" transform="translate(-204.222 34.491)" fill="#ce1126"/>
    <path id="Path_39871" data-name="Path 39871" d="M246.5,33.751l-.113-.309,1.21-.6.121.322c.232.631.7.9,1.215.7a.826.826,0,0,0,.536-1.138c-.2-.546-.569-.86-1.89-1.426-1.753-.747-2.371-1.277-2.724-2.23a2.13,2.13,0,1,1,3.991-1.462l.083.224-1.213.6-.093-.247c-.247-.669-.633-.919-1.092-.749s-.613.548-.412,1.094.621.839,1.893,1.424c1.727.8,2.368,1.277,2.721,2.232a2.256,2.256,0,1,1-4.233,1.563" transform="translate(-200.81 33.853)" fill="#ce1126"/>
    <rect id="Rectangle_23237" data-name="Rectangle 23237" width="1.4" height="9.238" transform="translate(48.1 58.962) rotate(-28.921)" fill="#ce1126"/>
    <path id="Path_39872" data-name="Path 39872" d="M253.2,30.343l-1.192.914,1,1.807-1.107.85-4.41-8.249,1.483-1.143,6.838,6.39-1.13.865Zm-.966-.955-2.8-2.719,1.905,3.411Z" transform="translate(-196.35 31.454)" fill="#ce1126"/>
    <path id="Path_39873" data-name="Path 39873" d="M238.095,31.271c.09.09.183.183.275.273l-.739.754c-.1-.093-.188-.188-.283-.281a31.708,31.708,0,0,1-6.918-10.34h1.146a30.672,30.672,0,0,0,6.519,9.593" transform="translate(-223.226 26.976)" fill="#ce1126"/>
    <path id="Path_39874" data-name="Path 39874" d="M239.9,8.113a31.2,31.2,0,0,0-2.654,2.371,30.82,30.82,0,0,0-5.069,6.663h-1.2a31.837,31.837,0,0,1,5.525-7.41A32.915,32.915,0,0,1,239.219,7.3Z" transform="translate(-222.376 4.345)" fill="#ce1126"/>
    <path id="Path_39875" data-name="Path 39875" d="M258.168,17.148H256.96a30.791,30.791,0,0,0-5.067-6.663,31.242,31.242,0,0,0-2.654-2.371l.68-.808a32.846,32.846,0,0,1,2.721,2.433,31.9,31.9,0,0,1,5.528,7.41" transform="translate(-193.61 4.345)" fill="#ce1126"/>
    <path id="Path_39876" data-name="Path 39876" d="M258.1,21.678a31.736,31.736,0,0,1-6.918,10.34c-.093.093-.188.188-.283.281l-.739-.754.275-.273a30.629,30.629,0,0,0,6.519-9.593Z" transform="translate(-192.155 26.976)" fill="#ce1126"/>
    <path id="Path_39877" data-name="Path 39877" d="M238.206,29.255l.1.1-.734.757a1.552,1.552,0,0,1-.113-.113,28.841,28.841,0,0,1-5.821-8.321h1.169a27.876,27.876,0,0,0,5.4,7.577" transform="translate(-221.324 26.976)" fill="#ce1126"/>
    <path id="Path_39878" data-name="Path 39878" d="M239.728,8.96a28.281,28.281,0,0,0-2.479,2.2,27.991,27.991,0,0,0-3.754,4.65h-1.249A28.946,28.946,0,0,1,236.5,10.42a29.483,29.483,0,0,1,2.546-2.268Z" transform="translate(-220.367 5.681)" fill="#ce1126"/>
    <path id="Path_39879" data-name="Path 39879" d="M256,15.812h-1.246a28.346,28.346,0,0,0-6.233-6.854l.68-.806a29.43,29.43,0,0,1,2.544,2.266A29.1,29.1,0,0,1,256,15.812" transform="translate(-194.734 5.681)" fill="#ce1126"/>
    <path id="Path_39880" data-name="Path 39880" d="M256.117,21.678A28.951,28.951,0,0,1,250.3,30c-.036.039-.075.075-.111.111l-.736-.757.1-.1a27.863,27.863,0,0,0,5.4-7.577Z" transform="translate(-193.279 26.976)" fill="#ce1126"/>
    <path id="Path_39881" data-name="Path 39881" d="M234.075,21.678a25.1,25.1,0,0,0,4.137,5.5l-.749.744a26.2,26.2,0,0,1-4.591-6.241Z" transform="translate(-219.38 26.976)" fill="#ce1126"/>
    <path id="Path_39882" data-name="Path 39882" d="M239.476,9.807a25.422,25.422,0,0,0-4.6,4.673h-1.308a26.039,26.039,0,0,1,2.855-3.38A26.545,26.545,0,0,1,238.8,9Z" transform="translate(-218.278 7.013)" fill="#ce1126"/>
    <path id="Path_39883" data-name="Path 39883" d="M253.716,14.479h-1.311a25.1,25.1,0,0,0-2.294-2.631,25.386,25.386,0,0,0-2.3-2.042l.68-.806a26.466,26.466,0,0,1,5.224,5.479" transform="translate(-195.857 7.013)" fill="#ce1126"/>
    <path id="Path_39884" data-name="Path 39884" d="M254.07,21.678a26.126,26.126,0,0,1-4.591,6.241l-.749-.744a24.931,24.931,0,0,0,4.137-5.5Z" transform="translate(-194.411 26.976)" fill="#ce1126"/>
    <path id="Path_39885" data-name="Path 39885" d="M234.537,6.177l1.207-.705,3.991,6.841,2.155-1.256.664,1.138-3.363,1.962Z" transform="translate(-216.759 1.454)" fill="#ce1126"/>
    <path id="Path_39886" data-name="Path 39886" d="M238.563,12.033l-1.7-4.742a2.113,2.113,0,0,1,1.357-2.855,2.116,2.116,0,0,1,2.866,1.339l1.7,4.745a2.243,2.243,0,0,1-4.222,1.514m2.907-1.043-1.7-4.742a.846.846,0,1,0-1.589.569l1.7,4.745a.847.847,0,1,0,1.588-.572" transform="translate(-213.347 -0.427)" fill="#ce1126"/>
    <path id="Path_39887" data-name="Path 39887" d="M238.814,4.351l4.405-.716.211,1.305-1.511.245L243.188,13l-1.383.224-1.269-7.819-1.511.245Z" transform="translate(-210.025 -1.434)" fill="#ce1126"/>
    <path id="Path_39888" data-name="Path 39888" d="M241.147,3.594l4.457.052-.015,1.318-1.529-.018-.093,7.912-1.4-.015.093-7.912-1.529-.018Z" transform="translate(-206.376 -1.501)" fill="#ce1126"/>
    <path id="Path_39889" data-name="Path 39889" d="M244.611,3.7l3.906.718-.24,1.3-2.531-.463-.463,2.528,2.011.371-.237,1.3-2.013-.368-.487,2.66,2.528.463-.237,1.3-3.906-.718Z" transform="translate(-203.524 -1.335)" fill="#ce1126"/>
    <path id="Path_39890" data-name="Path 39890" d="M247.521,13.942l.42-3.924-.68-.26-1.367,3.561-1.305-.5L247.9,4.192l2.044.785A2.062,2.062,0,0,1,251.2,7.82l-.363.95a2.106,2.106,0,0,1-1.578,1.416l-.381,4.276Zm.214-5.417.677.26a.787.787,0,0,0,1.11-.492l.381-1a.785.785,0,0,0-.492-1.11l-.68-.26Z" transform="translate(-200.933 -0.559)" fill="#ce1126"/>
    <path id="Path_39891" data-name="Path 39891" d="M254.333,7.733l-4.405,3.6-2.021,3.3-1.192-.731,2.021-3.3,1.213-5.556,1.269.78L250.3,9.391l2.786-2.423Z" transform="translate(-197.584 0.782)" fill="#ce1126"/>
    <path id="Path_39892" data-name="Path 39892" d="M264.189,18.464a6.594,6.594,0,0,0-.152-1.421,5.932,5.932,0,0,0-3.174-4.07,8.582,8.582,0,0,0-3.715-.981,9.023,9.023,0,0,0-4.585.935,6.171,6.171,0,0,0-3.159,3.455,6.587,6.587,0,0,0-.366,2.245c.008,1.635,0,3.267,0,4.9v4.866a6.547,6.547,0,0,0,.108,1.328,5.942,5.942,0,0,0,2.858,4.058,8.577,8.577,0,0,0,3.9,1.228,8.819,8.819,0,0,0,4.724-.85,5.966,5.966,0,0,0,3.55-5.641c.026-3.35.008-6.7.008-10.051m-5.883,9.258A4.954,4.954,0,0,1,252.66,26.1a4.693,4.693,0,0,1-.937-2.86,4.444,4.444,0,0,1,1.671-3.386,5.016,5.016,0,0,1,6.431.051,4.63,4.63,0,0,1-1.519,7.819" transform="translate(-193.926 11.704)"/>
    <path id="Path_39893" data-name="Path 39893" d="M251.026,23.49q0-2.483,0-4.964a6.759,6.759,0,0,0-.173-1.576,5.935,5.935,0,0,0-3.123-3.967,8.545,8.545,0,0,0-3.744-.991,8.894,8.894,0,0,0-4.554.922,5.978,5.978,0,0,0-3.545,5.522c-.041,3.4-.01,6.81-.008,10.211a5.784,5.784,0,0,0,.224,1.57,5.89,5.89,0,0,0,3.074,3.746,9.1,9.1,0,0,0,7.832.4,6.253,6.253,0,0,0,3.033-2.415,6.016,6.016,0,0,0,.978-3.37C251.031,26.88,251.026,25.186,251.026,23.49ZM243.928,28a4.82,4.82,0,0,1-3.628-1.04,4.444,4.444,0,0,1-1.607-4.634,4.369,4.369,0,0,1,3.352-3.422,4.818,4.818,0,0,1,4.776,1.153,4.224,4.224,0,0,1,1.4,3.007A4.741,4.741,0,0,1,243.928,28" transform="translate(-214.662 11.704)"/>
    <path id="Path_39894" data-name="Path 39894" d="M251.213,18.937c-.08.082-.052.172-.052.252q0,3.85,0,7.7a1.163,1.163,0,0,0,.116.52,3.056,3.056,0,0,0,2.544,1.81c.157.018.355-.041.456.072s.033.3.033.461q0,2.591,0,5.183c0,.075,0,.149,0,.224.005.1-.034.16-.147.152-.062,0-.126,0-.19,0h-8.365c-.263,0-.275.041-.275-.275q0-2.765,0-5.533c0-.283.008-.255.263-.268a3.382,3.382,0,0,0,1.171-.26,3,3,0,0,0,1.63-1.655.836.836,0,0,0,.072-.337V19.094a.219.219,0,0,0-.039-.16,2.854,2.854,0,0,0-1.4.623,4.489,4.489,0,0,0-1.115,1.372,8.6,8.6,0,0,0-.888,2.569c-.046.239-.044.242-.268.245-.646,0-1.292-.005-1.939,0-.152,0-.216-.044-.2-.2a1.106,1.106,0,0,0,0-.16V12.195c0-.391-.041-.348.332-.348h13.707c.054,0,.105.005.16,0,.116-.01.18.026.167.154-.005.075,0,.149,0,.224V23.389c0,.355,0,.355-.348.355h-1.877c-.232,0-.229-.005-.273-.227a9.28,9.28,0,0,0-.824-2.495,4.393,4.393,0,0,0-1.29-1.589,2.549,2.549,0,0,0-1.171-.5" transform="translate(-204.023 11.495)"/>
    <path id="Path_39895" data-name="Path 39895" d="M243.805,11.891c.005.106.018.211.018.317V23.495c.005.25,0,.234-.216.234-.677,0-1.357-.008-2.034,0-.18,0-.227-.064-.258-.229a8.532,8.532,0,0,0-.888-2.634,4.274,4.274,0,0,0-1.241-1.47,2.448,2.448,0,0,0-1.161-.471.644.644,0,0,0-.028.312q0,3.8,0,7.6a1.335,1.335,0,0,0,.149.641,3.04,3.04,0,0,0,2.536,1.72c.451.046.453.039.453.507v5.216c0,.072-.005.147,0,.221.005.106-.039.157-.149.149-.064-.005-.126,0-.191,0h-8.4c-.237-.005-.239-.005-.239-.247q0-2.784,0-5.566c0-.239,0-.245.234-.26a3.712,3.712,0,0,0,.9-.154,3.026,3.026,0,0,0,1.905-1.7.968.968,0,0,0,.093-.427q0-3.9,0-7.791a.329.329,0,0,0-.041-.227,2.978,2.978,0,0,0-1.679.883,5.72,5.72,0,0,0-1.287,2.129,8.888,8.888,0,0,0-.438,1.622c-.021.129-.059.18-.193.178-.68-.005-1.357-.005-2.036,0-.136,0-.162-.059-.152-.172,0-.041,0-.085,0-.126V12.174c0-.093.01-.188.015-.283a.613.613,0,0,1,.311-.028q6.851,0,13.7,0a.613.613,0,0,1,.311.028" transform="translate(-224.746 11.507)"/>
  </g>
</svg>
