<svg xmlns="http://www.w3.org/2000/svg" width="16.984" height="11.379" viewBox="0 0 16.984 11.379"><defs><style>.a{fill:#043655;}</style></defs><g transform="translate(-33.928 -442.85)"><g transform="translate(33.928 442.85)"><g transform="translate(0 0)"><path class="a" d="M15.445,84.48H1.539A1.541,1.541,0,0,0,0,86.019v8.3a1.541,1.541,0,0,0,1.539,1.539H15.445a1.541,1.541,0,0,0,1.539-1.539v-8.3A1.541,1.541,0,0,0,15.445,84.48Zm.69,9.84a.691.691,0,0,1-.69.69H1.539a.691.691,0,0,1-.69-.69v-4.7H16.135Zm0-5.552H.849V87.282H16.135Zm0-2.335H.849v-.414a.691.691,0,0,1,.69-.69H15.445a.691.691,0,0,1,.69.69Z" transform="translate(0 -84.48)"/><path class="a" d="M72.1,278.609H80a.425.425,0,0,0,0-.849H72.1a.425.425,0,0,0,0,.849Z" transform="translate(-69.302 -271.349)"/><path class="a" d="M366.5,329.809h1.953a.425.425,0,1,0,0-.849H366.5a.425.425,0,0,0,0,.849Z" transform="translate(-353.936 -320.85)"/><path class="a" d="M264.1,328.96a.425.425,0,1,0,0,.849h1.868a.425.425,0,1,0,0-.849Z" transform="translate(-254.933 -320.85)"/><path class="a" d="M166.09,328.96h-1.826a.425.425,0,1,0,0,.849h1.826a.425.425,0,1,0,0-.849Z" transform="translate(-158.405 -320.85)"/><path class="a" d="M72.1,329.809h1.783a.425.425,0,1,0,0-.849H72.1a.425.425,0,1,0,0,.849Z" transform="translate(-69.302 -320.85)"/></g></g><rect class="a" width="15.944" height="2.253" transform="translate(34.491 445.276)"/></g></svg>