<svg xmlns="http://www.w3.org/2000/svg" width="36.094" height="37.613" viewBox="0 0 36.094 37.613">
  <g id="Group_4262" data-name="Group 4262" transform="translate(0 0)">
    <path id="Path_3942" data-name="Path 3942" d="M792.995,395.15H759.853V392.3l16.571-6.776L793,392.3v2.847Z" transform="translate(-759.853 -373.794)" fill="#0a9bd8"/>
    <path id="Path_3943" data-name="Path 3943" d="M810.048,395.829v2.847H793.912a14.872,14.872,0,0,0,8.158-6.107Z" transform="translate(-776.906 -377.32)" fill="#158db7"/>
    <path id="Path_3944" data-name="Path 3944" d="M793,429.943v-2.576H762.274v2.576" transform="translate(-761.065 -394.742)" fill="#01c6e1"/>
    <path id="Path_3945" data-name="Path 3945" d="M815.543,427.365v2.268H807.3a25.445,25.445,0,0,0,2.569-2.268Z" transform="translate(-783.61 -394.742)" fill="#04aeb2"/>
    <rect id="Rectangle_7318" data-name="Rectangle 7318" width="33.142" height="2.711" transform="translate(0 34.892)" fill="#0a9bd8"/>
    <path id="Path_3946" data-name="Path 3946" d="M812.391,431.91v2.72h-13.8a32.287,32.287,0,0,0,4.349-2.72Z" transform="translate(-779.249 -397.017)" fill="#158db7"/>
    <rect id="Rectangle_7319" data-name="Rectangle 7319" width="5.394" height="1.901" transform="translate(26.336 21.356)" fill="#01c6e1"/>
    <rect id="Rectangle_7320" data-name="Rectangle 7320" width="2.975" height="9.375" transform="translate(27.546 23.249)" fill="#0a9bd8"/>
    <rect id="Rectangle_7321" data-name="Rectangle 7321" width="5.394" height="1.901" transform="translate(18.052 21.356)" fill="#01c6e1"/>
    <rect id="Rectangle_7322" data-name="Rectangle 7322" width="2.975" height="9.375" transform="translate(19.26 23.249)" fill="#0a9bd8"/>
    <rect id="Rectangle_7323" data-name="Rectangle 7323" width="5.394" height="1.901" transform="translate(9.728 21.356)" fill="#01c6e1"/>
    <rect id="Rectangle_7324" data-name="Rectangle 7324" width="2.975" height="9.375" transform="translate(10.937 23.249)" fill="#0a9bd8"/>
    <rect id="Rectangle_7325" data-name="Rectangle 7325" width="5.394" height="1.901" transform="translate(1.405 21.356)" fill="#01c6e1"/>
    <rect id="Rectangle_7326" data-name="Rectangle 7326" width="2.975" height="9.375" transform="translate(2.614 23.249)" fill="#0a9bd8"/>
    <path id="Path_3947" data-name="Path 3947" d="M803.311,372.025h-1.517a4.36,4.36,0,0,1-2.832,1.149L784.1,370.846a1.624,1.624,0,0,1-1.014-.533l-.014-.023a1.814,1.814,0,0,1,.2-2.592l5.86-5.356a1.41,1.41,0,0,1,.871-.3h13.311" transform="translate(-771.25 -362.035)" fill="#efcdb1"/>
    <rect id="Rectangle_7327" data-name="Rectangle 7327" width="4.033" height="9.983" transform="translate(32.061 0)" fill="#f04930"/>
    <rect id="Rectangle_7328" data-name="Rectangle 7328" width="0.902" height="0.924" transform="translate(33.623 8.082)" fill="#d1d3d4"/>
    <path id="Path_3948" data-name="Path 3948" d="M793.533,375.365v12.29h-24.21a.218.218,0,0,1-.218-.218V375.365a.218.218,0,0,1,.218-.218h23.993a.218.218,0,0,1,.218.218" transform="translate(-764.485 -368.597)" fill="#8dc63f"/>
    <path id="Path_3949" data-name="Path 3949" d="M812.854,379.519v-4.372h-5.16a4.43,4.43,0,0,0,4.432,4.431h.007a3.879,3.879,0,0,0,.721-.06" transform="translate(-783.806 -368.597)" fill="#d1d3d4"/>
    <path id="Path_3950" data-name="Path 3950" d="M812.854,391.365v4.371h-5.16a4.43,4.43,0,0,1,4.432-4.431h.007a3.911,3.911,0,0,1,.721.06" transform="translate(-783.806 -376.687)" fill="#d1d3d4"/>
    <path id="Path_3951" data-name="Path 3951" d="M774.093,395.744a4.441,4.441,0,0,0-4.432-4.439,4.628,4.628,0,0,0-.556.037v4.4Z" transform="translate(-764.485 -376.687)" fill="#d1d3d4"/>
    <path id="Path_3952" data-name="Path 3952" d="M773.372,375.146H769.1v4.432a4.437,4.437,0,0,0,4.267-4.432" transform="translate(-764.485 -368.596)" fill="#d1d3d4"/>
    <path id="Path_3953" data-name="Path 3953" d="M784.606,386.217H782.33v-.9h2.276Zm.375-2.4h-1.51v.9h1.51Zm-.075,3H783.4v.9h1.51Zm9.368-1.5h-2.825v.9h2.825Zm-1.412-1.5h-1.878v.9h1.878Zm.09,3h-1.87v.9h1.871v-.9Z" transform="translate(-771.106 -372.936)" fill="#d1d3d4"/>
    <path id="Path_3954" data-name="Path 3954" d="M789.884,378.787c2.095,0,3.794,2,3.794,4.462s-1.7,4.462-3.794,4.462-3.794-2-3.794-4.462,1.7-4.462,3.794-4.462" transform="translate(-772.989 -370.419)" fill="#feba26"/>
    <path id="Path_3955" data-name="Path 3955" d="M806.1,371.5a5.366,5.366,0,0,1-4.823,1.645,10.345,10.345,0,0,1-3.688-1.526l-4.838,1.067A1.621,1.621,0,0,1,790.8,371.4a1.79,1.79,0,0,1,1.218-2.1l5.378-1.69a3.953,3.953,0,0,1,2.945-1.045" transform="translate(-775.328 -364.297)" fill="#efcdb1"/>
    <path id="Path_3956" data-name="Path 3956" d="M797.378,367.471a.516.516,0,0,1-.188.121l-5.4,1.7a1.276,1.276,0,0,0-.841.811.475.475,0,0,1-.42.3H790.5a.452.452,0,0,1-.443-.458.411.411,0,0,1,.022-.135,2.178,2.178,0,0,1,1.457-1.382l5.183-1.638a.375.375,0,0,0,.158-.083,4.442,4.442,0,0,1,2.644-1.037.453.453,0,0,1,.466.436v.044a.439.439,0,0,1-.413.421,3.4,3.4,0,0,0-2.2.9" transform="translate(-774.978 -363.851)" fill="#d8b49a"/>
    <path id="Path_3957" data-name="Path 3957" d="M813.088,376.4a.142.142,0,0,1,0,.2l-.007.008a5.6,5.6,0,0,1-4.169,1.705,6.872,6.872,0,0,1-.893-.053,10.042,10.042,0,0,1-3.658-1.442.149.149,0,0,1-.053-.135l.128-.684a.119.119,0,0,1,.135-.1.066.066,0,0,1,.053.023,9.969,9.969,0,0,0,3.486,1.45,4.895,4.895,0,0,0,4.364-1.42.146.146,0,0,1,.211,0,.007.007,0,0,0,.008.007Z" transform="translate(-782.11 -368.971)" fill="#d8b49a"/>
    <path id="Path_3958" data-name="Path 3958" d="M791.987,386.272a.591.591,0,0,0,.544.386c.386,0,.668-.391-.052-.606-.53-.158-1.1-.367-1.1-1.006a.867.867,0,0,1,.8-.82v-.362h.6v.357a.976.976,0,0,1,.91.911h-.644c-.382-.844-1.545-.071-.543.2.543.148,1.149.358,1.149,1.021a.889.889,0,0,1-.872.839v.52h-.6v-.548a.951.951,0,0,1-.834-.9Z" transform="translate(-775.619 -372.961)" fill="#8dc63f"/>
  </g>
</svg>
