<svg xmlns="http://www.w3.org/2000/svg" width="16.171" height="16.171" viewBox="0 0 16.171 16.171"><defs><style>.a{fill:#03273c;}</style></defs><g transform="translate(-35.113 -464.615)"><path class="a" d="M14.874,2.47H13.5V1.735a.735.735,0,0,0-1.47,0V2.47H9.821V1.735a.735.735,0,1,0-1.47,0V2.47H6.145V1.735a.735.735,0,1,0-1.47,0V2.47H3.3A2.3,2.3,0,0,0,1,4.767V6.88H17.171V4.767A2.3,2.3,0,0,0,14.874,2.47Z" transform="translate(34.113 463.615)"/><path class="a" d="M1,17.524a2.3,2.3,0,0,0,2.3,2.3H14.874a2.3,2.3,0,0,0,2.3-2.3V11H1ZM6.361,14.57a.735.735,0,0,1,1.039,0l.95.95,2.421-2.42a.735.735,0,1,1,1.039,1.039L8.87,17.08a.735.735,0,0,1-1.039,0l-1.47-1.47A.735.735,0,0,1,6.361,14.57Z" transform="translate(34.113 460.965)"/></g></svg>