<svg xmlns="http://www.w3.org/2000/svg" width="17.173" height="12.236" viewBox="0 0 17.173 12.236"><defs><style>.a{fill:#03273c;}</style></defs><g transform="translate(0 -33.085)"><path class="a" d="M165.157,48.864c0-.02.014-.039.013-.058l-5.241,5.05,5.234,4.888c0-.035-.006-.07-.006-.106Z" transform="translate(-147.997 -14.548)"/><path class="a" d="M21.321,126.9l-2.139,2.058a.559.559,0,0,1-.769.006l-2.134-1.988-5.268,5.078a1.214,1.214,0,0,0,.41.082H26.167a1.213,1.213,0,0,0,.589-.162Z" transform="translate(-10.189 -86.816)"/><path class="a" d="M14.271,40.969l8-7.7a1.212,1.212,0,0,0-.618-.18H6.9a1.215,1.215,0,0,0-.774.288Z" transform="translate(-5.673)"/><path class="a" d="M0,52.1v9.586A1.217,1.217,0,0,0,.053,62l5.2-5.01Z" transform="translate(0 -17.596)"/></g></svg>