<svg xmlns="http://www.w3.org/2000/svg" width="12.429" height="10.322" viewBox="0 0 16.429 12.322"><defs><style>.a{fill:#043655;}</style></defs><g transform="translate(0 0)"><path class="a" d="M7.035,65c2.255,1.91,6.211,5.269,7.374,6.317a.687.687,0,0,0,.994,0c1.164-1.049,5.12-4.408,7.375-6.318a.342.342,0,0,0,.048-.472A1.359,1.359,0,0,0,21.752,64H8.061a1.359,1.359,0,0,0-1.074.527A.342.342,0,0,0,7.035,65Z" transform="translate(-6.692 -64)"/><path class="a" d="M343.717,126.443a.341.341,0,0,0-.365.049c-1.477,1.252-3.422,2.906-4.89,4.168a.342.342,0,0,0,.009.526c1.363,1.092,3.418,2.594,4.9,3.662a.342.342,0,0,0,.542-.278v-7.817A.342.342,0,0,0,343.717,126.443Z" transform="translate(-327.487 -124.409)"/><path class="a" d="M.542,134.858c1.484-1.068,3.539-2.57,4.9-3.662a.342.342,0,0,0,.009-.526c-1.467-1.262-3.413-2.916-4.89-4.168a.342.342,0,0,0-.564.261v7.817a.342.342,0,0,0,.542.278Z" transform="translate(0 -124.418)"/><path class="a" d="M24.357,288.908c-1.433-1.025-4.073-2.936-5.648-4.215a.343.343,0,0,0-.441.008c-.309.27-.568.5-.751.662a1.386,1.386,0,0,1-1.911,0c-.183-.165-.442-.393-.751-.661a.341.341,0,0,0-.44-.008c-1.57,1.274-4.213,3.188-5.648,4.215a.342.342,0,0,0-.051.511,1.372,1.372,0,0,0,1,.439H23.407a1.373,1.373,0,0,0,1-.439.342.342,0,0,0-.052-.511Z" transform="translate(-8.347 -277.536)"/></g></svg>