<svg id="ewallet" xmlns="http://www.w3.org/2000/svg" width="30.756" height="31.313" viewBox="0 0 30.756 31.313">
  <path id="Path_54579" data-name="Path 54579" d="M5.563,16H26.579a1.538,1.538,0,0,1,1.538,1.538v3.588H5.563a2.563,2.563,0,1,1,0-5.126Z" transform="translate(-2.487 -8.779)" fill="#828282"/>
  <path id="Path_54580" data-name="Path 54580" d="M28.117,42.016H5.563A2.563,2.563,0,0,1,3,39.453V21a2.563,2.563,0,0,0,2.563,2.563H28.117A1.538,1.538,0,0,1,29.655,25.1V40.479A1.538,1.538,0,0,1,28.117,42.016Z" transform="translate(-2.487 -11.216)" fill="#ffe648"/>
  <path id="Path_54581" data-name="Path 54581" d="M5.563,42.016h2.05V23.563H5.563A2.563,2.563,0,0,1,3,21V39.453A2.563,2.563,0,0,0,5.563,42.016Z" transform="translate(-2.487 -11.216)" fill="#ffe648"/>
  <path id="Path_54582" data-name="Path 54582" d="M51.664,42.689H48.076a3.076,3.076,0,1,1,0-6.151h3.588A1.538,1.538,0,0,0,53.2,35v6.151a1.538,1.538,0,0,1-1.538,1.538Z" transform="translate(-22.958 -18.039)" fill="#828282"/>
  <path id="Path_54583" data-name="Path 54583" d="M55,32h1.538a1.538,1.538,0,0,1,0,3.076H55Z" transform="translate(-27.832 -16.577)" fill="#505050"/>
  <ellipse id="Ellipse_175" data-name="Ellipse 175" cx="1.025" cy="1.025" rx="1.025" ry="1.025" transform="translate(24.092 20.549)" fill="#f0f0f0"/>
  <ellipse id="Ellipse_176" data-name="Ellipse 176" cx="5.126" cy="5.126" rx="5.126" ry="5.126" transform="translate(8.714 0.558)" fill="#ffd20a"/>
  <path id="Path_54584" data-name="Path 54584" d="M19,21H29.252v2.05H19Z" transform="translate(-10.286 -11.216)" fill="#828282"/>
  <g id="Group_23087" data-name="Group 23087" transform="translate(6.92 14.91)">
    <ellipse id="Ellipse_177" data-name="Ellipse 177" cx="1.538" cy="1.538" rx="1.538" ry="1.538" transform="translate(4.87)" fill="#fff186"/>
    <ellipse id="Ellipse_178" data-name="Ellipse 178" cx="1.538" cy="1.538" rx="1.538" ry="1.538" transform="translate(0 3.588)" fill="#fff186"/>
    <ellipse id="Ellipse_179" data-name="Ellipse 179" cx="1.538" cy="1.538" rx="1.538" ry="1.538" transform="translate(9.739 3.588)" fill="#fff186"/>
  </g>
  <path id="Path_54585" data-name="Path 54585" d="M30.705,16.822H29.68V15.8a2.05,2.05,0,0,0-1.538-1.979V10.671a2.05,2.05,0,0,0-2.05-2.05H21.376a5.639,5.639,0,1,0-11.072,0H5.076A3.076,3.076,0,0,0,2,11.7V30.15a3.076,3.076,0,0,0,3.076,3.076H27.63a2.05,2.05,0,0,0,2.05-2.05v-4.1h1.025a2.05,2.05,0,0,0,2.05-2.05V18.873A2.05,2.05,0,0,0,30.705,16.822ZM15.84,2.982a4.613,4.613,0,0,1,2.886,8.2h-2.45a.513.513,0,0,0,.077-.256v-.6a1.661,1.661,0,0,0-.513-3.245.641.641,0,1,1,.641-.641.513.513,0,1,0,1.025,0,1.671,1.671,0,0,0-1.153-1.579v-.6a.513.513,0,1,0-1.025,0v.6a1.661,1.661,0,0,0,.513,3.245.641.641,0,1,1-.641.641.513.513,0,0,0-1.025,0,1.671,1.671,0,0,0,1.153,1.579v.6a.513.513,0,0,0,.077.256h-2.45a4.613,4.613,0,0,1,2.886-8.2ZM5.076,9.646H10.6a5.8,5.8,0,0,0,.9,1.538H10.2a.513.513,0,1,0,0,1.025H21.479a.513.513,0,1,0,0-1.025h-1.3a5.8,5.8,0,0,0,.9-1.538h5.008a1.025,1.025,0,0,1,1.025,1.025v3.076H5.076a2.05,2.05,0,0,1,0-4.1ZM6.613,32.2H5.076a2.05,2.05,0,0,1-2.05-2.05V13.983a3.076,3.076,0,0,0,2.05.789H6.613Zm22.042-1.025A1.025,1.025,0,0,1,27.63,32.2H17.89V24.978l1.271-1.271a2.076,2.076,0,1,0-.723-.733l-1.425,1.42a.513.513,0,0,0-.149.364V32.2H15.84V20.339a2.05,2.05,0,1,0-1.025,0V32.2H13.79V24.768a.513.513,0,0,0-.149-.364l-1.425-1.43a2.076,2.076,0,1,0-.723.723l1.271,1.281V32.2H7.639V14.772H27.63A1.025,1.025,0,0,1,28.655,15.8v4.1H27.117a3.588,3.588,0,0,0,0,7.176h1.538Zm-9.483-9.227A1.025,1.025,0,1,1,20.2,22.974,1.025,1.025,0,0,1,19.172,21.948Zm-3.844-2.563a1.025,1.025,0,1,1,1.025-1.025A1.025,1.025,0,0,1,15.327,19.385Zm-3.844,2.563a1.025,1.025,0,1,1-1.025-1.025A1.025,1.025,0,0,1,11.483,21.948Zm20.248,3.076a1.025,1.025,0,0,1-1.025,1.025H27.117a2.563,2.563,0,1,1,0-5.126h3.588a2.05,2.05,0,0,0,1.025-.277ZM30.705,19.9H29.68v-2.05h1.025a1.025,1.025,0,1,1,0,2.05Z" transform="translate(-2 -1.912)"/>
  <path id="Path_54586" data-name="Path 54586" d="M49.538,41a1.538,1.538,0,1,0,1.538,1.538A1.538,1.538,0,0,0,49.538,41Zm0,2.05a.513.513,0,1,1,.513-.513A.513.513,0,0,1,49.538,43.05Z" transform="translate(-24.421 -20.964)"/>
</svg>
