<svg xmlns="http://www.w3.org/2000/svg" xmlns:xlink="http://www.w3.org/1999/xlink" width="152.087" height="90.23" viewBox="0 0 152.087 90.23">
  <defs>
    <clipPath id="clip-path">
      <rect id="Rectangle_24267" data-name="Rectangle 24267" width="152.087" height="90.23" fill="none"/>
    </clipPath>
    <clipPath id="clip-path-2">
      <path id="Path_44622" data-name="Path 44622" d="M30.6,1.324a26.253,26.253,0,0,0-3.213,52.21q.645.028,1.3.029a27.174,27.174,0,0,0,18.947-7.652,27.276,27.276,0,0,0,7.088-21.68c-.022-.207-.05-.416-.079-.622,0-.014,0-.033-.007-.048a.9.9,0,0,0-.178-.427H39.106a.88.88,0,0,0-.672.311l-6.579,7.837a.917.917,0,0,0-.18.351H44.1a.912.912,0,0,1,.792.463.9.9,0,0,1,.1.63h1.095a.877.877,0,0,1,.811,1.216,16.9,16.9,0,0,1-15.185,10.5,17.172,17.172,0,0,1-3.191.459,17.477,17.477,0,0,1-2.389-.033c-.382-.032-.755-.076-1.131-.134h0A17.541,17.541,0,0,1,15.61,14.585,17.521,17.521,0,0,1,40.8,13.594h0c.054.057.116.112.174.173l.007.008c.474.332-.883,1.363-.449,1.743.069.058.861.756.927.818.141.123.4.376.7.677a1.682,1.682,0,0,0,2.474-.1l4.895-5.743a1.881,1.881,0,0,0-.151-2.595c-.36-.335-.679-.626-.865-.787A26.139,26.139,0,0,0,31.246,1.317c-.216,0-.433,0-.65.007" transform="translate(-5.012 -1.317)" fill="none"/>
    </clipPath>
    <linearGradient id="linear-gradient" x1="0.078" y1="1.409" x2="0.091" y2="1.409" gradientUnits="objectBoundingBox">
      <stop offset="0" stop-color="#262261"/>
      <stop offset="0.48" stop-color="#00adee"/>
      <stop offset="1" stop-color="#00adee"/>
    </linearGradient>
    <clipPath id="clip-path-3">
      <path id="Path_44623" data-name="Path 44623" d="M30.224,2.5a26.251,26.251,0,0,0-3.213,52.206l.178.026a26.679,26.679,0,0,0,3.7.26,26.246,26.246,0,0,0,26.25-26.25,15.985,15.985,0,0,0-.253-3.673c-.324-1.373-2.594-2.216-3.038-2.216L38.727,24.307a.876.876,0,0,0-.669.315l-6.574,7.836a.868.868,0,0,0-.181.352H43.72a.91.91,0,0,1,.9,1.088h1.1a.878.878,0,0,1,.807,1.219A16.9,16.9,0,0,1,29.464,45.564a16.541,16.541,0,0,1-3.328-.619c-.149-.043-.294-.091-.438-.137A17.551,17.551,0,0,1,28.028,9.9a.021.021,0,0,0,.019,0c.09,0,.178,0,.267,0a17.473,17.473,0,0,1,12.114,4.87h0a2.553,2.553,0,0,1,.181.181,14.585,14.585,0,0,1,1.2.929.781.781,0,0,0,.2-.166l.525-.608L47.2,9.679a.92.92,0,0,0,.225-.618c0-.029,0-.062-.007-.09V8.962a.871.871,0,0,0-.246-.5c-.435-.452-.887-.886-1.353-1.3A26.086,26.086,0,0,0,30.894,2.492c-.223,0-.447,0-.67.008" transform="translate(-4.64 -2.492)" fill="none"/>
    </clipPath>
    <linearGradient id="linear-gradient-2" x1="0.087" y1="1.333" x2="0.1" y2="1.333" gradientUnits="objectBoundingBox">
      <stop offset="0" stop-color="#00adee"/>
      <stop offset="0.52" stop-color="#00adee"/>
      <stop offset="1" stop-color="#262261"/>
    </linearGradient>
    <clipPath id="clip-path-4">
      <path id="Path_44624" data-name="Path 44624" d="M117.538,51.208q-.432,0-.866-.011c2.655,2.149,6.5,5.976,15.709,5.875a27.393,27.393,0,0,0,27.287-27.288c0-3.635-.34-8.139-2.593-11.593a40.253,40.253,0,0,1-39.537,33.018" transform="translate(-116.672 -18.19)" fill="none"/>
    </clipPath>
    <linearGradient id="linear-gradient-3" x1="-2.15" y1="1.534" x2="-2.132" y2="1.534" gradientUnits="objectBoundingBox">
      <stop offset="0" stop-color="#7e4f20"/>
      <stop offset="1" stop-color="#eec92d"/>
    </linearGradient>
    <clipPath id="clip-path-5">
      <path id="Path_44625" data-name="Path 44625" d="M28.989,1.827A26.25,26.25,0,1,0,33.416,54.05l.022,0c.289-.066.574-.135.86-.207a27.3,27.3,0,0,0,20.32-29.579c-.022-.206-.05-.415-.08-.621v-.007H37.5a.872.872,0,0,0-.669.315l-6.579,7.836a.867.867,0,0,0-.1.981H43.278a.929.929,0,0,1,.8.459h.4a.881.881,0,0,1,.811,1.219A16.915,16.915,0,0,1,28.776,44.932c-.064-.006-.13-.008-.2-.011l-.352-.027a16.883,16.883,0,0,1,1.432-33.706,16.842,16.842,0,0,1,10.325,3.538h.006a17.307,17.307,0,0,1,1.426,1.239h0a.808.808,0,0,0,.311-.13.73.73,0,0,0,.194-.165l.525-.607,4.674-5.428a.934.934,0,0,0,.226-.62.511.511,0,0,0-.008-.091V8.919a.822.822,0,0,0-.14-.372A26.143,26.143,0,0,0,29.647,1.82c-.218,0-.438,0-.657.007" transform="translate(-3.41 -1.82)" fill="none"/>
    </clipPath>
    <linearGradient id="linear-gradient-4" x1="-0.061" y1="1.686" x2="-0.043" y2="1.686" xlink:href="#linear-gradient-2"/>
    <clipPath id="clip-path-6">
      <path id="Path_44626" data-name="Path 44626" d="M103.259,29.615a25.922,25.922,0,0,0,7.828,18.53,2.784,2.784,0,0,0,1.711.789q1.727.157,3.493.158a28.664,28.664,0,0,0,14.018-4.059C120.913,44.721,113,38.791,113,29.615c0-9.375,7.872-17,17.549-17a17.281,17.281,0,0,1,17.315,17.22,16.286,16.286,0,0,1-.237,2.783c3.27-4.9,6.652-12.13,6.479-19.517-4.813-7.5-13.771-9.92-23.557-9.92-15.071,0-27.287,11.836-27.287,26.436" transform="translate(-103.259 -3.179)" fill="none"/>
    </clipPath>
    <linearGradient id="linear-gradient-5" x1="-1.338" y1="1.447" x2="-1.324" y2="1.447" gradientUnits="objectBoundingBox">
      <stop offset="0" stop-color="#262261"/>
      <stop offset="0.52" stop-color="#00adee"/>
      <stop offset="1" stop-color="#262261"/>
    </linearGradient>
    <clipPath id="clip-path-8">
      <path id="Path_44632" data-name="Path 44632" d="M67.476,2.062A1.047,1.047,0,0,0,66.432,3.11V54.517a1.047,1.047,0,0,0,1.044,1.047h32.988a1.049,1.049,0,0,0,1.048-1.047V45.561a1.514,1.514,0,0,0-1.7-1.586l-22.329.538V3.11c0-.578-.022-1.591-1.591-1.591Z" transform="translate(-66.432 -1.519)" fill="none"/>
    </clipPath>
    <linearGradient id="linear-gradient-6" x1="-1.771" y1="1.643" x2="-1.744" y2="1.643" gradientUnits="objectBoundingBox">
      <stop offset="0" stop-color="#00adee"/>
      <stop offset="0.02" stop-color="#0d9ee0"/>
      <stop offset="0.054" stop-color="#1c8dd0"/>
      <stop offset="0.095" stop-color="#2781c5"/>
      <stop offset="0.153" stop-color="#2d7abe"/>
      <stop offset="0.313" stop-color="#2f79bd"/>
      <stop offset="0.501" stop-color="#2c7bbf"/>
      <stop offset="0.618" stop-color="#2484c7"/>
      <stop offset="0.715" stop-color="#1792d5"/>
      <stop offset="0.802" stop-color="#05a7e8"/>
      <stop offset="0.822" stop-color="#00adee"/>
      <stop offset="0.828" stop-color="#0696d7"/>
      <stop offset="0.838" stop-color="#0e77b7"/>
      <stop offset="0.85" stop-color="#155c9c"/>
      <stop offset="0.863" stop-color="#1b4686"/>
      <stop offset="0.879" stop-color="#203675"/>
      <stop offset="0.898" stop-color="#232a69"/>
      <stop offset="0.925" stop-color="#252362"/>
      <stop offset="1" stop-color="#262261"/>
    </linearGradient>
  </defs>
  <g id="Group_22797" data-name="Group 22797" transform="translate(-111.456 -175.301)">
    <g id="Group_10998" data-name="Group 10998" transform="translate(111.456 175.301)">
      <path id="Path_44571" data-name="Path 44571" d="M0,89.562v.631H1.842v5.724h.73V90.193H4.419v-.631Z" transform="translate(0 -5.819)" fill="#0576c4"/>
      <path id="Path_44572" data-name="Path 44572" d="M9.758,89.562v2.662H6.7V89.562H5.97v6.355H6.7V92.856H9.758v3.061h.729V89.562Z" transform="translate(-0.388 -5.819)" fill="#0576c4"/>
      <path id="Path_44573" data-name="Path 44573" d="M12.807,89.562v6.355h4.085v-.631H13.537V92.892h2.591v-.58H13.537v-2.12H16.8v-.631Z" transform="translate(-0.832 -5.819)" fill="#0576c4"/>
      <g id="Group_10980" data-name="Group 10980" transform="translate(0 0)">
        <g id="Group_10979" data-name="Group 10979" clip-path="url(#clip-path)">
          <path id="Path_44574" data-name="Path 44574" d="M23.669,96.04a2.294,2.294,0,0,1-1.95-.942,3.785,3.785,0,0,1-.7-2.3,3.871,3.871,0,0,1,.741-2.414,2.4,2.4,0,0,1,2.006-.961,2.23,2.23,0,0,1,2.271,1.8l-.688.166a1.633,1.633,0,0,0-1.634-1.359,1.555,1.555,0,0,0-1.436.787,3.8,3.8,0,0,0-.458,1.948,3.349,3.349,0,0,0,.514,1.977,1.65,1.65,0,0,0,1.408.72A1.585,1.585,0,0,0,24.9,95a1.715,1.715,0,0,0,.466-1.271c0-.1,0-.215-.009-.352v-.036H23.766v-.6h2.346V96h-.425l-.235-.856-.047.065a1.989,1.989,0,0,1-1.736.832" transform="translate(-1.366 -5.81)" fill="#0576c4"/>
          <path id="Path_44575" data-name="Path 44575" d="M30.488,96.04a2.216,2.216,0,0,1-1.9-.948A3.923,3.923,0,0,1,27.9,92.75a3.854,3.854,0,0,1,.717-2.392,2.383,2.383,0,0,1,3.776-.016,3.734,3.734,0,0,1,.712,2.337,4.08,4.08,0,0,1-.693,2.362,2.216,2.216,0,0,1-1.926,1m.014-6.035a1.535,1.535,0,0,0-1.342.767,3.617,3.617,0,0,0-.491,1.982,3.491,3.491,0,0,0,.5,1.947,1.542,1.542,0,0,0,1.341.759,1.519,1.519,0,0,0,1.351-.786,3.764,3.764,0,0,0,.482-2,3.358,3.358,0,0,0-.5-1.96,1.571,1.571,0,0,0-1.338-.709" transform="translate(-1.813 -5.81)" fill="#0576c4"/>
          <path id="Path_44576" data-name="Path 44576" d="M36.165,95.917l-2.141-6.355h.764l1.82,5.385,1.8-5.385h.621l-2.14,6.355Z" transform="translate(-2.211 -5.819)" fill="#0576c4"/>
          <path id="Path_44577" data-name="Path 44577" d="M40.578,95.917V89.562h3.994v.631H41.309v2.12H43.9v.58H41.309v2.394h3.354v.631Z" transform="translate(-2.637 -5.819)" fill="#0576c4"/>
          <path id="Path_44578" data-name="Path 44578" d="M50.208,95.917l-1.187-2.785h-1.9v2.785h-.679V89.562h2.5a1.913,1.913,0,0,1,1.5.55,1.794,1.794,0,0,1,.487,1.207,1.877,1.877,0,0,1-.273.966,1.522,1.522,0,0,1-.9.656l-.039.012,1.258,2.964Zm-3.091-3.364h1.719a1.333,1.333,0,0,0,1.019-.363,1.249,1.249,0,0,0,.338-.885,1.006,1.006,0,0,0-.359-.821,1.384,1.384,0,0,0-.9-.291H47.117Z" transform="translate(-3.017 -5.819)" fill="#0576c4"/>
          <path id="Path_44579" data-name="Path 44579" d="M56.883,95.917l-3.367-5.711.013.568q.014.241.014.4v4.74h-.575V89.562h.971l3.15,5.346-.012-.591c-.007-.176-.009-.33-.009-.465v-4.29h.56v6.355Z" transform="translate(-3.442 -5.819)" fill="#0576c4"/>
          <path id="Path_44580" data-name="Path 44580" d="M65.383,95.917V90.339l-.073-.013-2.079,5.591h-.494l-2.1-5.591-.073.013v5.578h-.608V89.562h1.129l1.969,5.214,1.922-5.214H66.09v6.355Z" transform="translate(-3.896 -5.819)" fill="#0576c4"/>
          <path id="Path_44581" data-name="Path 44581" d="M68.521,95.917V89.562h3.994v.631H69.251v2.12h2.591v.58H69.251v2.394h3.354v.631Z" transform="translate(-4.452 -5.819)" fill="#0576c4"/>
          <path id="Path_44582" data-name="Path 44582" d="M78.295,95.917l-3.367-5.711.013.568q.014.241.014.4v4.74H74.38V89.562h.971l3.15,5.346-.012-.591c-.007-.176-.009-.33-.009-.465v-4.29h.56v6.355Z" transform="translate(-4.833 -5.819)" fill="#0576c4"/>
          <path id="Path_44583" data-name="Path 44583" d="M82.455,95.917V90.193H80.613v-.631h4.419v.631H83.185v5.724Z" transform="translate(-5.238 -5.819)" fill="#0576c4"/>
          <path id="Path_44584" data-name="Path 44584" d="M89.369,95.917V89.562h.749v5.724h2.972v.631Z" transform="translate(-5.807 -5.819)" fill="#0576c4"/>
          <path id="Path_44585" data-name="Path 44585" d="M96.545,96.04a2.216,2.216,0,0,1-1.9-.948,3.923,3.923,0,0,1-.685-2.342,3.848,3.848,0,0,1,.718-2.392,2.382,2.382,0,0,1,3.775-.016,3.728,3.728,0,0,1,.712,2.337,4.08,4.08,0,0,1-.693,2.362,2.215,2.215,0,0,1-1.926,1m.015-6.035a1.536,1.536,0,0,0-1.343.767,3.617,3.617,0,0,0-.491,1.982,3.483,3.483,0,0,0,.5,1.947,1.54,1.54,0,0,0,1.34.759,1.519,1.519,0,0,0,1.351-.786,3.755,3.755,0,0,0,.482-2,3.365,3.365,0,0,0-.5-1.96,1.573,1.573,0,0,0-1.338-.709" transform="translate(-6.105 -5.81)" fill="#0576c4"/>
          <path id="Path_44586" data-name="Path 44586" d="M101.888,95.917V90.193h-1.842v-.631h4.419v.631h-1.847v5.724Z" transform="translate(-6.501 -5.819)" fill="#0576c4"/>
          <path id="Path_44587" data-name="Path 44587" d="M107.1,95.917V90.193H105.26v-.631h4.419v.631h-1.847v5.724Z" transform="translate(-6.839 -5.819)" fill="#0576c4"/>
          <path id="Path_44588" data-name="Path 44588" d="M111.231,95.917V89.562h3.994v.631h-3.264v2.12h2.591v.58h-2.591v2.394h3.354v.631Z" transform="translate(-7.227 -5.819)" fill="#0576c4"/>
          <path id="Path_44589" data-name="Path 44589" d="M120.859,95.917l-1.187-2.785h-1.9v2.785h-.678V89.562h2.5a1.911,1.911,0,0,1,1.5.55,1.794,1.794,0,0,1,.487,1.207,1.877,1.877,0,0,1-.273.966,1.52,1.52,0,0,1-.9.656l-.039.012,1.257,2.964Zm-3.091-3.364h1.72a1.336,1.336,0,0,0,1.019-.363,1.253,1.253,0,0,0,.338-.885,1.007,1.007,0,0,0-.36-.821,1.382,1.382,0,0,0-.9-.291h-1.819Z" transform="translate(-7.608 -5.819)" fill="#0576c4"/>
          <path id="Path_44590" data-name="Path 44590" d="M124.646,95.916V93.249l-2.125-3.689h.887l1.706,2.992,1.75-3.011.638.017-2.122,3.672,0,2.685Z" transform="translate(-7.961 -5.818)" fill="#0576c4"/>
          <path id="Path_44591" data-name="Path 44591" d="M133.864,96.04a2.216,2.216,0,0,1-1.9-.948,3.923,3.923,0,0,1-.685-2.342A3.854,3.854,0,0,1,132,90.358a2.383,2.383,0,0,1,3.776-.016,3.734,3.734,0,0,1,.712,2.337,4.08,4.08,0,0,1-.693,2.362,2.216,2.216,0,0,1-1.926,1m.014-6.035a1.535,1.535,0,0,0-1.342.767,3.617,3.617,0,0,0-.491,1.982,3.491,3.491,0,0,0,.5,1.947,1.542,1.542,0,0,0,1.341.759,1.519,1.519,0,0,0,1.351-.786,3.764,3.764,0,0,0,.482-2,3.358,3.358,0,0,0-.5-1.96,1.571,1.571,0,0,0-1.338-.709" transform="translate(-8.53 -5.81)" fill="#0576c4"/>
          <path id="Path_44592" data-name="Path 44592" d="M138.427,95.917V89.562h3.863v.631h-3.132V92.3h2.6v.575h-2.6v3.044Z" transform="translate(-8.995 -5.819)" fill="#0576c4"/>
          <path id="Path_44593" data-name="Path 44593" d="M143.874,95.917V89.562h3.863v.631H144.6V92.3h2.6v.575h-2.6v3.044Z" transform="translate(-9.348 -5.819)" fill="#0576c4"/>
          <rect id="Rectangle_24264" data-name="Rectangle 24264" width="0.73" height="6.355" transform="translate(139.618 83.743)" fill="#0576c4"/>
          <path id="Path_44594" data-name="Path 44594" d="M154.244,96.04a2.19,2.19,0,0,1-1.884-.97,4.08,4.08,0,0,1-.688-2.4,3.668,3.668,0,0,1,.717-2.362,2.344,2.344,0,0,1,1.917-.886,2.267,2.267,0,0,1,2.276,2l-.685.136c-.282-1.015-.819-1.53-1.6-1.53a1.533,1.533,0,0,0-1.353.731,3.675,3.675,0,0,0-.475,2.024,3.4,3.4,0,0,0,.486,1.918,1.512,1.512,0,0,0,1.3.73c.827,0,1.384-.54,1.658-1.6l.661.148a2.329,2.329,0,0,1-2.338,2.064" transform="translate(-9.855 -5.81)" fill="#0576c4"/>
          <path id="Path_44595" data-name="Path 44595" d="M158.288,95.917V89.562h4v.631h-3.265v2.12h2.592v.58h-2.592v2.394h3.355v.631Z" transform="translate(-10.285 -5.819)" fill="#0576c4"/>
          <path id="Path_44596" data-name="Path 44596" d="M8.166,76.223v1.243s2.641-1.011,2.832.569v4.776h1.469V77.827s-.131-2.568-4.3-1.6" transform="translate(-0.531 -4.938)" fill="#0576c4"/>
          <path id="Path_44597" data-name="Path 44597" d="M39.2,76.223v1.243s2.641-1.011,2.832.569v4.776H43.5V77.827s-.131-2.568-4.3-1.6" transform="translate(-2.547 -4.938)" fill="#0576c4"/>
          <path id="Path_44598" data-name="Path 44598" d="M69.906,76.223v1.243s2.641-1.011,2.832.569v4.776h1.469V77.827s-.131-2.568-4.3-1.6" transform="translate(-4.542 -4.938)" fill="#0576c4"/>
          <path id="Path_44599" data-name="Path 44599" d="M149.859,76.223v1.243s2.641-1.011,2.832.569v4.776h1.469V77.827s-.131-2.568-4.3-1.6" transform="translate(-9.737 -4.938)" fill="#0576c4"/>
          <path id="Path_44600" data-name="Path 44600" d="M5.486,75.67l-.625.625a6.4,6.4,0,0,0-4.123.1v1.175c2.444-.832,3.5-.289,3.912.1a.753.753,0,0,1,.227.551v.82a4.523,4.523,0,0,0-2.359-.424,3.115,3.115,0,0,0-1.89.71,2.105,2.105,0,0,0-.525,2.149A2.089,2.089,0,0,0,2.049,82.9a5.537,5.537,0,0,0,1.623-.109L3.685,81.7A2.538,2.538,0,0,1,1.9,81.457a.964.964,0,0,1,.487-1.682,3.306,3.306,0,0,1,1.744.119,3.068,3.068,0,0,1,.745.352V82.79H6.347V78.014a.777.777,0,0,0-.07-.331,3.02,3.02,0,0,0-.415-.643l1.371-1.37Z" transform="translate(0 -4.917)" fill="#0576c4"/>
          <path id="Path_44601" data-name="Path 44601" d="M6.1,72.3A1.434,1.434,0,1,0,7.537,73.74,1.438,1.438,0,0,0,6.1,72.3m0,1.964a.53.53,0,1,1,.527-.527.53.53,0,0,1-.527.527" transform="translate(-0.303 -4.698)" fill="#0576c4"/>
          <path id="Path_44602" data-name="Path 44602" d="M59.052,75.67l-.625.625a6.4,6.4,0,0,0-4.123.1v1.175c2.444-.832,3.5-.289,3.912.1a.753.753,0,0,1,.227.551v.82a4.523,4.523,0,0,0-2.359-.424,3.115,3.115,0,0,0-1.89.71A2.079,2.079,0,0,0,55.615,82.9a5.537,5.537,0,0,0,1.623-.109l.013-1.086a2.538,2.538,0,0,1-1.783-.248.964.964,0,0,1,.487-1.682,3.31,3.31,0,0,1,1.745.119,3.079,3.079,0,0,1,.744.352V82.79h1.469V78.014a.777.777,0,0,0-.07-.331,3.02,3.02,0,0,0-.415-.643L60.8,75.67Z" transform="translate(-3.481 -4.917)" fill="#0576c4"/>
          <path id="Path_44603" data-name="Path 44603" d="M138.578,75.754l-.539.539a7.558,7.558,0,0,0-4.314-.093V77.55q.21-.079.425-.142a6.576,6.576,0,0,1,1.542-.253,2.389,2.389,0,0,1,2.264.814,2.654,2.654,0,0,1,.4,1.442c0,2.154-2.384,2.12-2.384,2.12l-.622-2.368h-1.461l.89,3.561a6.442,6.442,0,0,0,2.861-.151,3.523,3.523,0,0,0,1.907-4.887,2.919,2.919,0,0,0-.471-.679l1.252-1.252Z" transform="translate(-8.689 -4.922)" fill="#0576c4"/>
          <path id="Path_44604" data-name="Path 44604" d="M62.945,76.418v1.175c2.444-.832,3.5-.289,3.912.1a.753.753,0,0,1,.227.551v.819a4.531,4.531,0,0,0-2.359-.423,3.119,3.119,0,0,0-1.891.709,2.08,2.08,0,0,0,1.42,3.571,5.536,5.536,0,0,0,1.623-.109l.013-1.085a2.551,2.551,0,0,1-1.784-.248A.965.965,0,0,1,64.6,79.8a3.305,3.305,0,0,1,1.744.118,3.1,3.1,0,0,1,.745.352V82.81h1.469V78.034a.77.77,0,0,0-.07-.33c-1.359-2.841-5.538-1.286-5.538-1.286" transform="translate(-4.042 -4.938)" fill="#0576c4"/>
          <path id="Path_44605" data-name="Path 44605" d="M162.145,77.7c-1.358-2.841-5.538-1.286-5.538-1.286v1.175c2.444-.832,3.5-.289,3.912.1a.752.752,0,0,1,.228.551v.819a4.536,4.536,0,0,0-2.36-.423,3.114,3.114,0,0,0-1.89.709,2.079,2.079,0,0,0,1.419,3.571,5.545,5.545,0,0,0,1.624-.109l.012-1.085a2.548,2.548,0,0,1-1.783-.248.965.965,0,0,1,.487-1.682,3.308,3.308,0,0,1,1.745.118,3.12,3.12,0,0,1,.745.352V82.81h1.469V78.034a.771.771,0,0,0-.071-.33" transform="translate(-10.128 -4.938)" fill="#0576c4"/>
          <path id="Path_44606" data-name="Path 44606" d="M20.676,76.232H19.349v3.956a1.53,1.53,0,0,1-.121.6,1.921,1.921,0,0,1-1.749,1.067c-1.206,0-1.629-.827-1.629-2.052v-3.57H14.522V80c0,2.266,1.373,2.825,2.519,2.825a2.819,2.819,0,0,0,2.413-1.2h.03l.035,1.053h1.217c-.045-.507-.06-1.093-.06-1.759Z" transform="translate(-0.944 -4.953)" fill="#0576c4"/>
          <path id="Path_44607" data-name="Path 44607" d="M51.639,76.232H50.312v3.956a1.53,1.53,0,0,1-.121.6,1.921,1.921,0,0,1-1.749,1.067c-1.206,0-1.629-.827-1.629-2.052v-3.57H45.485V80c0,2.266,1.373,2.825,2.519,2.825a2.819,2.819,0,0,0,2.413-1.2h.03l.035,1.053H51.7c-.045-.507-.06-1.093-.06-1.759Z" transform="translate(-2.955 -4.953)" fill="#0576c4"/>
          <path id="Path_44608" data-name="Path 44608" d="M99.645,80.916V76.152H98.167v4.031a1.462,1.462,0,0,1-.114.568,1.835,1.835,0,0,1-1.681,1.023c-1.045,0-1.553-.647-1.553-1.978V76.152H93.34V80c0,2.618,1.814,2.9,2.594,2.9a2.923,2.923,0,0,0,2.375-1.081l.031.934h1.373l-.007-.081c-.041-.454-.06-1.011-.06-1.752" transform="translate(-6.065 -4.948)" fill="#0576c4"/>
          <path id="Path_44609" data-name="Path 44609" d="M115.012,80.121a1.734,1.734,0,0,1-3.467,0V76.153H110.06v3.472a5.992,5.992,0,0,0,.051,1.333,2.526,2.526,0,0,0,.549,1.056,3.429,3.429,0,0,0,2.618,1.112,3.726,3.726,0,0,0,1.74-.414,2.968,2.968,0,0,0,1.044-.912,2.411,2.411,0,0,0,.431-1.451v-4.2h-1.481Z" transform="translate(-7.151 -4.948)" fill="#0576c4"/>
          <path id="Path_44610" data-name="Path 44610" d="M146.982,80.121a1.734,1.734,0,0,1-3.467,0V76.153H142.03v3.472a5.992,5.992,0,0,0,.051,1.333,2.525,2.525,0,0,0,.549,1.056,3.429,3.429,0,0,0,2.618,1.112,3.725,3.725,0,0,0,1.74-.414,2.968,2.968,0,0,0,1.043-.912,2.411,2.411,0,0,0,.431-1.451v-4.2h-1.481Z" transform="translate(-9.228 -4.948)" fill="#0576c4"/>
          <rect id="Rectangle_24265" data-name="Rectangle 24265" width="1.481" height="2.051" transform="translate(107.861 68.193)" fill="#0576c4"/>
          <rect id="Rectangle_24266" data-name="Rectangle 24266" width="5.575" height="1.008" transform="translate(80.194 69.27)" fill="#0576c4"/>
          <path id="Path_44611" data-name="Path 44611" d="M36.606,76.372A3.91,3.91,0,0,0,33.988,76v1.173a2.141,2.141,0,0,1,2.17.741,2.34,2.34,0,0,1,.022,2.435,2.277,2.277,0,0,1-2.042,1.157l-1.536-4.5-1.486-.016,1.948,5.815c.165.016.331.026.5.032A4.458,4.458,0,0,0,37.229,81.5c1.188-1.441,1.124-4.131-.624-5.125" transform="translate(-2.022 -4.933)" fill="#0576c4"/>
          <path id="Path_44612" data-name="Path 44612" d="M123.727,76.372a3.91,3.91,0,0,0-2.617-.37v1.173a2.141,2.141,0,0,1,2.17.741,2.34,2.34,0,0,1,.022,2.435,2.277,2.277,0,0,1-2.042,1.157l-1.536-4.5-1.486-.016,1.948,5.815c.165.016.331.026.5.032A4.458,4.458,0,0,0,124.35,81.5c1.188-1.441,1.124-4.131-.624-5.125" transform="translate(-7.683 -4.933)" fill="#0576c4"/>
          <path id="Path_44613" data-name="Path 44613" d="M18.678,73.042H17.489a2.534,2.534,0,0,0,.384,1.578c.44.592,1.226.4,1.857.4.2,0,2.338.016,2.34-.014V74.05H19.132c-.554,0-.453-1.008-.453-1.008" transform="translate(-1.136 -4.746)" fill="#0576c4"/>
          <path id="Path_44614" data-name="Path 44614" d="M129.561,73.042h-1.189a2.534,2.534,0,0,0,.384,1.578c.44.592,1.226.4,1.857.4.2,0,2.338.016,2.34-.014V74.05h-2.939c-.554,0-.453-1.008-.453-1.008" transform="translate(-8.341 -4.746)" fill="#0576c4"/>
          <path id="Path_44615" data-name="Path 44615" d="M103.151,81.064V76.152h-1.335a.237.237,0,0,0-.009.077c-.028.47-.01,2.938-.009,3.187v1.906s.01,1.428,1.242,1.428h1.247v-1.2h-.575a.509.509,0,0,1-.56-.482" transform="translate(-6.614 -4.948)" fill="#0576c4"/>
          <path id="Path_44616" data-name="Path 44616" d="M107.28,81.064V76.152h-1.335a.237.237,0,0,0-.009.077c-.028.47-.01,2.938-.009,3.187v1.906s.01,1.428,1.242,1.428h1.247v-1.2h-.575a.509.509,0,0,1-.56-.482" transform="translate(-6.882 -4.948)" fill="#0576c4"/>
          <path id="Path_44617" data-name="Path 44617" d="M26.383,75.926A5.173,5.173,0,0,0,22.6,77.646l.487.911a.453.453,0,0,1,.05.207v4.043H24.77V78.7a.441.441,0,0,0-.112-.294l-.476-.53a2.563,2.563,0,0,1,1.9-.756,1.958,1.958,0,0,1,1.653.817.436.436,0,0,1,.077.249v4.615h1.612V77.963a.418.418,0,0,0-.033-.166,3.133,3.133,0,0,0-3.006-1.872" transform="translate(-1.469 -4.933)" fill="#0576c4"/>
          <path id="Path_44618" data-name="Path 44618" d="M79.631,75.926a5.172,5.172,0,0,0-3.778,1.719l.486.911a.442.442,0,0,1,.051.207v4.043h1.629V78.7a.441.441,0,0,0-.112-.294l-.476-.53a2.561,2.561,0,0,1,1.9-.756,1.958,1.958,0,0,1,1.653.817.43.43,0,0,1,.077.249v4.615h1.612V77.963a.418.418,0,0,0-.033-.166,3.134,3.134,0,0,0-3.007-1.872" transform="translate(-4.929 -4.933)" fill="#0576c4"/>
          <path id="Path_44619" data-name="Path 44619" d="M88.26,75.926a5.172,5.172,0,0,0-3.778,1.719l.486.911a.442.442,0,0,1,.051.207v4.043h1.629V78.7a.441.441,0,0,0-.112-.294l-.476-.53a2.561,2.561,0,0,1,1.9-.756,1.958,1.958,0,0,1,1.653.817.43.43,0,0,1,.077.249v4.615H91.3V77.963a.418.418,0,0,0-.033-.166,3.134,3.134,0,0,0-3.007-1.872" transform="translate(-5.489 -4.933)" fill="#0576c4"/>
          <path id="Path_44620" data-name="Path 44620" d="M129.863,78.8l-.29-.067a4.143,4.143,0,0,1-1.022-.322.55.55,0,0,1-.281-.5c0-.437.388-.659,1.155-.659a4.38,4.38,0,0,1,1.3.22,6.81,6.81,0,0,0,.727.211c.168,0,.237-.075.237-.26v-.5a.652.652,0,0,0-.057-.322.611.611,0,0,0-.261-.2,4.347,4.347,0,0,0-1.919-.383,3.138,3.138,0,0,0-2.031.548,1.841,1.841,0,0,0-.646,1.5,1.639,1.639,0,0,0,.471,1.23,3.051,3.051,0,0,0,1.553.669l.25.049a3.477,3.477,0,0,1,1.13.349.63.63,0,0,1,.3.548c0,.451-.375.679-1.115.679a4.877,4.877,0,0,1-1.071-.113,6.317,6.317,0,0,1-.8-.228,1.261,1.261,0,0,0-.376-.109c-.167,0-.236.075-.236.26v.546a.674.674,0,0,0,.058.318.586.586,0,0,0,.261.2,4.421,4.421,0,0,0,1.968.353,3.333,3.333,0,0,0,2.131-.563,1.858,1.858,0,0,0,.676-1.507,1.611,1.611,0,0,0-.481-1.244,3.658,3.658,0,0,0-1.628-.714" transform="translate(-8.238 -4.94)" fill="#0576c4"/>
          <path id="Path_44621" data-name="Path 44621" d="M138.229,84.737a5.1,5.1,0,0,1-1.259-.671.611.611,0,0,0-.856-.034,1.8,1.8,0,0,1-2.468.57v1.025s.2.3,1.376.3a2.324,2.324,0,0,0,1.793-.84l1.4.84h1.511V83.763h-1.511Z" transform="translate(-8.684 -5.442)" fill="#0576c4"/>
        </g>
      </g>
      <g id="Group_10982" data-name="Group 10982" transform="translate(4.686 1.231)">
        <g id="Group_10981" data-name="Group 10981" clip-path="url(#clip-path-2)">
          <rect id="Rectangle_24268" data-name="Rectangle 24268" width="70.093" height="69.229" transform="matrix(0.494, -0.87, 0.87, 0.494, -22.486, 39.516)" fill="url(#linear-gradient)"/>
        </g>
      </g>
      <g id="Group_10984" data-name="Group 10984" transform="translate(4.338 2.33)">
        <g id="Group_10983" data-name="Group 10983" clip-path="url(#clip-path-3)">
          <rect id="Rectangle_24269" data-name="Rectangle 24269" width="74.038" height="74.027" transform="translate(-25.923 21.732) rotate(-40.045)" fill="url(#linear-gradient-2)"/>
        </g>
      </g>
      <g id="Group_10986" data-name="Group 10986" transform="translate(109.091 17.008)">
        <g id="Group_10985" data-name="Group 10985" clip-path="url(#clip-path-4)">
          <rect id="Rectangle_24270" data-name="Rectangle 24270" width="49.27" height="52.031" transform="matrix(0.274, -0.962, 0.962, 0.274, -10.271, 36.056)" fill="url(#linear-gradient-3)"/>
        </g>
      </g>
      <g id="Group_10988" data-name="Group 10988" transform="translate(3.188 1.702)">
        <g id="Group_10987" data-name="Group 10987" clip-path="url(#clip-path-5)">
          <rect id="Rectangle_24271" data-name="Rectangle 24271" width="51.454" height="52.501" transform="translate(-0.065 -0.001)" fill="url(#linear-gradient-4)"/>
        </g>
      </g>
      <g id="Group_10990" data-name="Group 10990" transform="translate(96.55 2.972)">
        <g id="Group_10989" data-name="Group 10989" clip-path="url(#clip-path-6)">
          <rect id="Rectangle_24272" data-name="Rectangle 24272" width="66.414" height="67.866" transform="translate(-21.1 32) rotate(-56.6)" fill="url(#linear-gradient-5)"/>
        </g>
      </g>
      <g id="Group_10992" data-name="Group 10992" transform="translate(0 0)">
        <g id="Group_10991" data-name="Group 10991" clip-path="url(#clip-path)">
          <path id="Path_44627" data-name="Path 44627" d="M159.079,28.471a27.286,27.286,0,0,1-42.406,22.715q.433.011.865.011A40.244,40.244,0,0,0,157.075,18.19a27.2,27.2,0,0,1,2,10.281" transform="translate(-7.581 -1.182)" fill="#1a478e"/>
          <path id="Path_44628" data-name="Path 44628" d="M76.2,43.466V2.024a.5.5,0,0,0-.5-.5H66.741a.5.5,0,0,0-.5.5V53.432a.5.5,0,0,0,.5.5H99.727a.505.505,0,0,0,.5-.5V44.475a.5.5,0,0,0-.5-.5H76.707a.505.505,0,0,1-.5-.5" transform="translate(-4.304 -0.099)" fill="#1a478e"/>
          <path id="Path_44629" data-name="Path 44629" d="M54.309,23.475a.917.917,0,0,0-.905-.8H35.438a.911.911,0,0,0-.7.325L27.9,31.149a.912.912,0,0,0,.7,1.5H42.7a.914.914,0,0,1,.842,1.266,17.559,17.559,0,1,1-3.2-18.353.911.911,0,0,0,1.369-.01l5.2-6.033a.906.906,0,0,0-.026-1.22,27.2,27.2,0,1,0,7.432,15.176" transform="translate(0 0)" fill="#1a478e"/>
          <path id="Path_44630" data-name="Path 44630" d="M148.26,30.161a17.343,17.343,0,0,0,.236-2.872,17.549,17.549,0,1,0-18.16,17.538,37.383,37.383,0,0,1-13.643,2.566,36.8,36.8,0,0,1-4.483-.27,27.286,27.286,0,1,1,41.919-34.23,37.285,37.285,0,0,1-5.868,17.269" transform="translate(-6.735 0)" fill="#008ae5"/>
          <path id="Path_44631" data-name="Path 44631" d="M159.079,28.471a27.286,27.286,0,0,1-42.406,22.715q.433.011.865.011A40.244,40.244,0,0,0,157.075,18.19a27.2,27.2,0,0,1,2,10.281" transform="translate(-7.581 -1.182)" fill="#fff000"/>
        </g>
      </g>
      <g id="Group_10994" data-name="Group 10994" transform="translate(62.115 1.42)">
        <g id="Group_10993" data-name="Group 10993" clip-path="url(#clip-path-8)">
          <rect id="Rectangle_24274" data-name="Rectangle 24274" width="35.08" height="54.045" transform="translate(0 0)" fill="url(#linear-gradient-6)"/>
        </g>
      </g>
      <g id="Group_10996" data-name="Group 10996" transform="translate(0 0)">
        <g id="Group_10995" data-name="Group 10995" clip-path="url(#clip-path)">
          <path id="Path_44633" data-name="Path 44633" d="M100.233,44.476v8.955a.506.506,0,0,1-.506.506H66.74a.5.5,0,0,1-.5-.506V2.025a.5.5,0,0,1,.5-.506H75.7a.506.506,0,0,1,.5.506v41.44a.5.5,0,0,0,.5.5H99.727a.506.506,0,0,1,.506.506" transform="translate(-4.304 -0.099)" fill="#008ae5"/>
          <path id="Path_44634" data-name="Path 44634" d="M54.576,27.29a27.317,27.317,0,0,1-20.5,26.434c-.286.072-.571.14-.86.207-.008,0-.013,0-.022,0a27.33,27.33,0,0,1-5.906.64c-.132,0-.266,0-.4,0-.3,0-.6-.013-.9-.024A27.3,27.3,0,1,1,45.521,7c.467.415.92.849,1.354,1.3a.929.929,0,0,1,.1.129.827.827,0,0,1,.139.374v.006a.512.512,0,0,1,.008.091.933.933,0,0,1-.225.621l-4.674,5.427-.525.608a.732.732,0,0,1-.194.165.817.817,0,0,1-.31.129h0a.794.794,0,0,1-.239.017.452.452,0,0,1-.123-.017.941.941,0,0,1-.5-.283c-.239-.268-.483-.525-.744-.774-.006,0-.006,0-.008-.008-.058-.06-.116-.118-.173-.173H39.4a16.778,16.778,0,0,0-1.376-1.184A17.423,17.423,0,0,0,27.744,9.741c0,.006-.011.006-.017,0-.146,0-.29,0-.439,0A17.552,17.552,0,0,0,24.67,44.646h0c.377.057.75.1,1.132.135a.112.112,0,0,1,.03,0,18.457,18.457,0,0,0,2.359.03c.052-.006.11-.008.165-.011a17.075,17.075,0,0,0,3.024-.451A17.615,17.615,0,0,0,43.538,33.914a1.084,1.084,0,0,0,.055-.178.91.91,0,0,0-.9-1.088H28.6a.912.912,0,0,1-.7-1.5L34.743,23a.9.9,0,0,1,.695-.324H53.4a.9.9,0,0,1,.727.367.914.914,0,0,1,.179.429c0,.01,0,.024.006.038v.008c.03.206.058.414.079.62a27.112,27.112,0,0,1,.181,3.145" transform="translate(0 0)" fill="#008ae5"/>
        </g>
      </g>
    </g>
  </g>
</svg>
