<svg xmlns="http://www.w3.org/2000/svg" width="16.653" height="14.797" viewBox="0 0 16.653 14.797"><defs><style>.a{fill:#043655;}</style></defs><g transform="translate(-5 -17.379)"><g transform="translate(5 17.379)"><path class="a" d="M4.839,116.874a10.373,10.373,0,0,0,1.348-.087V112.1a10.38,10.38,0,0,0-1.348-.086c-2.672,0-4.838.982-4.838,2.194v.476C0,115.891,2.167,116.874,4.839,116.874Z" transform="translate(-0.001 -108.292)"/><path class="a" d="M4.839,216.294a10.386,10.386,0,0,0,1.348-.086v-1.375a10.381,10.381,0,0,1-1.348.087c-2.333,0-4.279-.749-4.737-1.745a1.07,1.07,0,0,0-.1.449v.476C0,215.311,2.167,216.294,4.839,216.294Z" transform="translate(-0.001 -205.262)"/><path class="a" d="M6.187,274.023v-.107A10.381,10.381,0,0,1,4.838,274c-2.333,0-4.279-.749-4.737-1.745a1.07,1.07,0,0,0-.1.449v.476c0,1.212,2.166,2.195,4.838,2.195a10.273,10.273,0,0,0,1.529-.112,1.731,1.731,0,0,1-.181-.767Z" transform="translate(0 -261.896)"/><path class="a" d="M173.077,22.379c-2.672,0-4.838.982-4.838,2.194v.476c0,1.212,2.166,2.194,4.838,2.194s4.838-.982,4.838-2.194v-.476C177.916,23.361,175.75,22.379,173.077,22.379Z" transform="translate(-161.263 -22.379)"/><path class="a" d="M173.077,125.289c-2.333,0-4.279-.749-4.737-1.745a1.07,1.07,0,0,0-.1.449v.476c0,1.212,2.166,2.194,4.838,2.194s4.838-.982,4.838-2.194v-.476a1.07,1.07,0,0,0-.1-.449C177.357,124.54,175.41,125.289,173.077,125.289Z" transform="translate(-161.263 -119.349)"/><path class="a" d="M173.077,184.373c-2.333,0-4.279-.749-4.737-1.745a1.07,1.07,0,0,0-.1.449v.476c0,1.212,2.166,2.195,4.838,2.195s4.838-.982,4.838-2.195v-.476a1.07,1.07,0,0,0-.1-.449C177.357,183.624,175.41,184.373,173.077,184.373Z" transform="translate(-161.263 -175.983)"/><path class="a" d="M173.077,246.646c-2.333,0-4.279-.749-4.737-1.745a1.07,1.07,0,0,0-.1.449v.476c0,1.212,2.166,2.194,4.838,2.194s4.838-.982,4.838-2.194v-.476a1.07,1.07,0,0,0-.1-.449C177.357,245.9,175.41,246.646,173.077,246.646Z" transform="translate(-161.263 -235.674)"/><path class="a" d="M173.077,305.729c-2.333,0-4.279-.749-4.737-1.745a1.071,1.071,0,0,0-.1.449v.476c0,1.212,2.166,2.194,4.838,2.194s4.838-.982,4.838-2.194v-.476a1.07,1.07,0,0,0-.1-.449C177.357,304.98,175.41,305.729,173.077,305.729Z" transform="translate(-161.263 -292.307)"/></g></g></svg>