<svg xmlns="http://www.w3.org/2000/svg" xmlns:xlink="http://www.w3.org/1999/xlink" width="30.27" height="30.27" viewBox="0 0 30.27 30.27">
  <defs>
    <clipPath id="clip-path">
      <rect id="Rectangle_34490" data-name="Rectangle 34490" width="30.27" height="30.27" fill="#faa300"/>
    </clipPath>
  </defs>
  <g id="Group_23316" data-name="Group 23316" transform="translate(0 0)">
    <g id="Group_22981" data-name="Group 22981" transform="translate(0 0)" clip-path="url(#clip-path)">
      <path id="Path_54470" data-name="Path 54470" d="M24.017,0H2.486V1.774H4.922V10.6a8.328,8.328,0,0,0,16.656-.007V1.774h2.438Z" transform="translate(1.884 -0.001)" fill="#faa300"/>
      <path id="Path_54471" data-name="Path 54471" d="M17.967,17.612a1.774,1.774,0,0,0-1.774-1.774H14.8V11.581a10.07,10.07,0,0,1-2.6.339l-.142,0A9.937,9.937,0,0,1,9.6,11.579v4.259H8.209a1.774,1.774,0,0,0-1.774,1.774v2.113H3.873V21.5H20.529V19.724H17.967Z" transform="translate(2.935 8.773)" fill="#faa300"/>
      <path id="Path_54472" data-name="Path 54472" d="M14.91,2.018V3.792h3.261v3.99a4.441,4.441,0,0,1-3.746,4.38c-.091.281-.193.559-.309.833a10.212,10.212,0,0,1-.487.995h.107a6.215,6.215,0,0,0,6.208-6.208V2.018Z" transform="translate(10.327 1.529)" fill="#faa300"/>
      <path id="Path_54473" data-name="Path 54473" d="M5.525,12.164A4.442,4.442,0,0,1,1.774,7.782V3.792H5.034V2.018H0V7.782A6.214,6.214,0,0,0,6.208,13.99h.118a9.84,9.84,0,0,1-.506-1.032c-.111-.262-.207-.527-.3-.794" transform="translate(0 1.529)" fill="#faa300"/>
    </g>
  </g>
</svg>
