<svg xmlns="http://www.w3.org/2000/svg" width="11.697" height="15.596" viewBox="0 0 11.697 15.596"><defs><style>.a{fill:#043655;}</style></defs><g transform="translate(-64)"><g transform="translate(64)"><path class="a" d="M75.047,3.137V1.769A1.3,1.3,0,0,0,75.7.65V.325A.325.325,0,0,0,75.372,0H64.325A.325.325,0,0,0,64,.325V.65a1.3,1.3,0,0,0,.65,1.119V3.137a4.555,4.555,0,0,0,1.506,3.381L67.578,7.8l-1.422,1.28a4.555,4.555,0,0,0-1.506,3.381v1.368A1.3,1.3,0,0,0,64,14.946v.325a.325.325,0,0,0,.325.325H75.372a.325.325,0,0,0,.325-.325v-.325a1.3,1.3,0,0,0-.65-1.119V12.459a4.555,4.555,0,0,0-1.506-3.381L72.12,7.8l1.422-1.28A4.555,4.555,0,0,0,75.047,3.137ZM72.672,5.553,70.714,7.315a.65.65,0,0,0,0,.966l1.958,1.763a3.255,3.255,0,0,1,1.076,2.415v1.188h-.812L70.108,9.878a.336.336,0,0,0-.52,0l-2.827,3.769H65.95V12.459a3.255,3.255,0,0,1,1.076-2.415l1.958-1.763a.65.65,0,0,0,0-.966L67.025,5.553A3.255,3.255,0,0,1,65.95,3.137V1.95h7.8V3.137A3.255,3.255,0,0,1,72.672,5.553Z" transform="translate(-64)"/><path class="a" d="M176.608,149.333h-4.479a.325.325,0,0,0-.241.543l2.262,2.087a.325.325,0,0,0,.436,0l2.262-2.087a.325.325,0,0,0-.241-.543Z" transform="translate(-168.52 -144.784)"/></g></g></svg>