<svg id="Group_4799" data-name="Group 4799" xmlns="http://www.w3.org/2000/svg" width="26.023" height="26.024" viewBox="0 0 26.023 26.024">
  <path id="Path_4484" data-name="Path 4484" d="M352.13,13.669a13.037,13.037,0,1,1-4.2-9.575,13.012,13.012,0,0,1,4.2,9.575" transform="translate(-326.107 -0.657)" fill="#f0cd00"/>
  <path id="Path_4485" data-name="Path 4485" d="M352.647,13.674a12.536,12.536,0,1,1-12.527-13,13.012,13.012,0,0,1,12.527,13" transform="translate(-326.624 -0.663)" fill="#ffde50"/>
  <path id="Path_4486" data-name="Path 4486" d="M348.882,5.048,330.5,23.433a13.125,13.125,0,0,1-1.648-2.223L346.66,3.4a13.008,13.008,0,0,1,2.222,1.648" transform="translate(-327.062 -1.611)" fill="#ffea94"/>
  <path id="Path_4487" data-name="Path 4487" d="M353.881,11.559,337.009,28.43a13.012,13.012,0,0,1-3.294-1.893L351.989,8.264a13,13,0,0,1,1.892,3.3" transform="translate(-328.755 -3.304)" fill="#ffea94"/>
  <path id="Path_4488" data-name="Path 4488" d="M350.778,15.218a10.111,10.111,0,0,1-20.221.125c0-.041,0-.083,0-.124A10.111,10.111,0,0,1,340.667,5.108h.125a10.065,10.065,0,0,1,5.7,1.844,10.2,10.2,0,0,1,2.785,2.963,10.048,10.048,0,0,1,1.5,5.3" transform="translate(-327.656 -2.207)" fill="#faa300"/>
  <path id="Path_4489" data-name="Path 4489" d="M347.816,8.069l-14.3,14.3a10.072,10.072,0,0,1-2.961-7.024c0-.041,0-.082,0-.124A10.111,10.111,0,0,1,340.667,5.108h.125a10.105,10.105,0,0,1,7.025,2.959" transform="translate(-327.656 -2.207)" fill="#ffbd00"/>
  <path id="Path_4490" data-name="Path 4490" d="M355.871,15.218A10.111,10.111,0,0,1,345.76,25.328q-.287,0-.57-.016a10.111,10.111,0,0,0,0-20.19c.189-.01.379-.016.57-.016a10.111,10.111,0,0,1,10.111,10.111" transform="translate(-332.748 -2.206)" fill="#f68e00"/>
  <text id="I" transform="translate(6.884 16.556)" fill="#f68e00" font-size="14" font-family="SegoeUI-Semibold, Segoe UI" font-weight="600"><tspan x="0" y="0">I</tspan></text>
  <text id="I-2" data-name="I" transform="translate(7.905 16.289)" fill="#ffea94" font-size="14" font-family="SegoeUI-Semibold, Segoe UI" font-weight="600"><tspan x="0" y="0">I</tspan></text>
</svg>
