<svg xmlns="http://www.w3.org/2000/svg" width="38.041" height="38.04" viewBox="0 0 38.041 38.04">
  <g id="Group_4320" data-name="Group 4320" transform="translate(0 0)">
    <path id="Path_3959" data-name="Path 3959" d="M392.708,571.658A10.508,10.508,0,1,1,382.2,582.167a10.509,10.509,0,0,1,10.508-10.509" transform="translate(-365.176 -554.634)" fill="#ffd54f"/>
    <path id="Path_3960" data-name="Path 3960" d="M406.441,583.5a10.511,10.511,0,0,1-18.055,7.317,10.511,10.511,0,0,0,12.466-16.6,10.5,10.5,0,0,1,5.589,9.287" transform="translate(-368.401 -555.964)" fill="#ffca28"/>
    <path id="Path_3961" data-name="Path 3961" d="M395.568,577.145a7.881,7.881,0,1,1-7.882,7.882,7.882,7.882,0,0,1,7.882-7.882" transform="translate(-368.036 -557.494)" fill="#ffb74d"/>
    <path id="Path_3962" data-name="Path 3962" d="M399.034,592.263a7.882,7.882,0,1,1-4.965-14.817,7.883,7.883,0,0,0,3.468,14.961,7.484,7.484,0,0,0,1.5-.145" transform="translate(-368.034 -557.651)" fill="#ffa726"/>
    <path id="Path_3963" data-name="Path 3963" d="M357.152,536.1a10.508,10.508,0,1,1-10.508,10.508A10.508,10.508,0,0,1,357.152,536.1" transform="translate(-346.644 -536.102)" fill="#ffd54f"/>
    <path id="Path_3964" data-name="Path 3964" d="M370.884,547.94a10.511,10.511,0,0,1-18.055,7.317,10.511,10.511,0,0,0,12.465-16.6,10.5,10.5,0,0,1,5.59,9.287" transform="translate(-349.868 -537.431)" fill="#ffca28"/>
    <path id="Path_3965" data-name="Path 3965" d="M360.012,541.588a7.882,7.882,0,1,1-7.882,7.882,7.882,7.882,0,0,1,7.882-7.882" transform="translate(-349.503 -538.961)" fill="#ffb74d"/>
    <path id="Path_3966" data-name="Path 3966" d="M363.478,556.707a7.882,7.882,0,1,1-4.964-14.817,7.883,7.883,0,0,0,3.468,14.961,7.486,7.486,0,0,0,1.5-.145" transform="translate(-349.502 -539.119)" fill="#ffa726"/>
    <path id="Path_3967" data-name="Path 3967" d="M401.288,586.516A1.314,1.314,0,1,1,402.6,585.2a.656.656,0,1,0,1.313,0,2.623,2.623,0,0,0-1.97-2.533v-.75a.656.656,0,1,0-1.313,0v.75a2.622,2.622,0,0,0,.657,5.161,1.314,1.314,0,1,1-1.314,1.314.656.656,0,1,0-1.313,0,2.623,2.623,0,0,0,1.97,2.533v.75a.656.656,0,1,0,1.313,0v-.75a2.622,2.622,0,0,0-.657-5.161" transform="translate(-373.756 -559.64)" fill="#eee"/>
    <path id="Path_3968" data-name="Path 3968" d="M365.732,550.96a1.314,1.314,0,1,1,1.314-1.313.656.656,0,0,0,1.313,0,2.623,2.623,0,0,0-1.97-2.533v-.75a.656.656,0,0,0-1.313,0v.75a2.621,2.621,0,0,0,.657,5.16,1.314,1.314,0,1,1-1.314,1.314.656.656,0,1,0-1.313,0,2.624,2.624,0,0,0,1.97,2.533v.75a.656.656,0,1,0,1.313,0v-.75a2.622,2.622,0,0,0-.657-5.161" transform="translate(-355.223 -541.108)" fill="#eee"/>
    <path id="Path_3969" data-name="Path 3969" d="M362.474,596.658H360.5a5.919,5.919,0,0,1-5.911-5.911v-.385l1.506,1.507a.657.657,0,0,0,.934-.923l-.006-.006-2.628-2.628a.655.655,0,0,0-.928,0l-2.628,2.628a.657.657,0,0,0,.928.929l1.506-1.507v.385a7.232,7.232,0,0,0,7.224,7.224h1.97a.656.656,0,0,0,0-1.313" transform="translate(-348.734 -563.214)" fill="#757575"/>
    <path id="Path_3970" data-name="Path 3970" d="M408.206,548.955a.657.657,0,0,0-.928,0l-1.506,1.506v-.385a7.231,7.231,0,0,0-7.224-7.224h-1.97a.656.656,0,0,0,0,1.313h1.97a5.918,5.918,0,0,1,5.911,5.911v.385l-1.506-1.506a.656.656,0,0,0-.928.928l2.628,2.628a.654.654,0,0,0,.928,0l2.628-2.628a.657.657,0,0,0,0-.928" transform="translate(-372.328 -539.62)" fill="#757575"/>
  </g>
</svg>
