<svg xmlns="http://www.w3.org/2000/svg" width="15.636" height="13.333" viewBox="0 0 15.636 13.333"><defs><style>.a{fill:#043655;}</style></defs><g transform="translate(-3.05 -6.449)"><path class="a" d="M18.4,6.449,15.145,6.6a.269.269,0,0,0-.178.457l.654.654-6.9,5.112L5.657,9.054a.269.269,0,0,0-.387-.032L3.141,10.9a.269.269,0,0,0-.091.2v2.153a.269.269,0,0,0,.447.2l1.921-1.7,3.038,3.759a.269.269,0,0,0,.371.043L17.19,9.288l.883.883a.269.269,0,0,0,.46-.178l.153-3.272a.269.269,0,0,0-.283-.272Z" transform="translate(0)"/><rect class="a" width="2.422" height="5.381" rx="1" transform="translate(3.306 14.4)"/><rect class="a" width="2.422" height="3.229" rx="1" transform="translate(7.611 16.553)"/><rect class="a" width="2.422" height="5.381" rx="1" transform="translate(11.916 14.4)"/><rect class="a" width="2.422" height="8.341" rx="1" transform="translate(15.952 11.44)"/></g></svg>