<svg xmlns="http://www.w3.org/2000/svg" width="21.346" height="21.346" viewBox="0 0 21.346 21.346"><defs><style>.a{fill:#043655;}</style></defs><path class="a" d="M10.342,5.171a5.171,5.171,0,1,0-6.31,5.044v8.493a1.139,1.139,0,0,0,2.277,0v-.365H7.842a.754.754,0,1,0,0-1.505H7.812a.265.265,0,0,1-.264-.264v-.421a.265.265,0,0,1,.264-.264h.031a.754.754,0,1,0,0-1.505H6.31V10.215A5.18,5.18,0,0,0,10.342,5.171ZM5.171,8.081a2.911,2.911,0,1,1,2.911-2.91A2.911,2.911,0,0,1,5.171,8.081Z" transform="translate(0 7.313) rotate(-45)"/></svg>