<svg xmlns="http://www.w3.org/2000/svg" width="217" height="32.129" viewBox="0 0 217 32.129">
  <g id="Group_22804" data-name="Group 22804" transform="translate(-79 -276.603)">
    <g id="Group_22689" data-name="Group 22689" transform="translate(34 -48.731)">
      <g id="Group_22682" data-name="Group 22682" transform="translate(45.001 332.713)">
        <path id="Path_53790" data-name="Path 53790" d="M244.364,246.864l3.691,7.479a.417.417,0,0,0,.314.228l8.254,1.2a.417.417,0,0,1,.231.711l-5.973,5.822a.417.417,0,0,0-.12.369l1.41,8.221a.417.417,0,0,1-.6.44l-7.383-3.881a.417.417,0,0,0-.388,0l-7.383,3.881a.417.417,0,0,1-.6-.44l1.41-8.221a.417.417,0,0,0-.12-.369l-5.973-5.822a.417.417,0,0,1,.231-.711l8.254-1.2a.417.417,0,0,0,.314-.228l3.691-7.479A.417.417,0,0,1,244.364,246.864Z" transform="translate(-231 -246.632)" fill="#f3cc30"/>
        <g id="Group_22676" data-name="Group 22676" transform="translate(1.681 1.96)">
          <path id="Path_53791" data-name="Path 53791" d="M285,296.423l-3.289,6.371a1.1,1.1,0,0,1-.878.591l-7.142.652,7.546.353a1.1,1.1,0,0,0,1.084-.718Z" transform="translate(-273.692 -296.423)" fill="#f7db5e"/>
        </g>
        <path id="Path_53792" data-name="Path 53792" d="M353.171,483.171l-.162.946a.417.417,0,0,0,.6.439L361,480.676a.417.417,0,0,1,.388,0l7.383,3.881a.417.417,0,0,0,.6-.439l-1.41-8.221a.417.417,0,0,1,.12-.369l5.973-5.822a.417.417,0,0,0-.231-.711l-2.765-.4C366.587,476.618,359.74,480.843,353.171,483.171Z" transform="translate(-348.2 -459.855)" fill="#edbd31"/>
      </g>
      <g id="Group_22686" data-name="Group 22686" transform="translate(236.02 332.713)">
        <path id="Path_53790-2" data-name="Path 53790" d="M244.364,246.864l3.691,7.479a.417.417,0,0,0,.314.228l8.254,1.2a.417.417,0,0,1,.231.711l-5.973,5.822a.417.417,0,0,0-.12.369l1.41,8.221a.417.417,0,0,1-.6.44l-7.383-3.881a.417.417,0,0,0-.388,0l-7.383,3.881a.417.417,0,0,1-.6-.44l1.41-8.221a.417.417,0,0,0-.12-.369l-5.973-5.822a.417.417,0,0,1,.231-.711l8.254-1.2a.417.417,0,0,0,.314-.228l3.691-7.479A.417.417,0,0,1,244.364,246.864Z" transform="translate(-231 -246.632)" fill="#f3cc30"/>
        <g id="Group_22676-2" data-name="Group 22676" transform="translate(1.681 1.96)">
          <path id="Path_53791-2" data-name="Path 53791" d="M285,296.423l-3.289,6.371a1.1,1.1,0,0,1-.878.591l-7.142.652,7.546.353a1.1,1.1,0,0,0,1.084-.718Z" transform="translate(-273.692 -296.423)" fill="#f7db5e"/>
        </g>
        <path id="Path_53792-2" data-name="Path 53792" d="M353.171,483.171l-.162.946a.417.417,0,0,0,.6.439L361,480.676a.417.417,0,0,1,.388,0l7.383,3.881a.417.417,0,0,0,.6-.439l-1.41-8.221a.417.417,0,0,1,.12-.369l5.973-5.822a.417.417,0,0,0-.231-.711l-2.765-.4C366.587,476.618,359.74,480.843,353.171,483.171Z" transform="translate(-348.2 -459.855)" fill="#edbd31"/>
      </g>
      <g id="Group_22683" data-name="Group 22683" transform="translate(88.711 328.697)">
        <path id="Path_53790-3" data-name="Path 53790" d="M246.533,246.9l4.29,8.693a.485.485,0,0,0,.365.265l9.593,1.394a.485.485,0,0,1,.269.827l-6.942,6.767a.484.484,0,0,0-.139.429l1.639,9.555a.485.485,0,0,1-.7.511l-8.581-4.511a.485.485,0,0,0-.451,0l-8.581,4.511a.485.485,0,0,1-.7-.511l1.639-9.555a.485.485,0,0,0-.139-.429l-6.942-6.767a.485.485,0,0,1,.269-.827l9.593-1.394a.485.485,0,0,0,.365-.265l4.29-8.693A.485.485,0,0,1,246.533,246.9Z" transform="translate(-231 -246.632)" fill="#f3cc30"/>
        <g id="Group_22676-3" data-name="Group 22676" transform="translate(1.953 2.278)">
          <path id="Path_53791-3" data-name="Path 53791" d="M286.837,296.423l-3.823,7.405a1.28,1.28,0,0,1-1.021.687l-8.3.758,8.77.41a1.28,1.28,0,0,0,1.26-.835Z" transform="translate(-273.692 -296.423)" fill="#f7db5e"/>
        </g>
        <path id="Path_53792-3" data-name="Path 53792" d="M353.2,485.537l-.189,1.1a.485.485,0,0,0,.7.511l8.581-4.511a.485.485,0,0,1,.451,0l8.581,4.511a.485.485,0,0,0,.7-.511l-1.639-9.555a.485.485,0,0,1,.139-.429l6.942-6.767a.485.485,0,0,0-.269-.827l-3.213-.467C368.791,477.92,360.833,482.83,353.2,485.537Z" transform="translate(-347.42 -458.438)" fill="#edbd31"/>
      </g>
      <g id="Group_22685" data-name="Group 22685" transform="translate(188.094 328.697)">
        <path id="Path_53790-4" data-name="Path 53790" d="M246.533,246.9l4.29,8.693a.485.485,0,0,0,.365.265l9.593,1.394a.485.485,0,0,1,.269.827l-6.942,6.767a.484.484,0,0,0-.139.429l1.639,9.555a.485.485,0,0,1-.7.511l-8.581-4.511a.485.485,0,0,0-.451,0l-8.581,4.511a.485.485,0,0,1-.7-.511l1.639-9.555a.485.485,0,0,0-.139-.429l-6.942-6.767a.485.485,0,0,1,.269-.827l9.593-1.394a.485.485,0,0,0,.365-.265l4.29-8.693A.485.485,0,0,1,246.533,246.9Z" transform="translate(-231 -246.632)" fill="#f3cc30"/>
        <g id="Group_22676-4" data-name="Group 22676" transform="translate(1.953 2.278)">
          <path id="Path_53791-4" data-name="Path 53791" d="M286.837,296.423l-3.823,7.405a1.28,1.28,0,0,1-1.021.687l-8.3.758,8.77.41a1.28,1.28,0,0,0,1.26-.835Z" transform="translate(-273.692 -296.423)" fill="#f7db5e"/>
        </g>
        <path id="Path_53792-4" data-name="Path 53792" d="M353.2,485.537l-.189,1.1a.485.485,0,0,0,.7.511l8.581-4.511a.485.485,0,0,1,.451,0l8.581,4.511a.485.485,0,0,0,.7-.511l-1.639-9.555a.485.485,0,0,1,.139-.429l6.942-6.767a.485.485,0,0,0-.269-.827l-3.213-.467C368.791,477.92,360.833,482.83,353.2,485.537Z" transform="translate(-347.42 -458.438)" fill="#edbd31"/>
      </g>
      <g id="Group_22684" data-name="Group 22684" transform="translate(136.637 325.334)">
        <path id="Path_53790-5" data-name="Path 53790" d="M248.349,246.934l4.792,9.709a.541.541,0,0,0,.407.3l10.715,1.557a.541.541,0,0,1,.3.923l-7.753,7.558a.541.541,0,0,0-.156.479l1.83,10.671a.541.541,0,0,1-.785.571l-9.584-5.038a.541.541,0,0,0-.5,0l-9.584,5.038a.541.541,0,0,1-.785-.571l1.83-10.671a.541.541,0,0,0-.156-.479l-7.753-7.558a.541.541,0,0,1,.3-.923l10.715-1.557a.541.541,0,0,0,.408-.3l4.792-9.709A.541.541,0,0,1,248.349,246.934Z" transform="translate(-231 -246.632)" fill="#f3cc30"/>
        <g id="Group_22676-5" data-name="Group 22676" transform="translate(2.182 2.544)">
          <path id="Path_53791-5" data-name="Path 53791" d="M288.374,296.423l-4.27,8.271a1.43,1.43,0,0,1-1.14.768l-9.271.846,9.8.458a1.429,1.429,0,0,0,1.407-.932Z" transform="translate(-273.692 -296.423)" fill="#f7db5e"/>
        </g>
        <path id="Path_53792-5" data-name="Path 53792" d="M353.221,487.518l-.211,1.228a.541.541,0,0,0,.785.571l9.584-5.038a.542.542,0,0,1,.5,0l9.584,5.038a.541.541,0,0,0,.785-.571l-1.83-10.671a.542.542,0,0,1,.156-.479l7.753-7.557a.541.541,0,0,0-.3-.923l-3.589-.521C370.637,479.01,361.749,484.495,353.221,487.518Z" transform="translate(-346.768 -457.251)" fill="#edbd31"/>
      </g>
    </g>
  </g>
</svg>
