<svg xmlns="http://www.w3.org/2000/svg" width="13.858" height="15.506" viewBox="0 0 13.858 15.506"><defs><style>.a{fill:#043655;fill-rule:evenodd;}</style></defs><path class="a" d="M34.022,13.037v.773a1.654,1.654,0,0,1-.846,1.465,1.654,1.654,0,0,1-1.691,0L28.05,13.29a1.654,1.654,0,0,1-.846-1.465V1.691A1.693,1.693,0,0,1,28.9,0h7.568a1.693,1.693,0,0,1,1.691,1.691V3.827a.555.555,0,1,1-1.11,0V1.691a.581.581,0,0,0-.581-.581H29.831l3.345,1.932a1.654,1.654,0,0,1,.846,1.464v7.42h2.441a.581.581,0,0,0,.581-.581V9.473a.555.555,0,1,1,1.11,0v1.873a1.693,1.693,0,0,1-1.691,1.691Zm5.145-5.963-.611.611a.555.555,0,0,0,.785.785L40.9,6.911a.555.555,0,0,0,0-.785L39.341,4.567a.555.555,0,1,0-.785.785l.611.611h-4.1a.555.555,0,0,0,0,1.11h4.1Z" transform="translate(-27.204)"/></svg>