<svg xmlns="http://www.w3.org/2000/svg" xmlns:xlink="http://www.w3.org/1999/xlink" width="32.77" height="37.432" viewBox="0 0 32.77 37.432">
  <defs>
    <clipPath id="clip-path">
      <rect id="Rectangle_7281" data-name="Rectangle 7281" width="16.851" height="32.606" fill="none"/>
    </clipPath>
    <clipPath id="clip-path-2">
      <rect id="Rectangle_7282" data-name="Rectangle 7282" width="10.119" height="18.349" fill="none"/>
    </clipPath>
    <clipPath id="clip-path-3">
      <rect id="Rectangle_7283" data-name="Rectangle 7283" width="4.642" height="8.139" fill="none"/>
    </clipPath>
    <clipPath id="clip-path-4">
      <rect id="Rectangle_7285" data-name="Rectangle 7285" width="2.058" height="2.236" fill="none"/>
    </clipPath>
    <clipPath id="clip-path-5">
      <rect id="Rectangle_7287" data-name="Rectangle 7287" width="1.877" height="1.695" fill="none"/>
    </clipPath>
  </defs>
  <g id="Group_4256" data-name="Group 4256" transform="translate(0 0)">
    <path id="Path_3839" data-name="Path 3839" d="M165.6,364.036l-1.543-1.535-3.6,3.584,1.649,1.641a16.144,16.144,0,0,1,3.5-3.69" transform="translate(-159.029 -360.417)" fill="#80b4fb"/>
    <path id="Path_3840" data-name="Path 3840" d="M173.658,357.842a16.3,16.3,0,1,1-16.385,16.3,16.344,16.344,0,0,1,16.385-16.3" transform="translate(-157.272 -357.841)" fill="#0071bc"/>
    <g id="Group_4133" data-name="Group 4133" transform="translate(0.001 0)" opacity="0.1" style="isolation: isolate">
      <g id="Group_4132" data-name="Group 4132">
        <g id="Group_4131" data-name="Group 4131" clip-path="url(#clip-path)">
          <path id="Path_3841" data-name="Path 3841" d="M158.2,374.146a16.34,16.34,0,0,1,15.919-16.3q-.232-.007-.466-.007a16.3,16.3,0,1,0,0,32.6q.233,0,.466-.007a16.341,16.341,0,0,1-15.919-16.3" transform="translate(-157.272 -357.842)"/>
        </g>
      </g>
    </g>
    <path id="Path_3842" data-name="Path 3842" d="M176.032,362.116a14.392,14.392,0,1,1-14.463,14.391,14.428,14.428,0,0,1,14.463-14.391" transform="translate(-159.646 -360.204)" fill="#fff"/>
    <path id="Path_3843" data-name="Path 3843" d="M188.615,414.913a2.7,2.7,0,1,1-2.705,2.705,2.7,2.7,0,0,1,2.705-2.705" transform="translate(-173.102 -389.39)" fill="#89c947"/>
    <path id="Path_3844" data-name="Path 3844" d="M203.534,373.906a2.7,2.7,0,1,1-2.705,2.705,2.7,2.7,0,0,1,2.705-2.705" transform="translate(-181.349 -366.721)" fill="#60a041"/>
    <path id="Path_3845" data-name="Path 3845" d="M166.513,398.8a2.7,2.7,0,1,1-2.705,2.705,2.705,2.705,0,0,1,2.705-2.705" transform="translate(-160.884 -380.484)" fill="#ee3835"/>
    <path id="Path_3846" data-name="Path 3846" d="M174.563,409.672a2.7,2.7,0,1,1-2.705,2.705,2.705,2.705,0,0,1,2.705-2.705" transform="translate(-165.334 -386.493)" fill="#0481bf"/>
    <path id="Path_3847" data-name="Path 3847" d="M209.254,407.957a2.7,2.7,0,1,1-2.705,2.705,2.705,2.705,0,0,1,2.705-2.705" transform="translate(-184.511 -385.544)" fill="#f7931e"/>
    <path id="Path_3848" data-name="Path 3848" d="M215.579,399.566a2.7,2.7,0,1,1-2.705,2.705,2.705,2.705,0,0,1,2.705-2.705" transform="translate(-188.008 -380.906)" fill="#ee3835"/>
    <path id="Path_3849" data-name="Path 3849" d="M177.245,399.566a2.7,2.7,0,1,1-2.705,2.705,2.7,2.7,0,0,1,2.705-2.705" transform="translate(-166.817 -380.906)" fill="#fecf05"/>
    <path id="Path_3850" data-name="Path 3850" d="M205.605,398.058a2.7,2.7,0,1,1-2.705,2.705,2.7,2.7,0,0,1,2.705-2.705" transform="translate(-182.494 -380.072)" fill="#fecf05"/>
    <path id="Path_3851" data-name="Path 3851" d="M199.494,378.732l7.553-7.515q-.378-.4-.786-.765l-7.577,7.539a3.812,3.812,0,0,1,.81.741" transform="translate(-180.164 -364.812)" fill="#d0d5d5"/>
    <path id="Path_3852" data-name="Path 3852" d="M199.421,378.725l-.025-.031a3.777,3.777,0,0,0-.8-.733l-.037-.025.032-.031,7.6-7.563.025.023c.27.243.535.5.788.767l.025.026Zm-.751-.8a3.845,3.845,0,0,1,.756.692l7.5-7.462c-.236-.247-.483-.487-.733-.714Z" transform="translate(-180.093 -364.75)" fill="#d0d5d5"/>
    <path id="Path_3853" data-name="Path 3853" d="M178.8,377.991l-7.577-7.539q-.407.368-.786.765l7.553,7.515a3.811,3.811,0,0,1,.81-.741" transform="translate(-164.548 -364.812)" fill="#d0d5d5"/>
    <path id="Path_3854" data-name="Path 3854" d="M177.928,378.725l-7.607-7.568.025-.026c.253-.266.518-.524.788-.767l.026-.023,7.633,7.6-.037.025a3.779,3.779,0,0,0-.8.733Zm-7.5-7.57,7.5,7.461a3.852,3.852,0,0,1,.756-.691l-7.521-7.484c-.25.227-.5.467-.733.714" transform="translate(-164.484 -364.75)" fill="#d0d5d5"/>
    <path id="Path_3855" data-name="Path 3855" d="M177.522,399.047l-7.577,7.539q.37.405.769.782l7.553-7.515a3.8,3.8,0,0,1-.744-.806" transform="translate(-164.277 -380.619)" fill="#d0d5d5"/>
    <path id="Path_3856" data-name="Path 3856" d="M170.652,407.349l-.026-.024c-.267-.252-.526-.515-.771-.784l-.023-.025.025-.025,7.609-7.57.025.036a3.757,3.757,0,0,0,.737.8l.031.025Zm-.719-.831c.229.25.47.495.718.73l7.5-7.462a3.838,3.838,0,0,1-.695-.752Z" transform="translate(-164.214 -380.549)" fill="#d0d5d5"/>
    <path id="Path_3857" data-name="Path 3857" d="M200.012,399.047a3.806,3.806,0,0,1-.745.806l7.553,7.515q.4-.376.769-.782Z" transform="translate(-180.486 -380.619)" fill="#d0d5d5"/>
    <path id="Path_3858" data-name="Path 3858" d="M206.752,407.349l-7.607-7.568.032-.026a3.763,3.763,0,0,0,.737-.8l.025-.036,7.633,7.595-.024.026c-.244.267-.5.531-.771.784Zm-7.5-7.563,7.5,7.461c.249-.236.49-.481.718-.73l-7.521-7.483a3.824,3.824,0,0,1-.695.752" transform="translate(-180.419 -380.549)" fill="#d0d5d5"/>
    <path id="Path_3859" data-name="Path 3859" d="M213.8,383.516a2.7,2.7,0,1,1-2.705,2.705,2.705,2.705,0,0,1,2.705-2.705" transform="translate(-187.024 -372.033)" fill="#0481bf"/>
    <path id="Path_3860" data-name="Path 3860" d="M164.98,380.114a2.7,2.7,0,1,1-2.705,2.705,2.705,2.705,0,0,1,2.705-2.705" transform="translate(-160.037 -370.153)" fill="#f7931e"/>
    <path id="Path_3861" data-name="Path 3861" d="M199.393,406.723a2.7,2.7,0,1,1-2.705,2.705,2.7,2.7,0,0,1,2.705-2.705" transform="translate(-179.06 -384.862)" fill="#0481bf"/>
    <path id="Path_3862" data-name="Path 3862" d="M158.652,364.513a.38.38,0,0,1-.534,0l-.738-.734a.375.375,0,0,1,0-.531l3.821-3.8a.381.381,0,0,1,.534,0l.738.735a.375.375,0,0,1,0,.531Z" transform="translate(-157.27 -358.667)" fill="#0071bc"/>
    <path id="Path_3863" data-name="Path 3863" d="M175.354,390.77a14.939,14.939,0,1,1,15.012-14.939,14.992,14.992,0,0,1-15.012,14.939m0-28.781a13.843,13.843,0,1,0,13.915,13.842,13.894,13.894,0,0,0-13.915-13.842" transform="translate(-158.968 -359.527)" fill="#80b4fb"/>
    <path id="Path_3864" data-name="Path 3864" d="M175.991,412.028l5.536-11.5a.875.875,0,0,1,1.574,0l5.536,11.5H191.7l-8.6-17.854a.875.875,0,0,0-1.574,0l-8.595,17.854Z" transform="translate(-165.928 -377.653)" fill="#d0d5d5"/>
    <g id="Group_4136" data-name="Group 4136" transform="translate(7.004 16.028)" opacity="0.1">
      <g id="Group_4135" data-name="Group 4135">
        <g id="Group_4134" data-name="Group 4134" clip-path="url(#clip-path-2)">
          <path id="Path_3865" data-name="Path 3865" d="M183.051,394.087a.874.874,0,0,0-1.525.087l-8.6,17.854h1.476L183,394.174a.828.828,0,0,1,.049-.087" transform="translate(-172.931 -393.681)"/>
        </g>
      </g>
    </g>
    <path id="Path_3866" data-name="Path 3866" d="M192.944,389.266a4.091,4.091,0,1,1-4.091-4.07,4.082,4.082,0,0,1,4.091,4.07" transform="translate(-172.467 -372.962)" fill="#0059ad"/>
    <g id="Group_4139" data-name="Group 4139" transform="translate(12.295 12.236)" opacity="0.1" style="isolation: isolate">
      <g id="Group_4138" data-name="Group 4138">
        <g id="Group_4137" data-name="Group 4137" clip-path="url(#clip-path-3)">
          <path id="Path_3867" data-name="Path 3867" d="M185.866,389.266a4.077,4.077,0,0,1,3.539-4.032,4.155,4.155,0,0,0-.552-.038,4.071,4.071,0,1,0,0,8.141,4.155,4.155,0,0,0,.552-.038,4.078,4.078,0,0,1-3.539-4.033" transform="translate(-184.762 -385.198)"/>
        </g>
      </g>
    </g>
    <path id="Path_3868" data-name="Path 3868" d="M191.761,390.428a1.73,1.73,0,1,1-1.739,1.73,1.735,1.735,0,0,1,1.739-1.73" transform="translate(-175.375 -375.854)" fill="#d0d5d5"/>
    <path id="Rectangle_7284" data-name="Rectangle 7284" d="M.841,0H21.626a.842.842,0,0,1,.842.842V1.4a.841.841,0,0,1-.841.841H.842A.842.842,0,0,1,0,1.4V.841A.841.841,0,0,1,.841,0Z" transform="translate(5.141 34.209)" fill="#0059ad"/>
    <g id="Group_4142" data-name="Group 4142" transform="translate(5.141 34.211)" opacity="0.1" style="isolation: isolate">
      <g id="Group_4141" data-name="Group 4141">
        <g id="Group_4140" data-name="Group 4140" clip-path="url(#clip-path-4)">
          <path id="Path_3869" data-name="Path 3869" d="M170.448,436.2v-1.486a.377.377,0,0,1,.377-.376h-1.682a.377.377,0,0,0-.376.376V436.2a.377.377,0,0,0,.376.376h1.682a.377.377,0,0,1-.377-.376" transform="translate(-168.766 -434.338)"/>
        </g>
      </g>
    </g>
    <path id="Rectangle_7286" data-name="Rectangle 7286" d="M.841,0H31.393a.841.841,0,0,1,.841.841V.853a.841.841,0,0,1-.841.841H.842A.842.842,0,0,1,0,.852V.841A.841.841,0,0,1,.841,0Z" transform="translate(0.269 35.738)" fill="#0481bf"/>
    <g id="Group_4145" data-name="Group 4145" transform="translate(0.268 35.736)" opacity="0.1" style="isolation: isolate">
      <g id="Group_4144" data-name="Group 4144">
        <g id="Group_4143" data-name="Group 4143" clip-path="url(#clip-path-5)">
          <path id="Path_3870" data-name="Path 3870" d="M159.371,439.073v-.942a.378.378,0,0,1,.377-.376h-1.5a.377.377,0,0,0-.376.376v.942a.377.377,0,0,0,.376.376h1.5a.377.377,0,0,1-.377-.376" transform="translate(-157.871 -437.753)"/>
        </g>
      </g>
    </g>
  </g>
</svg>
