<svg xmlns="http://www.w3.org/2000/svg" xmlns:xlink="http://www.w3.org/1999/xlink" width="14.888" height="14.888" viewBox="0 0 14.888 14.888"><defs><style>.a{fill:#043655;}.b{clip-path:url(#a);}</style><clipPath id="a"><rect class="a" width="14.888" height="14.888"/></clipPath></defs><g transform="translate(0 0)"><g class="b" transform="translate(0 0)"><path class="a" d="M13.076,0H2.486V.872h1.2v4.34a4.1,4.1,0,0,0,8.192,0V.872h1.2Z" transform="translate(-0.337 0)"/><path class="a" d="M10.8,14.546a.873.873,0,0,0-.872-.872H9.249V11.58a4.953,4.953,0,0,1-1.28.167H7.9a4.888,4.888,0,0,1-1.209-.167v2.095H6.006a.873.873,0,0,0-.872.872v1.039H3.873v.872h8.192v-.872H10.8Z" transform="translate(-0.525 -1.569)"/><path class="a" d="M14.259,2.018V2.89h1.6V4.853a2.184,2.184,0,0,1-1.842,2.154c-.045.138-.1.275-.152.41a5.023,5.023,0,0,1-.239.489h.053a3.057,3.057,0,0,0,3.054-3.054V2.018Z" transform="translate(-1.846 -0.274)"/><path class="a" d="M2.717,7.008A2.185,2.185,0,0,1,.872,4.853V2.89h1.6V2.018H0V4.853A3.057,3.057,0,0,0,3.054,7.906h.058A4.84,4.84,0,0,1,2.863,7.4c-.054-.129-.1-.259-.145-.391" transform="translate(0 -0.274)"/></g></g></svg>