<svg xmlns="http://www.w3.org/2000/svg" xmlns:xlink="http://www.w3.org/1999/xlink" width="30.073" height="33.709" viewBox="0 0 30.073 33.709"><defs><style>.a{fill:none;}.b{clip-path:url(#a);}.c{fill:#2b7f93;}.d{fill:#01c6e1;}.e{fill:#66b7c4;}.f{fill:#18454c;}.g{fill:#f0cd00;}.h{fill:#ffde50;}.i{fill:#ffea94;}.j{fill:#faa300;}.k{fill:#ffbd00;}.l{fill:#f68e00;}</style><clipPath id="a"><rect class="a" width="30.073" height="33.709"/></clipPath></defs><g transform="translate(-243.645 -230.031)"><g transform="translate(243.646 230.031)"><g class="b"><path class="c" d="M28.193,145.023v-6.662a1.894,1.894,0,0,0-1.88-1.9H1.879a1.894,1.894,0,0,0-1.88,1.9v17.131a1.8,1.8,0,0,0,1.81,1.8l.07,0H26.314a1.8,1.8,0,0,0,1.878-1.729q0-.035,0-.07v-5.71a1.894,1.894,0,0,0,1.88-1.9v-.952a1.894,1.894,0,0,0-1.88-1.9" transform="translate(0 -126.959)"/><path class="d" d="M1.88,165.7l20.675,2.854a1.894,1.894,0,0,1,1.88,1.9V184.2a1.893,1.893,0,0,1-1.88,1.9L1.88,182.828a1.965,1.965,0,0,1-1.88-1.9V163.794c0,1.059.613,1.688,1.88,1.9" transform="translate(0 -152.392)"/><path class="e" d="M274.288,335.149a1.433,1.433,0,1,1-1.3,1.555c0-.042-.006-.085-.006-.127a1.371,1.371,0,0,1,1.305-1.427" transform="translate(-253.979 -311.813)"/><path class="e" d="M339.455,287.495s4.7-.738,4.7-2v2.948s.01,1.152-1.88,1.9l-2.819.952a1.53,1.53,0,0,1-1.869-1.624,2.15,2.15,0,0,1,1.869-2.183" transform="translate(-314.08 -265.623)"/><path class="f" d="M270.823,331.163a1.71,1.71,0,0,0-1.832,1.579c0,.043,0,.084,0,.127a1.65,1.65,0,0,0,1.584,1.706,1.71,1.71,0,1,0,.253-3.411m.006,2.854a1.157,1.157,0,0,1-1.278-1.02,1.13,1.13,0,0,1-.007-.129,1.094,1.094,0,0,1,1.027-1.149h0a1.156,1.156,0,0,1,.258,2.3" transform="translate(-250.261 -308.105)"/><path class="f" d="M335.29,324.735h0l0-.008a.061.061,0,0,0-.006.009" transform="translate(-311.949 -302.121)"/><path class="f" d="M335.3,324.726l0,.008h0a.061.061,0,0,1,.006-.009" transform="translate(-311.949 -302.121)"/><path class="g" d="M78.191,9.95v.083a9.96,9.96,0,0,1-1.6,5.35l0,0-.308-.042-2.184-.3-.036,0-.761-.106-3.277-.453-.6-.083-.175-.024-2.536-.351-.773-.107-.408-.056-1.056-.146-.507-.07-2.6-.359-.118-.017-.017,0-1.56-.216L58.7,12.91a9.987,9.987,0,0,1-.441-2.922V9.969c0-.035,0-.07,0-.1A9.955,9.955,0,0,1,68.2,0q.385,0,.768.029l.117.009.1.009.171.018.024,0A9.976,9.976,0,0,1,74.97,2.63l.006.006A9.954,9.954,0,0,1,78.11,8.748a10.063,10.063,0,0,1,.072,1.115c0,.029,0,.058,0,.086Z" transform="translate(-54.201 0)"/><path class="h" d="M88.618,10.08c0,.006,0,.013,0,.019,0,.022,0,.042,0,.064a9.559,9.559,0,0,1-1.9,5.307l0,0-2.184-.3-.036,0-.761-.106-3.277-.453-.6-.083-.175-.024-2.536-.351-.773-.107-.408-.056L74.9,13.84l-.507-.07-2.6-.359-.118-.017-.017,0-1.56-.216a9.483,9.483,0,0,1-.633-3.077c0-.035,0-.07,0-.1-.006-.207,0-.417,0-.627.006-.164.016-.327.031-.489A9.583,9.583,0,0,1,79.041.141c.118,0,.237.011.354.019l.117.009.1.009L79.786.2l.024,0a9.9,9.9,0,0,1,3.9,1.3,9.987,9.987,0,0,1,4.226,4.943,9.933,9.933,0,0,1,.686,3.55c0,.029,0,.058,0,.086" transform="translate(-64.624 -0.131)"/><path class="i" d="M116.628,20.882l0,0-11.01,11.01-2.6-.359,2.2-2.2,1.22-1.22.459-.46.663-.663.494-.494h0l1.4-1.4,1.325-1.325.219-.218,1.989-1.99,1.951-1.951a9.95,9.95,0,0,1,1.7,1.261" transform="translate(-95.845 -18.255)"/><path class="i" d="M180.234,56.979l0,0-.01.01-1.755,1.755h0l-.668.668-.047.047-1.174,1.174-1.115,1.115-1.014,1.014-2.3,2.3-.175-.024-2.536-.351-.773-.107h0l.352-.352.607-.607.538-.538,1.537-1.537.826-.827.4-.4.906-.906,2.853-2.853.512-.512,1.583-1.583.007-.007,0,0a9.9,9.9,0,0,1,1.449,2.518" transform="translate(-156.925 -50.67)"/><path class="j" d="M106.175,39.63v.023a7.707,7.707,0,0,1-1.871,5.066l0,0-.036,0-.761-.106-3.277-.453-.6-.083-.175-.024L96.916,43.7l-.773-.107-.408-.056-1.056-.146-.507-.07-2.6-.359-.118-.017-.017,0A7.637,7.637,0,0,1,90.9,41.36a.092.092,0,0,1,0-.019c-.011-.047-.021-.095-.031-.143q-.043-.215-.074-.434a7.744,7.744,0,0,1-.076-1.039v-.1c0-.029,0-.057,0-.086a7.648,7.648,0,0,1,.092-1.116A7.73,7.73,0,0,1,98.445,31.9h.1a7.664,7.664,0,0,1,5.065,1.985q.154.137.3.285a7.552,7.552,0,0,1,.765.892q.184.249.346.512a7.678,7.678,0,0,1,.927,2.183q.084.331.137.67a7.4,7.4,0,0,1,.088.886c0,.045,0,.09,0,.136l0,.093c0,.029,0,.058,0,.086" transform="translate(-84.401 -29.68)"/><path class="k" d="M103.764,34.015l-.008.007,0,0-.441.441L101.479,36.3l-.746.744-.418.418,0,0-.816.815-.475.474L98.77,39l-.391.391-.6.6-.251.251-1.322,1.321-.347.346-.77.769-.561.561-.507-.07-2.6-.359-.118-.017c-.077-.159-.148-.322-.214-.486a7.6,7.6,0,0,1-.34-1.1.092.092,0,0,1,0-.019c-.011-.047-.021-.095-.031-.143a7.592,7.592,0,0,1-.161-1.486v-.1c0-.024,0-.049,0-.074a7.718,7.718,0,0,1,7.728-7.654h.1a7.734,7.734,0,0,1,5.082,1.99c.1.088.194.179.288.273Z" transform="translate(-84.252 -29.531)"/><path class="l" d="M203.652,39.937v.023a7.8,7.8,0,0,1-.083,1.111,7.69,7.69,0,0,1-1.825,3.95l0,0-.761-.106,0,0a7.7,7.7,0,0,0,1.809-4.96c0-.035,0-.07,0-.105,0-.108-.006-.217-.011-.326q-.021-.376-.077-.743c0-.015,0-.031-.008-.047a7.659,7.659,0,0,0-1.06-2.853,7.566,7.566,0,0,0-.7-.958c-.09-.105-.182-.208-.278-.308a7.715,7.715,0,0,0-5.172-2.386h.435a7.706,7.706,0,0,1,5.154,1.968c.1.092.2.187.3.284a7.748,7.748,0,0,1,2.041,3.584q.084.329.137.668a7.575,7.575,0,0,1,.089.886c0,.045,0,.09,0,.136,0,.031,0,.062,0,.093s0,.058,0,.086" transform="translate(-181.877 -29.987)"/><path class="l" d="M153.4,62.631a1.1,1.1,0,0,0,.785,1.011l1.151.384.436.145.152.051a2.673,2.673,0,0,1,.691.34,2.636,2.636,0,0,1,.242.187,2.671,2.671,0,0,1,.916,1.971l0,0v.017A2.579,2.579,0,0,1,157,68.568a2.817,2.817,0,0,1-.691.5h0l-2.536-.351L153,68.61l-.408-.056h0a2.706,2.706,0,0,1-.494-.707,2.616,2.616,0,0,1-.161-.416,2.7,2.7,0,0,1-.109-.7H153.4a1.159,1.159,0,0,0,1.211,1.083h.374a1.289,1.289,0,0,0,.3-.032h0a1.292,1.292,0,0,0,.61-.33,1.016,1.016,0,0,0,.31-.721v-.015a1.1,1.1,0,0,0-.785-1.011l-.886-.3-.434-.145-.419-.139a2.66,2.66,0,0,1-.975-.564,2.688,2.688,0,0,1-.4-.46,2.668,2.668,0,0,1-.472-1.474,2.706,2.706,0,0,1,2.463-2.633v-1.2h1.046V60a2.705,2.705,0,0,1,2.273,1.751,2.725,2.725,0,0,1,.167.876v0h-1.57a1.159,1.159,0,0,0-.913-1.06,1.124,1.124,0,0,0-.3-.024h-.374a1.159,1.159,0,0,0-1.217,1.084" transform="translate(-141.257 -54.698)"/><path class="i" d="M172.141,66.679V66.7c0,.02,0,.041,0,.061a2.577,2.577,0,0,1-.77,1.773,2.846,2.846,0,0,1-.924.606h0l-.6-.083-.175-.024-2.536-.351h0a2.714,2.714,0,0,1-.936-1.985h1.57a1.157,1.157,0,0,0,.879,1.051h0a1.166,1.166,0,0,0,.332.032h.374a1.293,1.293,0,0,0,.913-.362,1.015,1.015,0,0,0,.31-.721v-.017a1.1,1.1,0,0,0-.8-1.011l-.381-.127-1.248-.416-.111-.037a2.734,2.734,0,0,1-.31-.122,2.665,2.665,0,0,1-1.4-1.554.015.015,0,0,1,0-.007,2.65,2.65,0,0,1-.141-.814,2.706,2.706,0,0,1,2.463-2.633v-1.2H169.7v1.208l.067.008a2.7,2.7,0,0,1,1.86,1.1,2.784,2.784,0,0,1,.221.363,2.69,2.69,0,0,1,.291,1.163h-1.57a1.158,1.158,0,0,0-1.217-1.083h-.374a1.137,1.137,0,0,0-.317.027,1.16,1.16,0,0,0-.9,1.056,1.1,1.1,0,0,0,.786,1.011l.408.136.436.145.895.3a2.705,2.705,0,0,1,.335.134,2.633,2.633,0,0,1,.36.209,2.669,2.669,0,0,1,1.154,2.155Z" transform="translate(-154.617 -54.661)"/></g></g></g></svg>