<svg xmlns="http://www.w3.org/2000/svg" width="36.094" height="36.097" viewBox="0 0 36.094 36.097"><defs><style>.a{fill:#e8edfc;}.b{fill:#cad9fc;}.c{fill:#a4c2f7;}.d{fill:#fff;}.e{fill:#428dff;}</style></defs><path class="a" d="M798,578.193H786.455v-7.219c0-1-1.75-1.8-3.91-1.8a7.906,7.906,0,0,0-1.5.138v-6.551a18.334,18.334,0,0,1,8.031-9.09,3.264,3.264,0,0,0,1.7.463h3.369a3.253,3.253,0,0,0,1.715-.475c1.311.65,7.225,4.037,9.361,13.109,2.406,10.227-4.813,11.431-7.219,11.431" transform="translate(-770.212 -546.307)"/><path class="b" d="M819.958,566.762c-2.136-9.072-8.05-12.459-9.361-13.109a3.14,3.14,0,0,1-1.068.406c2.063,1.232,6.768,4.822,8.625,12.7,2.406,10.227-4.813,11.431-7.219,11.431h1.8c2.406,0,9.626-1.2,7.219-11.431" transform="translate(-784.951 -546.307)"/><path class="a" d="M804.266,540.385c.006,1.323-.259,4.211-2.377,5.866a1.861,1.861,0,0,1-.252.175,3.25,3.25,0,0,1-1.715.475h-3.369a3.265,3.265,0,0,1-1.7-.463c-.09-.06-.18-.121-.265-.187-2.117-1.655-2.376-4.542-2.376-5.866a.6.6,0,0,1,.83-.554c.77.325,1.028,1.053,2.2,1.053,1.5,0,1.5-1.2,3-1.2s1.5,1.2,3.008,1.2c1.167,0,1.426-.734,2.2-1.053a.6.6,0,0,1,.83.554Z" transform="translate(-775.991 -539.078)"/><path class="b" d="M809.77,539.944a4.853,4.853,0,0,0-.974.663c-.009,1.366-.312,4.145-2.375,5.756a1.893,1.893,0,0,1-.253.174,3.246,3.246,0,0,1-1.714.475h1.8a3.248,3.248,0,0,0,1.715-.475,1.85,1.85,0,0,0,.253-.174c2.116-1.654,2.381-4.542,2.375-5.866a.6.6,0,0,0-.83-.554" transform="translate(-782.325 -539.191)"/><path class="a" d="M776.226,544.666c2.16,0,3.91.808,3.91,1.805s-1.751,1.8-3.91,1.8-3.91-.808-3.91-1.8,1.751-1.805,3.91-1.805" transform="translate(-765.699 -541.658)"/><path class="c" d="M780.137,548.406v6a19.735,19.735,0,0,0-3.61,5.631v-3.213c0-1-1.75-1.805-3.91-1.805-.1,0-.2,0-.3.006v-6.624c0,1,1.751,1.8,3.91,1.8s3.91-.806,3.91-1.8" transform="translate(-765.699 -543.593)"/><path class="a" d="M772.658,563.921c0,1-1.75,1.8-3.91,1.8s-3.91-.806-3.91-1.8c0-.95,1.588-1.726,3.61-1.8.1-.007.2-.007.3-.007,2.16,0,3.91.807,3.91,1.8" transform="translate(-761.829 -550.686)"/><path class="c" d="M772.658,565.856v9.765c-1.414.27-2.406.914-2.406,1.666V583.3c0-1-1.751-1.805-3.91-1.805a7.832,7.832,0,0,0-1.5.139V565.856c0,1,1.75,1.8,3.91,1.8s3.91-.805,3.91-1.8" transform="translate(-761.829 -552.62)"/><path class="a" d="M767.672,600.069c0,1-1.75,1.8-3.91,1.8s-3.91-.806-3.91-1.8c0-.752.992-1.4,2.406-1.666a7.868,7.868,0,0,1,1.5-.139c2.16,0,3.91.806,3.91,1.8" transform="translate(-759.25 -569.387)"/><path class="c" d="M767.672,602v3.008c0,1-1.75,1.805-3.91,1.805s-3.91-.806-3.91-1.805V602c0,1,1.751,1.8,3.91,1.8s3.91-.806,3.91-1.8" transform="translate(-759.25 -571.322)"/><path class="a" d="M783.876,587.606c0,1-1.751,1.805-3.91,1.805s-3.91-.807-3.91-1.805c0-.752.992-1.4,2.406-1.667a7.861,7.861,0,0,1,1.5-.138c2.16,0,3.91.806,3.91,1.8" transform="translate(-767.633 -562.939)"/><path class="c" d="M783.876,589.54v7.821c0,1-1.751,1.8-3.91,1.8s-3.91-.806-3.91-1.8V589.54c0,1,1.75,1.805,3.91,1.805s3.91-.807,3.91-1.805" transform="translate(-767.633 -564.873)"/><path class="d" d="M761.656,575.348V572.34c0-.753.993-1.4,2.406-1.667v-15.78c0-.951,1.588-1.727,3.61-1.8v-6.624c0-.855,1.284-1.564,3.008-1.755a8.423,8.423,0,0,0-.9-.05c-2.16,0-3.911.806-3.911,1.805v6.624c-2.021.072-3.609.848-3.609,1.8v15.78c-1.414.271-2.406.914-2.406,1.667v3.008c0,1,1.751,1.8,3.91,1.8a8.412,8.412,0,0,0,.9-.05c-1.724-.191-3.008-.9-3.008-1.755" transform="translate(-759.25 -541.658)"/><rect class="d" width="1.203" height="4.813" transform="translate(2.406 24.203)"/><path class="e" d="M820.314,592.3a5.778,5.778,0,0,0,1.1-3.373.6.6,0,0,0-1.2-.058,4.61,4.61,0,0,1-.846,2.683,5.178,5.178,0,0,1-3.836,1.557.6.6,0,1,0,0,1.2c.532,0,3.261-.1,4.78-2.014" transform="translate(-787.747 -564.228)"/><path class="e" d="M799.7,573.076a.6.6,0,1,0-1.2,0,2.406,2.406,0,0,0,2.406,2.407v.6a.6.6,0,1,0,1.2,0v-.6a2.406,2.406,0,1,0,0-4.813v-2.406a1.2,1.2,0,0,1,1.2,1.2.6.6,0,0,0,1.2,0,2.406,2.406,0,0,0-2.407-2.406v-.6a.6.6,0,1,0-1.2,0v.6a2.406,2.406,0,1,0,0,4.813v2.407a1.2,1.2,0,0,1-1.2-1.2m0-3.61a1.2,1.2,0,0,1,1.2-1.2v2.406a1.2,1.2,0,0,1-1.2-1.2m2.406,2.406a1.2,1.2,0,0,1,0,2.407Z" transform="translate(-779.241 -552.62)"/><path class="e" d="M794.2,558.75a20.973,20.973,0,0,0-7.157-11.856c2.985.225,3.945,1.467,3.974,1.5a.6.6,0,0,0,1-.674,5.37,5.37,0,0,0-3.309-1.8,2.761,2.761,0,0,0,1.007-2.072,3.089,3.089,0,0,0-2.3-2.8,10.893,10.893,0,0,0,.081-1.31,1.2,1.2,0,0,0-1.673-1.106,3.434,3.434,0,0,0-.837.537,1.58,1.58,0,0,1-2.248,0,2.768,2.768,0,0,0-3.755,0,1.581,1.581,0,0,1-2.249,0,3.458,3.458,0,0,0-.835-.537,1.2,1.2,0,0,0-1.671,1.106,8.3,8.3,0,0,0,2.17,5.959,16.6,16.6,0,0,0-2.744,2.088v-4.538c0-1.372-1.94-2.406-4.512-2.406s-4.512,1.034-4.512,2.406v6.061c-2.11.21-3.609,1.158-3.609,2.361v10.967a.6.6,0,1,0,1.2,0v-9.3a7.762,7.762,0,0,0,6.618,0v7.62c-1.454.39-2.406,1.184-2.406,2.144v4.351a6.851,6.851,0,0,0-3.309-.741c-2.571,0-4.512,1.035-4.512,2.407v3.008c0,1.371,1.94,2.406,4.512,2.406,2.3,0,4.091-.828,4.444-1.985a6.76,6.76,0,0,0,3.377.782c2.571,0,4.512-1.034,4.512-2.406V563.1c0-1.372-1.94-2.406-4.512-2.406a8.963,8.963,0,0,0-.9.045v-9.069c0-1.318-1.791-2.321-4.212-2.4v-4.358a7.765,7.765,0,0,0,6.618,0v4.1c-.4.443-.795.927-1.188,1.462a.6.6,0,0,0,.97.711,18.137,18.137,0,0,1,1.24-1.5l.014-.016a15.837,15.837,0,0,1,3.993-3.2,3.822,3.822,0,0,0,.929.309l-1.551,1.447a.6.6,0,1,0,.822.879l2.406-2.244h.192v1.8a.6.6,0,0,0,1.2,0v-1.808h.192l2.406,2.245a.6.6,0,0,0,.822-.879l-1.561-1.454a3.8,3.8,0,0,0,.922-.31c1.59.861,6.817,4.259,8.774,12.568.851,3.617.544,6.384-.912,8.222-1.863,2.349-5.094,2.47-5.723,2.47h-8.537a.6.6,0,0,0,0,1.2h8.537c1.023,0,4.515-.211,6.666-2.925,1.7-2.141,2.079-5.252,1.139-9.244M766.426,570.92v1.2c0,.481-1.32,1.2-3.309,1.2s-3.309-.722-3.309-1.2v-1.342a7.765,7.765,0,0,0,6.618,0Zm-3.309-.6c-1.989,0-3.309-.722-3.309-1.2s1.319-1.2,3.309-1.2,3.309.722,3.309,1.2-1.32,1.2-3.309,1.2m11.13.6c0,.482-1.319,1.2-3.308,1.2s-3.309-.722-3.309-1.2v-6.155a7.763,7.763,0,0,0,6.618,0Zm-3.308-9.024c1.989,0,3.308.722,3.308,1.2s-1.319,1.2-3.308,1.2-3.309-.722-3.309-1.2,1.319-1.2,3.309-1.2m-2.106-10.227c0,.481-1.319,1.2-3.309,1.2s-3.309-.722-3.309-1.2,1.319-1.2,3.309-1.2,3.309.722,3.309,1.2m.3-7.219c-1.99,0-3.309-.722-3.309-1.2s1.32-1.2,3.309-1.2,3.309.722,3.309,1.2-1.32,1.2-3.309,1.2m15,.68a2.586,2.586,0,0,1-1.51.517,13.013,13.013,0,0,0,1.228-2.84.6.6,0,1,0-1.16-.323,11.024,11.024,0,0,1-1.517,3.169h-.618a11.144,11.144,0,0,1-1.518-3.17.6.6,0,1,0-1.159.323,13.036,13.036,0,0,0,1.229,2.843,2.589,2.589,0,0,1-1.542-.519c-1.938-1.514-2.146-4.276-2.146-5.389a2.355,2.355,0,0,1,.549.366,2.766,2.766,0,0,0,3.753,0,1.583,1.583,0,0,1,2.25,0,2.769,2.769,0,0,0,3.755,0,2.5,2.5,0,0,1,.552-.37c0,1.118-.208,3.88-2.146,5.394m1.294.447a7.127,7.127,0,0,0,1.757-3.327,1.844,1.844,0,0,1,1.318,1.6c0,.986-1.068,1.795-2.407,1.8a3.092,3.092,0,0,1-.668-.076" transform="translate(-758.605 -538.433)"/><path class="e" d="M764.818,592.921a.6.6,0,0,0-.6-.6h-.006a.6.6,0,1,0,.608.6" transform="translate(-761.197 -566.312)"/></svg>