<svg id="Group_18195" data-name="Group 18195" xmlns="http://www.w3.org/2000/svg" width="40.444" height="40.444" viewBox="0 0 40.444 40.444">
  <path id="Path_39831" data-name="Path 39831" d="M167.83,22.638A19.527,19.527,0,0,1,148.3,42.166c-.634,0-1.258-.03-1.876-.09a8.291,8.291,0,0,0,1.73-.246c4.209-1.022,6.843-4.751,7.756-8.821a10.555,10.555,0,0,0-.014-4.57c-.807-3.621-3.184-6.556-5.784-9.087-1.7-1.653-3.913-3.174-4.6-5.554a8.41,8.41,0,0,1,.706-6.267,10.563,10.563,0,0,1,4.489-4.271A19.529,19.529,0,0,1,167.83,22.638" transform="translate(-128.079 -2.417)" fill="#ce1126"/>
  <path id="Path_39832" data-name="Path 39832" d="M156,34.677c-1.088,5.518-4.551,7.135-5.21,7.4a19.528,19.528,0,0,1,4.575-38.787c-1.275.241-7.115,1.637-9.588,7.247a9.926,9.926,0,0,0-.272,7.091c1.7,5.24,7.217,7.4,9.67,12.126A7.521,7.521,0,0,1,156,34.677" transform="translate(-132.87 -2.458)" fill="#0038a8"/>
  <path id="Path_39833" data-name="Path 39833" d="M163.649,36.9a8.088,8.088,0,0,0,1.43-1.771c2.253-3.7,1.479-8.2-.754-11.721a10.53,10.53,0,0,0-3.244-3.222c-3.128-1.989-6.887-2.383-10.514-2.336-2.367.031-5.011.522-7.178-.676a8.413,8.413,0,0,1-3.934-4.93,10.591,10.591,0,0,1,.2-6.317s-4.3,5.674-1.8,12.109a9.928,9.928,0,0,0,4.822,5.208c4.9,2.505,10.332.126,15.412,1.735a7.523,7.523,0,0,1,4.067,2.9c3.468,5.172,1.5,9.021,1.5,9.021" transform="translate(-131.427 -1.321)" fill="#fff"/>
  <path id="Path_39834" data-name="Path 39834" d="M172.408,21.6a8.043,8.043,0,0,0-.241-2.263c-1.023-4.209-4.751-6.843-8.822-7.755a10.49,10.49,0,0,0-4.57.014c-3.619.8-6.556,3.184-9.087,5.783-1.653,1.7-3.174,3.913-5.554,4.6a8.411,8.411,0,0,1-6.267-.706,10.6,10.6,0,0,1-4.329-4.6s.973,7.052,7.289,9.837a9.922,9.922,0,0,0,7.093.272c5.24-1.7,7.395-7.216,12.125-9.67a7.515,7.515,0,0,1,4.926-.824c6.109,1.2,7.439,5.319,7.439,5.319" transform="translate(-132.881 0.905)" fill="#fff"/>
  <path id="Path_39835" data-name="Path 39835" d="M167.216,9.209a8.085,8.085,0,0,0-1.771-1.43c-3.7-2.253-8.2-1.479-11.721.754a10.531,10.531,0,0,0-3.222,3.244c-1.989,3.128-2.383,6.887-2.336,10.514.031,2.367.522,5.011-.676,7.178a8.413,8.413,0,0,1-4.93,3.934,10.591,10.591,0,0,1-6.316-.2s5.674,4.3,12.109,1.8a9.928,9.928,0,0,0,5.209-4.822c2.505-4.905.126-10.332,1.735-15.412a7.523,7.523,0,0,1,2.9-4.067c5.172-3.468,9.021-1.5,9.021-1.5" transform="translate(-131.768 -1.115)" fill="#fff"/>
  <path id="Path_39836" data-name="Path 39836" d="M153.293,2.662a20.222,20.222,0,1,0,20.223,20.221A20.243,20.243,0,0,0,153.293,2.662m0,39.75q-.951,0-1.874-.09c-.143-.013-.284-.027-.423-.047A19.527,19.527,0,0,1,155.57,3.489c.045,0,.089.008.133.016a19.528,19.528,0,0,1-2.409,38.907" transform="translate(-133.072 -2.662)" fill="#fcd116"/>
  <path id="Path_39837" data-name="Path 39837" d="M157.373,33.026c-.913,4.069-3.547,7.8-7.756,8.821a8.373,8.373,0,0,1-1.729.246c-.178,0-.356,0-.534,0,0,0,.038-.011.11-.041.659-.261,4.122-1.879,5.21-7.4a7.522,7.522,0,0,0-.826-4.926c-2.453-4.73-7.974-6.887-9.67-12.126a9.927,9.927,0,0,1,.272-7.091c2.473-5.611,8.314-7.005,9.588-7.247.138-.027.223-.038.243-.041l-.11.056a10.563,10.563,0,0,0-4.489,4.271,8.4,8.4,0,0,0-.7,6.267c.683,2.38,2.9,3.9,4.6,5.554,2.6,2.531,4.977,5.467,5.783,9.086a10.517,10.517,0,0,1,.014,4.572" transform="translate(-129.541 -2.434)" fill="#fcd116"/>
</svg>
