<svg xmlns="http://www.w3.org/2000/svg" width="35.162" height="35.162" viewBox="0 0 35.162 35.162">
  <g id="Group_4340" data-name="Group 4340" transform="translate(0 0)">
    <path id="Path_3903" data-name="Path 3903" d="M159.757,1051.93a1.031,1.031,0,0,1,.461-1.383l8.018-4.009a1.031,1.031,0,0,1,.922,1.844l-8.017,4.009a1.031,1.031,0,0,1-1.382-.461" transform="translate(-147.106 -1036.849)" fill="#25201c"/>
    <path id="Path_3904" data-name="Path 3904" d="M168.235,1077.38l-8.018-4.009a1.03,1.03,0,1,1,.922-1.843l8.018,4.009a1.03,1.03,0,0,1-.921,1.843" transform="translate(-147.106 -1051.908)" fill="#25201c"/>
    <path id="Path_3905" data-name="Path 3905" d="M130.365,1060.4h10.742a7.651,7.651,0,1,0-10.742,0" transform="translate(-128.086 -1037.38)" fill="#00e0e2"/>
    <path id="Path_3906" data-name="Path 3906" d="M152.71,1060.4a7.646,7.646,0,0,0-5.371-13.093V1060.4Z" transform="translate(-139.689 -1037.38)" fill="#00bccf"/>
    <path id="Path_3907" data-name="Path 3907" d="M142.43,1058.416a3.237,3.237,0,1,1-3.237,3.238,3.237,3.237,0,0,1,3.237-3.238" transform="translate(-134.779 -1044.072)" fill="#1c75bc"/>
    <path id="Path_3908" data-name="Path 3908" d="M133.822,1076.914a7.637,7.637,0,0,0,10.742,0,7.644,7.644,0,0,0-10.742,0" transform="translate(-131.543 -1053.891)" fill="#2b3990"/>
    <path id="Path_3909" data-name="Path 3909" d="M147.339,1058.416a3.237,3.237,0,0,1,0,6.474Z" transform="translate(-139.689 -1044.072)" fill="#1c75bc"/>
    <path id="Path_3910" data-name="Path 3910" d="M147.339,1079.122a7.627,7.627,0,0,0,5.371-2.208,7.656,7.656,0,0,0-5.371-2.206Z" transform="translate(-139.689 -1053.89)" fill="#2b3990"/>
    <path id="Path_3911" data-name="Path 3911" d="M180.344,1035.414h10.742a7.651,7.651,0,1,0-10.742,0" transform="translate(-158.204 -1022.321)" fill="#ff6b61"/>
    <path id="Path_3912" data-name="Path 3912" d="M202.689,1035.414a7.646,7.646,0,0,0-5.371-13.093v13.093Z" transform="translate(-169.807 -1022.321)" fill="#ee3368"/>
    <path id="Path_3913" data-name="Path 3913" d="M192.408,1033.427a3.237,3.237,0,1,1-3.237,3.237,3.237,3.237,0,0,1,3.237-3.237" transform="translate(-164.897 -1029.014)" fill="#1c75bc"/>
    <path id="Path_3914" data-name="Path 3914" d="M183.8,1051.925a7.636,7.636,0,0,0,10.742,0,7.644,7.644,0,0,0-10.742,0" transform="translate(-161.661 -1038.832)" fill="#2b3990"/>
    <path id="Path_3915" data-name="Path 3915" d="M197.317,1033.427a3.237,3.237,0,0,1,0,6.474Z" transform="translate(-169.806 -1029.014)" fill="#1c75bc"/>
    <path id="Path_3916" data-name="Path 3916" d="M197.317,1054.131a7.626,7.626,0,0,0,5.371-2.208,7.656,7.656,0,0,0-5.371-2.205Z" transform="translate(-169.806 -1038.83)" fill="#2b3990"/>
    <path id="Path_3917" data-name="Path 3917" d="M180.344,1085.392h10.742a7.651,7.651,0,1,0-10.742,0" transform="translate(-158.204 -1052.439)" fill="#ffcc74"/>
    <path id="Path_3918" data-name="Path 3918" d="M202.689,1085.392a7.647,7.647,0,0,0-5.371-13.093v13.093Z" transform="translate(-169.807 -1052.439)" fill="#ffa659"/>
    <path id="Path_3919" data-name="Path 3919" d="M192.408,1083.406a3.237,3.237,0,1,1-3.237,3.237,3.237,3.237,0,0,1,3.237-3.237" transform="translate(-164.897 -1059.132)" fill="#1c75bc"/>
    <path id="Path_3920" data-name="Path 3920" d="M183.8,1101.9a7.644,7.644,0,1,0,5.371-2.205,7.624,7.624,0,0,0-5.371,2.205" transform="translate(-161.661 -1068.95)" fill="#2b3990"/>
    <path id="Path_3921" data-name="Path 3921" d="M197.317,1083.406a3.237,3.237,0,0,1,0,6.474Z" transform="translate(-169.806 -1059.132)" fill="#1c75bc"/>
    <path id="Path_3922" data-name="Path 3922" d="M197.317,1104.112a3.139,3.139,0,1,0,0-4.414Z" transform="translate(-169.806 -1068.95)" fill="#2b3990"/>
  </g>
</svg>
