<svg xmlns="http://www.w3.org/2000/svg" xmlns:xlink="http://www.w3.org/1999/xlink" width="18.599" height="13.437" viewBox="0 0 18.599 13.437"><defs><style>.a{fill:#043655;}.b{clip-path:url(#a);}</style><clipPath id="a"><rect class="a" width="18.599" height="13.437"/></clipPath></defs><g class="b"><path class="a" d="M112.147,0A3.217,3.217,0,0,1,115.2,3.359a3.067,3.067,0,1,1-6.107,0A3.217,3.217,0,0,1,112.147,0" transform="translate(-102.848 0)"/><path class="a" d="M67.735,123.38h8.375a1.448,1.448,0,0,0,1.308-1.554v-.43a3.17,3.17,0,0,0-1.319-2.676,6.986,6.986,0,0,0-8.354,0,3.17,3.17,0,0,0-1.319,2.676v.43a1.448,1.448,0,0,0,1.308,1.554" transform="translate(-62.624 -109.942)"/><path class="a" d="M31.644,32.834a2.336,2.336,0,1,1-2.114,2.325,2.227,2.227,0,0,1,2.114-2.325" transform="translate(-27.839 -30.766)"/><path class="a" d="M5.825,114.526a10.486,10.486,0,0,0-.993.572,3.8,3.8,0,0,0-1.6,3.135H.906A1,1,0,0,1,0,117.157v-.3a2.192,2.192,0,0,1,.913-1.852,5.492,5.492,0,0,1,2.891-.96,4.887,4.887,0,0,1,2.02.479" transform="translate(0 -106.863)"/><path class="a" d="M223.605,32.834a2.336,2.336,0,1,1-2.113,2.325,2.227,2.227,0,0,1,2.113-2.325" transform="translate(-208.811 -30.766)"/><path class="a" d="M228.945,116.859v.3a1,1,0,0,1-.906,1.075h-2.326a3.8,3.8,0,0,0-1.6-3.135,10.7,10.7,0,0,0-.993-.571,4.878,4.878,0,0,1,2.02-.479,5.5,5.5,0,0,1,2.891.96,2.194,2.194,0,0,1,.913,1.852" transform="translate(-210.346 -106.863)"/></g></svg>