<svg xmlns="http://www.w3.org/2000/svg" width="18.593" height="15.36" viewBox="0 0 18.593 15.36"><defs><style>.a{fill:#043655;}</style></defs><path class="a" d="M26.585,59.516A2.678,2.678,0,0,1,24.027,62.3l-.124,0a2.626,2.626,0,0,1-.56-.061,7.213,7.213,0,0,1-4.876,3.195,1.559,1.559,0,1,1-.05-1.132A6.075,6.075,0,1,0,11.992,61.3a.368.368,0,0,1,.038.094.561.561,0,0,1-.312.707,2.648,2.648,0,0,1-1.028.207l-.125,0A2.678,2.678,0,0,1,8.01,59.516c.012-.282.005-.534,0-.778s-.012-.467,0-.714a2.68,2.68,0,0,1,2.691-2.56,7.2,7.2,0,0,1,13.2,0,2.678,2.678,0,0,1,2.691,2.559c.01.248,0,.485,0,.715S26.573,59.234,26.585,59.516Zm-4.572-1.179A4.718,4.718,0,0,1,16.086,62.9L14.177,64a.562.562,0,0,1-.824-.632l.488-1.82a4.716,4.716,0,1,1,8.173-3.208Zm-6.027,0a.562.562,0,0,0-.562-.562h0a.562.562,0,1,0,.563.562Zm1.873,0a.532.532,0,0,0,0-.055.525.525,0,0,0-.008-.055.425.425,0,0,0-.014-.053c-.005-.018-.012-.035-.018-.052a.461.461,0,0,0-.024-.049.542.542,0,0,0-.028-.047.548.548,0,0,0-.033-.045.473.473,0,0,0-.037-.041c-.013-.013-.027-.025-.041-.037s-.029-.022-.045-.033a.538.538,0,0,0-.047-.028l-.05-.024a.579.579,0,0,0-.16-.04.577.577,0,0,0-.165.008l-.054.014a.493.493,0,0,0-.052.018l-.05.024-.047.028a.546.546,0,0,0-.044.033c-.015.012-.028.024-.041.037a.48.48,0,0,0-.037.041.545.545,0,0,0-.033.045.536.536,0,0,0-.028.047.5.5,0,0,0-.023.049.551.551,0,0,0-.019.052c-.005.017-.01.035-.013.053a.535.535,0,0,0-.008.055c0,.018,0,.037,0,.055s0,.037,0,.055a.544.544,0,0,0,.008.054c0,.018.008.036.013.054a.546.546,0,0,0,.019.052.51.51,0,0,0,.023.05c.009.016.018.032.028.047a.535.535,0,0,0,.033.044.552.552,0,0,0,.037.041c.013.013.027.025.041.037a.482.482,0,0,0,.044.033c.015.01.031.02.047.028a.621.621,0,0,0,.1.042l.054.013a.536.536,0,0,0,.11.011.566.566,0,0,0,.4-.165.608.608,0,0,0,.07-.085q.015-.023.028-.047c.009-.016.016-.033.024-.05a.522.522,0,0,0,.018-.052.45.45,0,0,0,.014-.054.533.533,0,0,0,.008-.054.54.54,0,0,0,0-.056Zm1.874,0a.562.562,0,0,0-.562-.562h0a.562.562,0,1,0,.563.562Z" transform="translate(-8.001 -51.138)"/></svg>