<svg xmlns="http://www.w3.org/2000/svg" width="16.754" height="16.755" viewBox="0 0 16.754 16.755"><defs><style>.a{fill:#043655;}</style></defs><g transform="translate(0)"><path class="a" d="M12.743,55.612a1.174,1.174,0,0,0-1.775,0c-.415.411-.83.823-1.238,1.241a.245.245,0,0,1-.342.063c-.268-.146-.554-.265-.812-.425a12.871,12.871,0,0,1-3.1-2.824,7.351,7.351,0,0,1-1.112-1.782.255.255,0,0,1,.063-.328c.415-.4.819-.812,1.227-1.224a1.178,1.178,0,0,0,0-1.816c-.324-.328-.648-.648-.973-.976s-.666-.673-1-1a1.181,1.181,0,0,0-1.775,0c-.418.411-.819.833-1.245,1.238a2.02,2.02,0,0,0-.635,1.363,5.776,5.776,0,0,0,.446,2.486,15.105,15.105,0,0,0,2.681,4.466,16.591,16.591,0,0,0,5.495,4.3,7.947,7.947,0,0,0,3.044.886,2.231,2.231,0,0,0,1.914-.729c.356-.4.757-.76,1.133-1.14a1.186,1.186,0,0,0,.007-1.806Q13.744,56.6,12.743,55.612Z" transform="translate(-0.006 -44.529)"/><path class="a" d="M241.633,100.958l1.286-.22A5.775,5.775,0,0,0,238.035,96l-.181,1.293a4.463,4.463,0,0,1,3.779,3.664Z" transform="translate(-229.561 -92.653)"/><path class="a" d="M248.374,2.712A9.486,9.486,0,0,0,242.935,0l-.181,1.293a8.277,8.277,0,0,1,7,6.788l1.286-.22A9.555,9.555,0,0,0,248.374,2.712Z" transform="translate(-234.291)"/></g></svg>