<svg xmlns="http://www.w3.org/2000/svg" width="36.949" height="35.162" viewBox="0 0 36.949 35.162">
  <g id="Group_4337" data-name="Group 4337" transform="translate(0 -0.001)">
    <path id="Path_3826" data-name="Path 3826" d="M829.027,1027.988a7.9,7.9,0,1,1-7.572,5.641,7.9,7.9,0,0,1,7.572-5.641" transform="translate(-800.576 -1027.388)" fill="#70e870"/>
    <path id="Path_3827" data-name="Path 3827" d="M808.76,1065.009v.008a4.1,4.1,0,0,1-4.1,4.1h-.013c-.095,0-.188,0-.281-.01a4.1,4.1,0,0,1-3.814-4.094v-2.651H786.814v-.036l.145-21.528h15.278l.011,0a7.906,7.906,0,0,0,6.512,10.089Zm-16.213-16.669a1.258,1.258,0,1,0-1.318-1.256,1.288,1.288,0,0,0,1.318,1.256m0,5.2a1.258,1.258,0,1,0-1.318-1.257,1.288,1.288,0,0,0,1.318,1.257m0,5.2a1.258,1.258,0,1,0-1.318-1.256,1.287,1.287,0,0,0,1.318,1.256" transform="translate(-781.369 -1034.557)" fill="#cbe2ff"/>
    <path id="Path_3828" data-name="Path 3828" d="M798.226,1096.521v.01H779.942a4.1,4.1,0,0,1-4.1-4.1v-2.66h18.569v2.652a4.1,4.1,0,0,0,3.814,4.094" transform="translate(-775.228 -1061.974)" fill="#00acea"/>
    <path id="Path_3829" data-name="Path 3829" d="M799.477,1053.481a1.319,1.319,0,1,1-1.317-1.257,1.288,1.288,0,0,1,1.317,1.257" transform="translate(-786.983 -1040.955)" fill="#00acea"/>
    <path id="Path_3830" data-name="Path 3830" d="M799.477,1065.3a1.319,1.319,0,1,1-1.317-1.257,1.288,1.288,0,0,1,1.317,1.257" transform="translate(-786.983 -1047.572)" fill="#00acea"/>
    <path id="Path_3831" data-name="Path 3831" d="M799.477,1077.121a1.319,1.319,0,1,1-1.317-1.256,1.287,1.287,0,0,1,1.317,1.256" transform="translate(-786.983 -1054.188)" fill="#00acea"/>
    <path id="Path_3832" data-name="Path 3832" d="M835.7,1035.554h.015a.553.553,0,0,0,.067,0,1.339,1.339,0,0,1,1.327,1.337.6.6,0,1,0,1.2,0,2.539,2.539,0,0,0-1.992-2.475v-.575a.6.6,0,1,0-1.2,0v.6a2.535,2.535,0,0,0,.655,4.983,1.337,1.337,0,1,1-1.337,1.338.6.6,0,0,0-1.2,0,2.539,2.539,0,0,0,1.88,2.448v.656a.6.6,0,0,0,1.2,0v-.63a2.534,2.534,0,0,0-.543-5.009,1.336,1.336,0,0,1-.071-2.671Z" transform="translate(-807.355 -1030.327)" fill="#3773b5"/>
    <path id="Path_3833" data-name="Path 3833" d="M802.9,1026.628a8.408,8.408,0,0,0-5.125,1.7,8.776,8.776,0,0,0-2.878,3.9H780.037a.626.626,0,0,0-.6.626l-.141,21h-4.236a.589.589,0,0,0-.615.57v2.66a4.721,4.721,0,0,0,4.49,4.688v.013H797.42v-.017c.15.006.217.017.306.017h.013a4.707,4.707,0,0,0,4.695-4.7v-13.474c.15.008.309.013.464.013a8.5,8.5,0,1,0,0-17m-27.253,30.459v-2.032H793v2.023a4.8,4.8,0,0,0,1.6,3.514H779.161a3.524,3.524,0,0,1-3.516-3.505m22.089,3.505h-.008c-.075,0-.167-.007-.254-.012a3.526,3.526,0,0,1-3.27-3.5v-2.651a.553.553,0,0,0-.572-.57H780.494l.137-20.428h13.932a9.323,9.323,0,0,0-.164,1.7,8.861,8.861,0,0,0,.726,3.464h-5.659a.6.6,0,1,0,0,1.2h6.309a8.412,8.412,0,0,0,5.46,3.674v13.623a3.509,3.509,0,0,1-3.5,3.505m5.164-18.163a7.2,7.2,0,0,1-.98-.066h0a7.3,7.3,0,1,1,.981.066Z" transform="translate(-774.447 -1026.627)" fill="#3773b5"/>
    <path id="Path_3834" data-name="Path 3834" d="M797.4,1062.686a1.856,1.856,0,1,0,1.915,1.855,1.888,1.888,0,0,0-1.915-1.855m0,2.513a.661.661,0,1,1,.718-.658.691.691,0,0,1-.718.658" transform="translate(-786.221 -1046.811)" fill="#3773b5"/>
    <path id="Path_3835" data-name="Path 3835" d="M815.783,1065.534H807.8a.6.6,0,1,0,0,1.2h7.981a.6.6,0,1,0,0-1.2" transform="translate(-792.783 -1048.405)" fill="#3773b5"/>
    <path id="Path_3836" data-name="Path 3836" d="M797.4,1050.865a1.856,1.856,0,1,0,1.915,1.856,1.889,1.889,0,0,0-1.915-1.856m0,2.513a.661.661,0,1,1,.718-.658.691.691,0,0,1-.718.658" transform="translate(-786.221 -1040.194)" fill="#3773b5"/>
    <path id="Path_3837" data-name="Path 3837" d="M797.4,1074.505a1.856,1.856,0,1,0,1.915,1.855,1.888,1.888,0,0,0-1.915-1.855m0,2.512a.66.66,0,1,1,.718-.658.691.691,0,0,1-.718.658" transform="translate(-786.221 -1053.427)" fill="#3773b5"/>
    <path id="Path_3838" data-name="Path 3838" d="M815.783,1077.432H807.8a.6.6,0,1,0,0,1.2h7.981a.6.6,0,1,0,0-1.2" transform="translate(-792.783 -1055.065)" fill="#3773b5"/>
  </g>
</svg>
