<svg id="Group_18196" data-name="Group 18196" xmlns="http://www.w3.org/2000/svg" width="40.107" height="40.105" viewBox="0 0 40.107 40.105">
  <path id="Path_39861" data-name="Path 39861" d="M247.685,42.887a20.058,20.058,0,0,1-7.806-38.53,20.058,20.058,0,0,1,15.611,36.953,19.926,19.926,0,0,1-7.806,1.577" transform="translate(-227.632 -2.782)" fill="#fff"/>
  <path id="Path_39862" data-name="Path 39862" d="M255.59,13.049h-.659a18.448,18.448,0,0,0-4.98-6.146l.373-.443a19.146,19.146,0,0,1,5.039,6.133c.079.151.154.3.227.456" transform="translate(-218.448 -1.268)" fill="#ce1126"/>
  <path id="Path_39863" data-name="Path 39863" d="M255.9,21.678q-.169.457-.367.908A18.89,18.89,0,0,1,251.28,28.7l-.4-.416a18.329,18.329,0,0,0,4.405-6.6Z" transform="translate(-218.066 4.996)" fill="#ce1126"/>
  <path id="Path_39864" data-name="Path 39864" d="M234.261,28.282l-.4.416a18.893,18.893,0,0,1-4.247-6.113c-.13-.3-.253-.6-.367-.908h.611a18.315,18.315,0,0,0,4.407,6.6" transform="translate(-226.969 4.996)" fill="#ce1126"/>
  <path id="Path_39865" data-name="Path 39865" d="M235.37,6.9a18.431,18.431,0,0,0-4.98,6.146h-.659c.073-.152.148-.3.227-.455A19.136,19.136,0,0,1,235,6.459Z" transform="translate(-226.768 -1.265)" fill="#ce1126"/>
  <path id="Path_39866" data-name="Path 39866" d="M238.849,26.252l-2.95,4.116-.624-.446L237.3,27.1,234.694,29.5l-.436-.312,1.441-3.241-2.023,2.823-.611-.438,2.95-4.117.882.634-1.344,3.015,2.4-2.257Z" transform="translate(-225.396 6.041)" fill="#ce1126"/>
  <path id="Path_39867" data-name="Path 39867" d="M237.967,29.9l-.764-.311-.576.977-.71-.288L238.6,25.9l.951.387-1.125,5.005L237.7,31Zm.183-.721.508-2.081-1.084,1.846Z" transform="translate(-224.223 6.735)" fill="#ce1126"/>
  <path id="Path_39868" data-name="Path 39868" d="M239.523,26.43l.752.151-.854,4.256,1.34.268-.141.71-2.092-.421Z" transform="translate(-223.148 6.951)" fill="#ce1126"/>
  <path id="Path_39869" data-name="Path 39869" d="M242.512,30.7l-.823-.008-.178,1.119-.766-.008.889-5.052,1.028.011.786,5.069-.781-.008Zm-.093-.738-.289-2.122-.333,2.116Z" transform="translate(-222.236 7.086)" fill="#ce1126"/>
  <path id="Path_39870" data-name="Path 39870" d="M245.282,26.451l-.524,3.074.351,2.09-.756.127L244,29.652l-1.5-2.733.806-.136.906,1.807.278-2.006Z" transform="translate(-221.514 6.961)" fill="#ce1126"/>
  <path id="Path_39871" data-name="Path 39871" d="M245.672,30.27l-.062-.169.663-.33.066.176c.127.346.381.491.666.385a.453.453,0,0,0,.294-.624c-.11-.3-.312-.471-1.036-.782-.961-.409-1.3-.7-1.493-1.222a1.168,1.168,0,1,1,2.188-.8l.045.123-.665.33-.051-.136c-.136-.367-.347-.5-.6-.411s-.336.3-.226.6.34.46,1.038.781c.947.438,1.3.7,1.492,1.224a1.237,1.237,0,1,1-2.321.857" transform="translate(-220.622 6.794)" fill="#ce1126"/>
  <rect id="Rectangle_23237" data-name="Rectangle 23237" width="0.768" height="5.065" transform="translate(26.37 32.326) rotate(-28.921)" fill="#ce1126"/>
  <path id="Path_39872" data-name="Path 39872" d="M250.627,27.713l-.654.5.551.991-.607.466L247.5,25.149l.813-.627,3.749,3.5-.62.474Zm-.529-.524L248.56,25.7l1.045,1.87Z" transform="translate(-219.456 6.167)" fill="#ce1126"/>
  <path id="Path_39873" data-name="Path 39873" d="M234.632,26.937c.049.049.1.1.151.15l-.405.414-.155-.154a17.384,17.384,0,0,1-3.793-5.669h.628a16.816,16.816,0,0,0,3.574,5.259" transform="translate(-226.481 4.996)" fill="#ce1126"/>
  <path id="Path_39874" data-name="Path 39874" d="M235.865,7.748a17.108,17.108,0,0,0-1.455,1.3,16.9,16.9,0,0,0-2.779,3.653h-.661A17.454,17.454,0,0,1,234,8.639,18.047,18.047,0,0,1,235.492,7.3Z" transform="translate(-226.258 -0.918)" fill="#ce1126"/>
  <path id="Path_39875" data-name="Path 39875" d="M254.134,12.7h-.662a16.881,16.881,0,0,0-2.778-3.653,17.129,17.129,0,0,0-1.455-1.3l.373-.443A18.008,18.008,0,0,1,251.1,8.639a17.486,17.486,0,0,1,3.031,4.062" transform="translate(-218.741 -0.918)" fill="#ce1126"/>
  <path id="Path_39876" data-name="Path 39876" d="M254.516,21.678a17.4,17.4,0,0,1-3.793,5.669l-.155.154-.405-.414.151-.15a16.792,16.792,0,0,0,3.574-5.259Z" transform="translate(-218.36 4.996)" fill="#ce1126"/>
  <path id="Path_39877" data-name="Path 39877" d="M235.239,25.832l.055.055-.4.415a.848.848,0,0,1-.062-.062,15.812,15.812,0,0,1-3.191-4.562h.641a15.283,15.283,0,0,0,2.96,4.154" transform="translate(-225.984 4.996)" fill="#ce1126"/>
  <path id="Path_39878" data-name="Path 39878" d="M236.348,8.6A15.508,15.508,0,0,0,234.989,9.8a15.348,15.348,0,0,0-2.058,2.549h-.685A15.869,15.869,0,0,1,234.579,9.4a16.165,16.165,0,0,1,1.4-1.244Z" transform="translate(-225.733 -0.568)" fill="#ce1126"/>
  <path id="Path_39879" data-name="Path 39879" d="M252.625,12.352h-.683a15.541,15.541,0,0,0-3.417-3.757l.373-.442A16.137,16.137,0,0,1,250.292,9.4a15.957,15.957,0,0,1,2.333,2.957" transform="translate(-219.034 -0.569)" fill="#ce1126"/>
  <path id="Path_39880" data-name="Path 39880" d="M253.1,21.678a15.873,15.873,0,0,1-3.191,4.563c-.02.021-.041.041-.061.061l-.4-.415.055-.055a15.276,15.276,0,0,0,2.961-4.154Z" transform="translate(-218.654 4.996)" fill="#ce1126"/>
  <path id="Path_39881" data-name="Path 39881" d="M233.532,21.678a13.759,13.759,0,0,0,2.268,3.014l-.411.408a14.363,14.363,0,0,1-2.517-3.422Z" transform="translate(-225.475 4.996)" fill="#ce1126"/>
  <path id="Path_39882" data-name="Path 39882" d="M236.81,9.442A13.938,13.938,0,0,0,234.29,12h-.717a14.276,14.276,0,0,1,1.565-1.853A14.551,14.551,0,0,1,236.437,9Z" transform="translate(-225.187 -0.22)" fill="#ce1126"/>
  <path id="Path_39883" data-name="Path 39883" d="M251.049,12h-.718a13.76,13.76,0,0,0-1.258-1.443,13.918,13.918,0,0,0-1.261-1.119L248.185,9a14.511,14.511,0,0,1,2.864,3" transform="translate(-219.328 -0.221)" fill="#ce1126"/>
  <path id="Path_39884" data-name="Path 39884" d="M251.657,21.678a14.324,14.324,0,0,1-2.517,3.422l-.411-.408A13.669,13.669,0,0,0,251,21.678Z" transform="translate(-218.95 4.996)" fill="#ce1126"/>
  <path id="Path_39885" data-name="Path 39885" d="M234.537,5.859l.662-.387,2.188,3.75,1.181-.689.364.624-1.844,1.076Z" transform="translate(-224.79 -1.675)" fill="#ce1126"/>
  <path id="Path_39886" data-name="Path 39886" d="M237.723,8.529l-.933-2.6A1.23,1.23,0,0,1,239.1,5.1l.933,2.6a1.23,1.23,0,0,1-2.315.83m1.594-.572-.934-2.6a.464.464,0,1,0-.871.312l.935,2.6a.464.464,0,1,0,.871-.313" transform="translate(-223.899 -2.165)" fill="#ce1126"/>
  <path id="Path_39887" data-name="Path 39887" d="M238.814,4.028l2.415-.392.116.716-.829.134.7,4.287-.758.123-.7-4.287-.829.134Z" transform="translate(-223.031 -2.429)" fill="#ce1126"/>
  <path id="Path_39888" data-name="Path 39888" d="M241.14,3.594l2.443.028-.008.723-.838-.01-.051,4.338-.766-.008.051-4.338-.838-.01Z" transform="translate(-222.077 -2.446)" fill="#ce1126"/>
  <path id="Path_39889" data-name="Path 39889" d="M243.857,3.7,246,4.091l-.131.71-1.388-.254-.254,1.386,1.1.2-.13.711-1.1-.2L243.827,8.1l1.386.254-.13.711-2.141-.394Z" transform="translate(-221.332 -2.402)" fill="#ce1126"/>
  <path id="Path_39890" data-name="Path 39890" d="M246.2,9.537l.23-2.151-.373-.143L245.3,9.2l-.716-.275L246.4,4.192l1.121.431a1.131,1.131,0,0,1,.689,1.558l-.2.521a1.154,1.154,0,0,1-.865.776l-.209,2.345Zm.117-2.97.371.143a.431.431,0,0,0,.608-.27l.209-.548a.43.43,0,0,0-.27-.608l-.373-.143Z" transform="translate(-220.655 -2.2)" fill="#ce1126"/>
  <path id="Path_39891" data-name="Path 39891" d="M250.892,6.517l-2.415,1.972L247.369,10.3l-.653-.4,1.108-1.807.665-3.046.7.428-.5,1.956L250.207,6.1Z" transform="translate(-219.779 -1.849)" fill="#ce1126"/>
  <path id="Path_39892" data-name="Path 39892" d="M257.345,15.534a3.614,3.614,0,0,0-.083-.779,3.252,3.252,0,0,0-1.74-2.232,4.705,4.705,0,0,0-2.037-.538,4.947,4.947,0,0,0-2.514.512,3.383,3.383,0,0,0-1.732,1.894,3.612,3.612,0,0,0-.2,1.231c0,.9,0,1.791,0,2.686v2.668a3.589,3.589,0,0,0,.059.728,3.258,3.258,0,0,0,1.567,2.225,4.7,4.7,0,0,0,2.138.673,4.835,4.835,0,0,0,2.59-.466,3.271,3.271,0,0,0,1.946-3.093c.014-1.836,0-3.674,0-5.511m-3.225,5.076a2.716,2.716,0,0,1-3.1-.891,2.573,2.573,0,0,1-.514-1.568,2.436,2.436,0,0,1,.916-1.856,2.75,2.75,0,0,1,3.526.028,2.538,2.538,0,0,1-.833,4.287" transform="translate(-218.823 1.005)"/>
  <path id="Path_39893" data-name="Path 39893" d="M244.179,18.29q0-1.361,0-2.721a3.705,3.705,0,0,0-.095-.864,3.254,3.254,0,0,0-1.712-2.175,4.685,4.685,0,0,0-2.052-.543,4.876,4.876,0,0,0-2.5.505,3.277,3.277,0,0,0-1.944,3.028c-.023,1.866-.006,3.733,0,5.6a3.171,3.171,0,0,0,.123.861,3.229,3.229,0,0,0,1.685,2.054,4.992,4.992,0,0,0,4.294.219,3.428,3.428,0,0,0,1.663-1.324,3.3,3.3,0,0,0,.536-1.848C244.181,20.149,244.179,19.22,244.179,18.29Zm-3.892,2.47a2.642,2.642,0,0,1-1.989-.57,2.436,2.436,0,0,1-.881-2.541,2.4,2.4,0,0,1,1.838-1.876,2.642,2.642,0,0,1,2.618.632,2.316,2.316,0,0,1,.768,1.649,2.6,2.6,0,0,1-2.354,2.706" transform="translate(-224.242 1.005)"/>
  <path id="Path_39894" data-name="Path 39894" d="M247.334,15.734c-.044.045-.028.095-.028.138q0,2.111,0,4.22a.638.638,0,0,0,.064.285,1.676,1.676,0,0,0,1.395.992c.086.01.195-.023.25.04s.018.167.018.253q0,1.421,0,2.841c0,.041,0,.082,0,.123,0,.056-.018.088-.081.083-.034,0-.069,0-.1,0h-4.586c-.144,0-.151.023-.151-.151q0-1.516,0-3.033c0-.155,0-.14.144-.147a1.854,1.854,0,0,0,.642-.143,1.644,1.644,0,0,0,.894-.908.459.459,0,0,0,.039-.185V15.82a.12.12,0,0,0-.021-.088,1.565,1.565,0,0,0-.765.342,2.461,2.461,0,0,0-.611.752,4.715,4.715,0,0,0-.487,1.409c-.025.131-.024.133-.147.134-.354,0-.709,0-1.063,0-.083,0-.119-.024-.107-.109a.6.6,0,0,0,0-.088V12.037c0-.215-.023-.191.182-.191h7.515c.03,0,.058,0,.087,0,.064-.006.1.014.092.085,0,.041,0,.082,0,.123v6.12c0,.195,0,.195-.191.195h-1.029c-.127,0-.126,0-.15-.124a5.088,5.088,0,0,0-.452-1.368,2.409,2.409,0,0,0-.707-.871,1.4,1.4,0,0,0-.642-.272" transform="translate(-221.462 0.951)"/>
  <path id="Path_39895" data-name="Path 39895" d="M237.327,11.876c0,.058.01.116.01.174v6.188c0,.137,0,.128-.119.128-.371,0-.744,0-1.115,0-.1,0-.124-.035-.141-.126a4.678,4.678,0,0,0-.487-1.444,2.343,2.343,0,0,0-.68-.806,1.342,1.342,0,0,0-.637-.258.353.353,0,0,0-.015.171q0,2.083,0,4.167a.732.732,0,0,0,.082.351,1.667,1.667,0,0,0,1.39.943c.247.025.249.021.249.278V24.5c0,.04,0,.08,0,.121,0,.058-.021.086-.082.082-.035,0-.069,0-.1,0h-4.6c-.13,0-.131,0-.131-.136q0-1.527,0-3.052c0-.131,0-.134.128-.143a2.035,2.035,0,0,0,.5-.085,1.659,1.659,0,0,0,1.044-.934.53.53,0,0,0,.051-.234q0-2.136,0-4.271a.181.181,0,0,0-.023-.124,1.633,1.633,0,0,0-.92.484,3.136,3.136,0,0,0-.706,1.167,4.874,4.874,0,0,0-.24.889c-.011.071-.032.1-.106.1-.373,0-.744,0-1.116,0-.075,0-.089-.032-.083-.095,0-.023,0-.047,0-.069V12.031c0-.051.006-.1.008-.155a.336.336,0,0,1,.171-.016q3.756,0,7.511,0a.336.336,0,0,1,.171.016" transform="translate(-226.878 0.953)"/>
</svg>
