<svg xmlns="http://www.w3.org/2000/svg" width="38.359" height="35.163" viewBox="0 0 38.359 35.163">
  <g id="Group_19424" data-name="Group 19424" transform="translate(-209.093 -361.686)">
    <path id="Path_3899" data-name="Path 3899" d="M608.535,1053.512a1.2,1.2,0,0,1-1.2-1.2,8.4,8.4,0,0,0-8.391-8.391H587.358v5.194a1.2,1.2,0,0,1-2.027.866l-8.789-8.389a1.2,1.2,0,0,1,0-1.732l8.791-8.391a1.2,1.2,0,0,1,2.027.866v5.193h9.989a12.4,12.4,0,0,1,12.386,12.386v2.4a1.2,1.2,0,0,1-1.2,1.2" transform="translate(-362.281 -669.451)" fill="#00e0e2"/>
    <path id="Path_3900" data-name="Path 3900" d="M605.643,1050.459H576.17a1.2,1.2,0,0,0,.371.866l8.79,8.391a1.177,1.177,0,0,0,.818.332,1.2,1.2,0,0,0,1.208-1.2v-5.194h11.587a8.4,8.4,0,0,1,8.391,8.391,1.2,1.2,0,0,0,2.4,0v-2.4a12.363,12.363,0,0,0-4.091-9.189" transform="translate(-362.282 -679.184)" fill="#00bccf"/>
    <path id="Path_3901" data-name="Path 3901" d="M588.885,1078.077v-5.195H578.9A12.4,12.4,0,0,1,566.51,1060.5v-2.4a1.2,1.2,0,0,1,2.4,0,8.4,8.4,0,0,0,8.391,8.391h11.587V1061.3a1.2,1.2,0,0,1,2.027-.866l8.791,8.391a1.2,1.2,0,0,1,0,1.732l-8.791,8.391a1.2,1.2,0,0,1-2.028-.866" transform="translate(-357.417 -682.428)" fill="#00e0e2"/>
    <path id="Path_3902" data-name="Path 3902" d="M604.222,1082.664H574.749a12.335,12.335,0,0,0,8.3,3.2h9.989v5.195a1.2,1.2,0,0,0,1.208,1.2,1.169,1.169,0,0,0,.818-.332l8.791-8.391a1.2,1.2,0,0,0,.371-.867" transform="translate(-361.566 -695.406)" fill="#00bccf"/>
  </g>
</svg>
