<svg id="Group_4258" data-name="Group 4258" xmlns="http://www.w3.org/2000/svg" width="38.027" height="38.04" viewBox="0 0 38.027 38.04">
  <path id="Path_3811" data-name="Path 3811" d="M362.924,407.512l13.193-3.535-10.022-10.022-3.535,13.193a.3.3,0,0,0,.364.364" transform="translate(-354.443 -377.588)" fill="#e4f6ff"/>
  <path id="Path_3812" data-name="Path 3812" d="M373.69,410.385l-10.378,2.781-.756,2.821a.294.294,0,0,0,.36.36l13.2-3.536Z" transform="translate(-354.442 -386.421)" fill="#cbe2ff"/>
  <path id="Path_3813" data-name="Path 3813" d="M371.215,404.8l-8.471,8.471a.292.292,0,0,0,.279.072l13.2-3.537Z" transform="translate(-354.548 -383.419)" fill="#cbe2ff"/>
  <path id="Path_3814" data-name="Path 3814" d="M373.8,410.385l-7.052,1.889-4,4a.291.291,0,0,0,.279.071l13.2-3.536Z" transform="translate(-354.548 -386.421)" fill="#9dc6fb"/>
  <path id="Path_3815" data-name="Path 3815" d="M385.655,359.764l-33.861,9.073a.3.3,0,0,0-.133.5l24.788,24.788a.3.3,0,0,0,.5-.133l9.073-33.861A.3.3,0,0,0,385.655,359.764Z" transform="translate(-348.542 -359.2)" fill="#e4f6ff"/>
  <path id="Path_3816" data-name="Path 3816" d="M410.875,359.76l-4.363,1.169-8.039,30,3.194,3.194a.294.294,0,0,0,.492-.132l9.076-33.872a.294.294,0,0,0-.36-.36" transform="translate(-373.757 -359.198)" fill="#cbe2ff"/>
  <path id="Path_3817" data-name="Path 3817" d="M397.821,359.977a.3.3,0,0,0-.213-.208L373.524,379.4l4.663,4.663Z" transform="translate(-360.343 -359.209)" fill="#9dc6fb"/>
  <path id="Path_3818" data-name="Path 3818" d="M401.029,359.77l-8.175,6.665-12.968,15.912,1.722,1.722,19.634-24.091a.3.3,0,0,0-.213-.208" transform="translate(-363.764 -359.209)" fill="#80b4fb"/>
  <path id="Path_3819" data-name="Path 3819" d="M388.509,377.662a6.849,6.849,0,1,0-4.947,6.586l4.926-6.043q.021-.269.021-.543" transform="translate(-361.029 -365.142)" fill="#ffe07d"/>
  <path id="Path_3820" data-name="Path 3820" d="M389.758,378.91a6.851,6.851,0,0,0-3.17-5.782,6.857,6.857,0,0,1-9.467,9.468,6.865,6.865,0,0,0,7.691,2.9l4.926-6.043q.021-.269.021-.543" transform="translate(-362.277 -366.391)" fill="#ffd064"/>
  <path id="Path_3821" data-name="Path 3821" d="M385.923,359.252a.849.849,0,0,0-1.048-.665l-28.013,7.506a.551.551,0,1,0,.285,1.065l6.654-1.783a7.4,7.4,0,0,0-.551,10.9l-2.133,1.739-9.4-9.4,2.929-.785a.551.551,0,0,0-.286-1.065l-3.359.9a.845.845,0,0,0-.379,1.414l7.826,7.826-2.968,11.078a.852.852,0,0,0,1.035,1.035l11.077-2.968,7.826,7.826a.851.851,0,0,0,1.413-.379L380.5,379.8a.551.551,0,1,0-1.064-.285l-3.554,13.263-9.4-9.4,17.756-21.785-4.125,15.393a.551.551,0,0,0,1.065.285c.016-.365,4.892-17.664,4.743-18.019m-3.031,1.007-6.679,5.445a.551.551,0,0,0,.7.854l5.548-4.523-6.589,8.084a7.425,7.425,0,0,0-6.1-6.344Zm-14.368,4.512a6.312,6.312,0,0,1,6.3,6.3c0,.109,0,.22-.009.33l-4.7,5.771a6.305,6.305,0,1,1-1.592-12.406m-5.887,16.318-5.694,5.694,2.406-8.981Zm-4.9,6.456,5.677-5.677,3.278,3.277Zm4.161-8.751,2.192-1.787a7.37,7.37,0,0,0,4.431,1.475q.273,0,.545-.02L365.7,382.6Z" transform="translate(-347.899 -358.557)" fill="#0071bc"/>
  <path id="Path_3822" data-name="Path 3822" d="M357.572,429.8l-4.07,4.07a.551.551,0,0,0,.78.78l4.07-4.07a.551.551,0,0,0-.78-.78" transform="translate(-349.492 -396.774)" fill="#0071bc"/>
  <path id="Path_3823" data-name="Path 3823" d="M345.57,426.492a.549.549,0,0,0,.389-.161l4.071-4.07a.551.551,0,0,0-.78-.78l-4.071,4.07a.551.551,0,0,0,.39.941" transform="translate(-345.018 -392.3)" fill="#0071bc"/>
  <path id="Path_3824" data-name="Path 3824" d="M350.246,429.586a.552.552,0,0,0-.78,0l-4.071,4.07a.551.551,0,1,0,.78.78l4.07-4.07a.552.552,0,0,0,0-.78" transform="translate(-345.134 -396.657)" fill="#0071bc"/>
  <path id="Path_3825" data-name="Path 3825" d="M384.494,383.151a3.083,3.083,0,0,0,1.641.587v.506a.551.551,0,1,0,1.1,0v-.552a2.528,2.528,0,0,0,1.948-2.065,2.222,2.222,0,0,0-1.529-2.543c-.138-.049-.278-.1-.418-.152v-2.308a1.484,1.484,0,0,1,.548.274.551.551,0,0,0,.743-.814,2.661,2.661,0,0,0-1.291-.587v-.452a.551.551,0,1,0-1.1,0v.492c-.065.015-.131.032-.2.052a2.107,2.107,0,0,0-1.444,1.653,1.86,1.86,0,0,0,.611,1.833,4.895,4.895,0,0,0,1.031.594v2.961a2.022,2.022,0,0,1-1.038-.4.551.551,0,1,0-.6.922m1.29-4.941a.784.784,0,0,1-.208-.762,1.042,1.042,0,0,1,.559-.756v1.748a2.854,2.854,0,0,1-.351-.23m1.5,1.913a1.14,1.14,0,0,1,.81,1.321,1.45,1.45,0,0,1-.861,1.1v-2.435l.051.019" transform="translate(-366.107 -367.126)" fill="#0071bc"/>
</svg>
