<svg xmlns="http://www.w3.org/2000/svg" width="12.656" height="12.656" viewBox="0 0 12.656 12.656">
  <g id="Layer_2" data-name="Layer 2" transform="translate(0 0)">
    <path id="Path_54453" data-name="Path 54453" d="M11.858,2.151H10.78V1.575a.575.575,0,0,0-1.151,0v.575H7.9V1.575a.575.575,0,1,0-1.151,0v.575H5.027V1.575a.575.575,0,1,0-1.151,0v.575H2.8A1.8,1.8,0,0,0,1,3.948V5.6H13.656V3.948A1.8,1.8,0,0,0,11.858,2.151Z" transform="translate(-1 -1)" fill="#043655"/>
    <path id="Path_54454" data-name="Path 54454" d="M1,16.106a1.8,1.8,0,0,0,1.8,1.8h9.06a1.8,1.8,0,0,0,1.8-1.8V11H1Zm4.2-2.311a.575.575,0,0,1,.813,0l.744.743,1.894-1.894a.575.575,0,1,1,.813.813l-2.3,2.3a.575.575,0,0,1-.813,0L5.2,14.608A.575.575,0,0,1,5.2,13.794Z" transform="translate(-1 -5.247)" fill="#043655"/>
  </g>
</svg>
