<svg xmlns="http://www.w3.org/2000/svg" width="9.725" height="14.237" viewBox="0 0 9.725 14.237">
  <g id="Group_22676" data-name="Group 22676" transform="translate(-259.193 -1123.279)">
    <path id="Path_50467" data-name="Path 50467" d="M-1587.127-17220.406c.172-1.092-.057-5,4.827-4.6s3.391,6.381,3.391,6.381-2.414,1.607-2.356,3.906-1.034,2.7-1.034,2.7h-1.494l-.575-1.033v-.979l-.4-1.033-.287-1.553-1.264-1.32A4.239,4.239,0,0,1-1587.127-17220.406Z" transform="translate(1846.965 18348.965)" fill="#043655"/>
    <g id="bulb" transform="translate(259.423 1123.504)">
      <path id="Path_33521" data-name="Path 33521" d="M13.437,16.007h1.11a.951.951,0,0,0,.949-.949V14.71a.949.949,0,0,0,.555-.861V12.672a.941.941,0,0,0,.089-.4,2.124,2.124,0,0,1,.212-.926,2.318,2.318,0,0,1,.59-.762A4.744,4.744,0,0,0,14.09,2.223l-.1,0-.112,0a4.744,4.744,0,0,0-2.839,8.364,2.322,2.322,0,0,1,.59.763,2.124,2.124,0,0,1,.212.926.942.942,0,0,0,.089.4v1.177a.948.948,0,0,0,.555.861v.348A.951.951,0,0,0,13.437,16.007Zm1.426-.949a.317.317,0,0,1-.316.316h-1.11a.317.317,0,0,1-.316-.316V14.8h1.743Zm.555-1.208a.317.317,0,0,1-.316.316H12.881a.317.317,0,0,1-.316-.316v-.654a.933.933,0,0,0,.228.031h2.4a.933.933,0,0,0,.228-.031Zm-2.943-1.573a2.75,2.75,0,0,0-.275-1.2,2.965,2.965,0,0,0-.752-.972,4.112,4.112,0,0,1,2.444-7.248l.1,0,.084,0A4.111,4.111,0,0,1,16.534,10.1a2.965,2.965,0,0,0-.752.972,2.75,2.75,0,0,0-.275,1.2.317.317,0,0,1-.316.316h-2.4A.317.317,0,0,1,12.476,12.276Z" transform="translate(-9.358 -2.22)" fill="#043655" stroke="#043655" stroke-width="0.45"/>
      <path id="Path_33520" data-name="Path 33520" d="M17.481,6.346a.316.316,0,0,0-.316-.316A3.168,3.168,0,0,0,14,9.194a.316.316,0,1,0,.633,0,2.534,2.534,0,0,1,2.531-2.531.316.316,0,0,0,.316-.316Z" transform="translate(-12.531 -4.824)" fill="#e8edf6" stroke="#e8edf6" stroke-width="0.45"/>
    </g>
  </g>
</svg>
