<svg xmlns="http://www.w3.org/2000/svg" xmlns:xlink="http://www.w3.org/1999/xlink" width="15.636" height="13.1" viewBox="0 0 15.636 13.1"><defs><style>.a{fill:#043655;}.b{clip-path:url(#a);}</style><clipPath id="a"><rect class="a" width="15.636" height="13.1"/></clipPath></defs><g class="b"><path class="a" d="M14.783,73.945H10.5v.18a1.469,1.469,0,0,1-1.467,1.467H6.6a1.469,1.469,0,0,1-1.467-1.467v-.18H.853A.853.853,0,0,0,0,74.8v2.315a.853.853,0,0,0,.853.853h13.93a.853.853,0,0,0,.853-.853V74.8a.853.853,0,0,0-.853-.853m-13.112,2.3a.285.285,0,1,1,.285-.285.285.285,0,0,1-.285.285m.8,0a.285.285,0,1,1,.285-.285.285.285,0,0,1-.285.285m.8,0a.285.285,0,1,1,.285-.285.285.285,0,0,1-.285.285m9.1,0a.285.285,0,1,1,.285-.285.285.285,0,0,1-.285.285m.8,0a.285.285,0,1,1,.285-.285.285.285,0,0,1-.285.285m.8,0a.285.285,0,1,1,.285-.285.285.285,0,0,1-.285.285" transform="translate(0 -64.867)"/><path class="a" d="M40.648,3.885,37.511.206a.587.587,0,0,0-.893,0l-3.137,3.68a.587.587,0,0,0,.447.967h1.066V9.258a.853.853,0,0,0,.853.853h2.436a.853.853,0,0,0,.853-.853V4.853H40.2a.587.587,0,0,0,.447-.967" transform="translate(-29.246 0)"/></g></svg>