<svg xmlns="http://www.w3.org/2000/svg" xmlns:xlink="http://www.w3.org/1999/xlink" width="17.133" height="17.13" viewBox="0 0 17.133 17.13"><defs><style>.a{fill:#043655;}.b{clip-path:url(#a);}</style><clipPath id="a"><rect class="a" width="17.133" height="17.13"/></clipPath></defs><g class="b"><path class="a" d="M70.869,179.368a.466.466,0,1,0-.466-.466.467.467,0,0,0,.466.466" transform="translate(-65.597 -166.255)"/><path class="a" d="M17.111,8.424A.467.467,0,0,0,17,8.236L15.149,6.393l1.843-1.843a.466.466,0,0,0-.192-.774L12.143,2.337a3.429,3.429,0,0,0-6.406-.25L.326,3.775a.466.466,0,0,0-.19.774L2.051,6.463l-1.2,2a.466.466,0,0,0,.161.639.468.468,0,0,0,.091.042l1.728.576v4.965a.468.468,0,0,0,.3.436L8.41,17.1a.467.467,0,0,0,.3,0l5.933-1.974a.466.466,0,0,0,.319-.442V9.59l1.847-.58a.466.466,0,0,0,.3-.585M9.03,9.7l.921,1.154a.463.463,0,0,0,.5.153l3.568-1.121,0,4.47L9.03,16.017Zm5.335-2.775L15.79,8.347l-5.308,1.672L9.345,8.6ZM10.662,5.2a2.482,2.482,0,0,1-1.768.731h0A2.5,2.5,0,0,1,6.531,2.618h0A2.5,2.5,0,1,1,10.662,5.2m-4.369.469a3.428,3.428,0,0,0,5.045.166l1.679.56L8.564,7.877,4.111,6.393Zm6.028-2.3,3.465,1.07L14.364,5.86l-2.447-.816a3.441,3.441,0,0,0,.4-1.614h0c0-.021,0-.043,0-.064M7.866,8.629l-.9,1.492L1.948,8.448l.9-1.5Zm-4.1,1.4c1.347.447,2.135.711,2.613.872.719.242.72.242.793.241h.007a.469.469,0,0,0,.4-.226l.523-.874v5.946L3.762,14.366ZM5.774,4.856l-3.011,1L1.339,4.435l4.137-1.29c-.008.095-.012.19-.012.285a3.425,3.425,0,0,0,.311,1.427" transform="translate(0.001 0)"/><path class="a" d="M89.786,185.055l-.042-.016-.726-.273a.466.466,0,0,0-.37.856l.042.016.726.273a.466.466,0,0,0,.37-.856" transform="translate(-82.336 -172.118)"/><path class="a" d="M73.241,199.448l-1.982-.744-.007,0a.466.466,0,0,0-.327.872l1.982.743.007,0a.47.47,0,0,0,.141.022.466.466,0,0,0,.186-.893" transform="translate(-65.823 -185.117)"/><path class="a" d="M111.9,29.091l-1.646,1.647-.333-.332a.466.466,0,0,0-.655.662l.658.658h0a.467.467,0,0,0,.659,0l1.975-1.975a.466.466,0,1,0-.659-.66" transform="translate(-101.693 -26.979)"/></g></svg>