<svg xmlns="http://www.w3.org/2000/svg" width="13.929" height="16.696" viewBox="0 0 13.929 16.696"><defs><style>.a{fill:#043655;}</style></defs><g transform="translate(0 0)"><path class="a" d="M91.053,8.043A3.891,3.891,0,0,0,93.9,6.864a3.891,3.891,0,0,0,1.178-2.843A3.891,3.891,0,0,0,93.9,1.178a4.02,4.02,0,0,0-5.686,0,3.891,3.891,0,0,0-1.178,2.843A3.891,3.891,0,0,0,88.21,6.865,3.892,3.892,0,0,0,91.053,8.043Zm0,0" transform="translate(-84.194 0)"/><path class="a" d="M13.9,252.09a9.933,9.933,0,0,0-.135-1.055,8.312,8.312,0,0,0-.259-1.061,5.239,5.239,0,0,0-.436-.989,3.733,3.733,0,0,0-.658-.857,2.9,2.9,0,0,0-.945-.593,3.263,3.263,0,0,0-1.206-.218,1.224,1.224,0,0,0-.654.277c-.2.128-.425.276-.681.439a3.9,3.9,0,0,1-.881.388,3.421,3.421,0,0,1-2.155,0,3.892,3.892,0,0,1-.88-.388c-.253-.162-.483-.31-.681-.439a1.222,1.222,0,0,0-.653-.277,3.259,3.259,0,0,0-1.206.218,2.9,2.9,0,0,0-.945.593,3.734,3.734,0,0,0-.657.857,5.249,5.249,0,0,0-.436.989,8.332,8.332,0,0,0-.259,1.061,9.9,9.9,0,0,0-.135,1.055c-.022.319-.033.651-.033.986a2.772,2.772,0,0,0,.823,2.1,2.964,2.964,0,0,0,2.122.774h8.039a2.963,2.963,0,0,0,2.122-.774,2.771,2.771,0,0,0,.824-2.1c0-.336-.011-.668-.034-.986Zm0,0" transform="translate(0 -239.252)"/></g></svg>