<svg xmlns="http://www.w3.org/2000/svg" xmlns:xlink="http://www.w3.org/1999/xlink" width="25.415" height="25.415" viewBox="0 0 25.415 25.415">
  <defs>
    <clipPath id="clip-path">
      <rect id="Rectangle_7355" data-name="Rectangle 7355" width="25.415" height="25.415" fill="none"/>
    </clipPath>
  </defs>
  <g id="Group_4330" data-name="Group 4330" transform="translate(0 0)">
    <g id="Group_4218" data-name="Group 4218" transform="translate(0 0)" clip-path="url(#clip-path)">
      <path id="Path_4030" data-name="Path 4030" d="M33.207,21.6a11.5,11.5,0,0,1-2.354,7.007,11.715,11.715,0,0,1-4,3.347A11.606,11.606,0,0,1,10,21.6a11.6,11.6,0,1,1,23.207,0" transform="translate(-8.896 -8.896)" fill="#e6e6e6"/>
      <path id="Path_4031" data-name="Path 4031" d="M38.748,52.577a3.083,3.083,0,0,1-2.157-1.705c.725-1.141,1.436-2.249,2.132-3.366a4.966,4.966,0,0,0,.438-.885c.214-.573.253-1.124-.366-1.459,0-.755-.014-1.471,0-2.187a3.793,3.793,0,0,0-1.523-3.257,9.7,9.7,0,0,0-3.072-1.68,3.458,3.458,0,0,0-1.576-.172l.161.992c-.17.076-.342.168-.523.232a4.685,4.685,0,0,0-1.555.916,3.408,3.408,0,0,0-1.2,2.567c-.02.825,0,1.65,0,2.5a1.225,1.225,0,0,0-.449,1.685,4.456,4.456,0,0,0,.384.728c.627.992,1.264,1.979,1.935,3.024a4.468,4.468,0,0,0-.21.553,1.86,1.86,0,0,1-1.51,1.421c-.87.219-1.742.436-2.608.67-.5.135-2.019.663-2.981.985a12.707,12.707,0,0,0,20.18-.1c-1.632-.434-4.249-1.146-5.5-1.464" transform="translate(-21.413 -33.66)" fill="#2b3990"/>
      <path id="Path_4032" data-name="Path 4032" d="M12.707,0A12.707,12.707,0,1,0,25.415,12.708,12.707,12.707,0,0,0,12.707,0m9.249,19.714a11.715,11.715,0,0,1-4,3.347A11.61,11.61,0,0,1,3.529,19.806a11.485,11.485,0,0,1-2.425-7.1,11.6,11.6,0,1,1,23.207,0,11.5,11.5,0,0,1-2.354,7.007" fill="#2b3990"/>
      <path id="Path_4033" data-name="Path 4033" d="M162.628,158.432c0,.335-.933.543-1.016.852s.616.966.454,1.246-1.076,0-1.307.229.055,1.142-.229,1.307-.926-.539-1.246-.454-.517,1.016-.852,1.016-.543-.933-.852-1.016-.966.616-1.246.454,0-1.076-.229-1.307-1.142.055-1.307-.229.539-.926.454-1.246-1.015-.517-1.015-.852.933-.543,1.016-.852-.616-.966-.454-1.246,1.076,0,1.307-.229-.055-1.142.229-1.306.926.539,1.246.454.517-1.016.852-1.016.543.933.852,1.016.966-.616,1.246-.454,0,1.076.229,1.306,1.142-.055,1.307.229-.539.926-.454,1.246,1.016.517,1.016.852" transform="translate(-137.213 -137.212)" fill="#3897f0"/>
      <path id="Path_4034" data-name="Path 4034" d="M181.447,186.068l-.415-.512a.424.424,0,0,1,.658-.534l.212.261,1.34-1a.424.424,0,1,1,.506.68l-1.6,1.19a.511.511,0,0,1-.7-.088" transform="translate(-160.966 -163.871)" fill="#fff"/>
    </g>
  </g>
</svg>
