<svg xmlns="http://www.w3.org/2000/svg" width="15.201" height="13.934" viewBox="0 0 15.201 13.934">
  <g id="Group_19424" data-name="Group 19424" transform="translate(-209.093 -361.686)">
    <path id="Path_3899" data-name="Path 3899" d="M589,1040a.475.475,0,0,1-.475-.475,3.329,3.329,0,0,0-3.325-3.325H580.6v2.058a.475.475,0,0,1-.8.343l-3.483-3.324a.474.474,0,0,1,0-.686l3.484-3.325a.475.475,0,0,1,.8.343v2.058h3.958a4.914,4.914,0,0,1,4.908,4.908v.95A.475.475,0,0,1,589,1040" transform="translate(-365.177 -669.451)" fill="#043655"/>
    <path id="Path_3900" data-name="Path 3900" d="M587.849,1050.459H576.17a.475.475,0,0,0,.147.343l3.483,3.325a.466.466,0,0,0,.324.132.474.474,0,0,0,.479-.475v-2.058H585.2a3.329,3.329,0,0,1,3.325,3.325.475.475,0,1,0,.95,0v-.95a4.9,4.9,0,0,0-1.621-3.642" transform="translate(-365.177 -684.973)" fill="#043655"/>
    <path id="Path_3901" data-name="Path 3901" d="M575.377,1065.292v-2.058h-3.958a4.914,4.914,0,0,1-4.908-4.908v-.95a.475.475,0,0,1,.95,0,3.329,3.329,0,0,0,3.325,3.325h4.592v-2.058a.475.475,0,0,1,.8-.343l3.484,3.325a.474.474,0,0,1,0,.686l-3.484,3.325a.476.476,0,0,1-.8-.343" transform="translate(-357.417 -690.147)" fill="#043655"/>
    <path id="Path_3902" data-name="Path 3902" d="M586.428,1082.664H574.749a4.888,4.888,0,0,0,3.287,1.267h3.958v2.058a.475.475,0,0,0,.479.475.463.463,0,0,0,.324-.132l3.484-3.325a.475.475,0,0,0,.147-.344" transform="translate(-364.035 -710.845)" fill="#043655"/>
  </g>
</svg>
