<svg xmlns="http://www.w3.org/2000/svg" width="17.326" height="16.286" viewBox="0 0 17.326 16.286">
  <g id="Group_22980" data-name="Group 22980" transform="translate(-40.42 -257.531)">
    <g id="wallet_1_" data-name="wallet (1)" transform="translate(40.42 257.531)">
      <path id="Path_54465" data-name="Path 54465" d="M17.538,8.9V6.968a1.62,1.62,0,0,0-1.622-1.622H14.861L6.237,1.755a1.194,1.194,0,0,0-1.575.662L3.489,5.346H2.622A1.62,1.62,0,0,0,1,6.968v9.356a1.62,1.62,0,0,0,1.622,1.622H15.916a1.62,1.62,0,0,0,1.622-1.622V14.395a.816.816,0,0,0,.788-.811V9.709a.816.816,0,0,0-.788-.811ZM5.395,2.708a.394.394,0,0,1,.221-.228.436.436,0,0,1,.315,0l6.883,2.867H10.907L6.245,3.794a.394.394,0,0,0-.5.228L5.237,5.346h-.9ZM8.419,5.346H6.088l.26-.685Zm8.332,10.978a.836.836,0,0,1-.835.835H2.622a.836.836,0,0,1-.835-.835V6.968a.84.84,0,0,1,.835-.835H15.916a.84.84,0,0,1,.835.835V8.89H13.207a2.756,2.756,0,1,0,0,5.513h3.544Zm.788-2.741a.034.034,0,0,1-.032.032h-4.3a1.969,1.969,0,1,1,0-3.938l4.332.032Z" transform="translate(-1 -1.661)" fill="#043655"/>
      <path id="Path_54466" data-name="Path 54466" d="M16.181,12.84a1.181,1.181,0,1,0,1.181,1.181A1.181,1.181,0,0,0,16.181,12.84Zm0,1.575a.394.394,0,1,1,.394-.394A.394.394,0,0,1,16.181,14.415Z" transform="translate(-3.974 -4.036)" fill="#043655"/>
      <path id="Path_54467" data-name="Path 54467" d="M6.363,9.734a.394.394,0,0,1-.394.394H4.394a.394.394,0,1,1,0-.788H5.969A.394.394,0,0,1,6.363,9.734Z" transform="translate(-1.637 -3.292)" fill="#043655"/>
      <path id="Path_54468" data-name="Path 54468" d="M7.938,11.734a.394.394,0,0,1-.394.394H4.394a.394.394,0,1,1,0-.788h3.15A.394.394,0,0,1,7.938,11.734Z" transform="translate(-1.637 -3.717)" fill="#043655"/>
    </g>
    <path id="Path_54469" data-name="Path 54469" d="M1798.906,1438.25s.044-1.344,1.846-1.344h13.216l.355.5h0l.325.945-.1,2.082h-4.031l-1.875.827-.34,1.934.34.989.576.546.709.221,1.226.177h3.057l.443,1.107-.1,1.167-.266.9-1.477.5h-13.054l-.842-.842v-9.716Z" transform="translate(-1758.027 -1175.24)" fill="#043655"/>
  </g>
</svg>
