<svg xmlns="http://www.w3.org/2000/svg" width="39.752" height="38.04" viewBox="0 0 39.752 38.04">
  <g id="Group_4260" data-name="Group 4260" transform="translate(0 0)">
    <path id="Path_3892" data-name="Path 3892" d="M573.245,369.3H544.458v-2.742l14.393-5.483,14.394,5.483Z" transform="translate(-544.458 -361.072)" fill="#4398d1"/>
    <rect id="Rectangle_7297" data-name="Rectangle 7297" width="2.742" height="12.337" transform="translate(23.303 8.225)" fill="#4398d1"/>
    <rect id="Rectangle_7298" data-name="Rectangle 7298" width="2.742" height="12.337" transform="translate(16.449 8.225)" fill="#4398d1"/>
    <rect id="Rectangle_7299" data-name="Rectangle 7299" width="2.742" height="12.337" transform="translate(9.595 8.225)" fill="#4398d1"/>
    <rect id="Rectangle_7300" data-name="Rectangle 7300" width="2.742" height="12.337" transform="translate(2.741 8.225)" fill="#4398d1"/>
    <rect id="Rectangle_7301" data-name="Rectangle 7301" width="2.742" height="1.371" transform="translate(23.303 8.225)" fill="#3582bd"/>
    <rect id="Rectangle_7302" data-name="Rectangle 7302" width="2.742" height="1.371" transform="translate(16.449 8.225)" fill="#3582bd"/>
    <rect id="Rectangle_7303" data-name="Rectangle 7303" width="2.742" height="1.371" transform="translate(9.595 8.225)" fill="#3582bd"/>
    <rect id="Rectangle_7304" data-name="Rectangle 7304" width="2.742" height="1.371" transform="translate(2.741 8.225)" fill="#3582bd"/>
    <rect id="Rectangle_7305" data-name="Rectangle 7305" width="26.045" height="2.742" transform="translate(1.371 20.562)" fill="#3e8cc7"/>
    <rect id="Rectangle_7306" data-name="Rectangle 7306" width="28.786" height="2.742" transform="translate(0 23.303)" fill="#4398d1"/>
    <path id="Path_3893" data-name="Path 3893" d="M573.642,368.011a1.37,1.37,0,1,1-1.371-1.371,1.371,1.371,0,0,1,1.371,1.371" transform="translate(-557.878 -363.898)" fill="#3582bd"/>
    <rect id="Rectangle_7307" data-name="Rectangle 7307" width="13.708" height="23.303" transform="translate(21.932 14.051)" fill="#88b337"/>
    <path id="Path_3894" data-name="Path 3894" d="M588.992,414.445v4.112H602.7v-17.82Z" transform="translate(-567.06 -381.202)" fill="#80a834"/>
    <path id="Path_3895" data-name="Path 3895" d="M601.413,412.99H595.93a1.37,1.37,0,0,0-1.371-1.371V396.54a1.37,1.37,0,0,0,1.371-1.37h5.483a1.37,1.37,0,0,0,1.371,1.37v15.079a1.371,1.371,0,0,0-1.371,1.371" transform="translate(-569.885 -378.377)" fill="#6b962a"/>
    <path id="Path_3896" data-name="Path 3896" d="M602.784,409.731c0-1.893-1.841-3.427-4.112-3.427s-4.113,1.534-4.113,3.427,1.841,3.427,4.113,3.427,4.112-1.535,4.112-3.427" transform="translate(-569.885 -384.028)" fill="#88b337"/>
    <rect id="Rectangle_7308" data-name="Rectangle 7308" width="1.371" height="1.371" transform="translate(28.101 18.848)" fill="#88b337"/>
    <rect id="Rectangle_7309" data-name="Rectangle 7309" width="1.371" height="1.371" transform="translate(28.101 31.185)" fill="#88b337"/>
    <rect id="Rectangle_7310" data-name="Rectangle 7310" width="1.371" height="1.371" transform="translate(9.595 30.843)" fill="#fdb62f"/>
    <rect id="Rectangle_7311" data-name="Rectangle 7311" width="1.371" height="1.371" transform="translate(9.595 28.102)" fill="#fdb62f"/>
    <rect id="Rectangle_7312" data-name="Rectangle 7312" width="1.371" height="1.371" transform="translate(9.595 33.584)" fill="#fdb62f"/>
    <rect id="Rectangle_7313" data-name="Rectangle 7313" width="1.371" height="1.371" transform="translate(9.595 36.326)" fill="#fdb62f"/>
    <rect id="Rectangle_7314" data-name="Rectangle 7314" width="1.371" height="1.371" transform="translate(12.337 36.326)" fill="#fdb62f"/>
    <rect id="Rectangle_7315" data-name="Rectangle 7315" width="1.371" height="1.371" transform="translate(15.079 36.326)" fill="#fdb62f"/>
    <rect id="Rectangle_7316" data-name="Rectangle 7316" width="1.371" height="1.371" transform="translate(17.82 36.326)" fill="#fdb62f"/>
    <path id="Path_3897" data-name="Path 3897" d="M612.391,410.2l-2.507-2.506v5.483l-3.427-3.427a1.939,1.939,0,0,0-2.742,2.742l4.8,4.8a7.021,7.021,0,0,0-2.056,4.965v.519H614v-8.7a5.483,5.483,0,0,0-1.6-3.877" transform="translate(-574.244 -384.734)" fill="#ffb782"/>
    <path id="Path_3898" data-name="Path 3898" d="M616.793,419.481a.682.682,0,0,1-.485-.2l-2.056-2.056a.685.685,0,0,1,.969-.97l2.056,2.056a.686.686,0,0,1-.484,1.17" transform="translate(-579.782 -388.98)" fill="#f2a46f"/>
  </g>
</svg>
