<svg xmlns="http://www.w3.org/2000/svg" width="44.282" height="38.041" viewBox="0 0 44.282 38.041"><defs><style>.a{fill:#47a047;}.b{fill:#96d696;}.c{fill:#414a61;}.d{fill:#5faf5f;}.e{fill:#ed5d71;}.f{fill:#e3e7f0;}.g{fill:#77cb77;}.h{fill:#d3dbea;}.i{fill:#e34454;}.j{fill:#efa143;}.k{fill:#ffdd94;}.l{fill:#febb61;}</style></defs><g transform="translate(0 0)"><path class="a" d="M588.161,561.128l-37.138,8.628L543.9,559.535l37.137-8.629Z" transform="translate(-543.88 -544.509)"/><path class="b" d="M604.668,562.416l-14.022,3.26a2.837,2.837,0,0,0,1.144-4.388,5.705,5.705,0,0,0-1.814-1.61,8.564,8.564,0,0,0-4.282-1.1l14.03-3.26a2.6,2.6,0,0,1,1.765.2,1.252,1.252,0,0,1,.36.319l3.726,5.336c.335.49-.066,1.037-.907,1.233" transform="translate(-564.506 -546.655)"/><path class="a" d="M612.97,556.859a.663.663,0,0,1,.213.185c.2.289-.038.614-.537.729a1.5,1.5,0,0,1-1.042-.122.639.639,0,0,1-.213-.188c-.2-.286.038-.614.526-.729a1.531,1.531,0,0,1,1.052.125" transform="translate(-577.152 -547.365)"/><path class="c" d="M615.816,568.46c-.067.154-.253.268-.555.34a1.408,1.408,0,0,1-.811-.024,1.26,1.26,0,0,1-.19-.089,1.171,1.171,0,0,1-.374-.345.561.561,0,0,1-.117-.542.743.743,0,0,1,.56-.338,1.376,1.376,0,0,1,.806.021,1.219,1.219,0,0,1,.2.092,1.12,1.12,0,0,1,.368.344.549.549,0,0,1,.112.539m-.685.15c.187-.042.3-.118.316-.226a.455.455,0,0,0-.117-.379.879.879,0,0,0-.3-.285c-.024-.014-.049-.026-.073-.037a.77.77,0,0,0-.5-.036c-.187.043-.291.121-.321.229a.494.494,0,0,0,.111.382.946.946,0,0,0,.3.281.792.792,0,0,0,.075.039.748.748,0,0,0,.5.033" transform="translate(-578.346 -552.655)"/><path class="c" d="M611.376,568.219l.9,1.292-.359.082-.76-1.1-.452.106-.136-.193Z" transform="translate(-576.779 -553.053)"/><path class="a" d="M564.322,571.023a2.575,2.575,0,0,1,.836.731c.781,1.117-.148,2.389-2.08,2.835a5.9,5.9,0,0,1-4.064-.481,2.553,2.553,0,0,1-.836-.733c-.781-1.118.153-2.386,2.08-2.835a5.893,5.893,0,0,1,4.064.483" transform="translate(-550.791 -554.12)"/><path class="a" d="M602.53,559.277a.656.656,0,0,1,.216.19c.2.289-.038.615-.536.729a1.5,1.5,0,0,1-1.041-.122.646.646,0,0,1-.214-.188c-.2-.287.038-.615.531-.733a1.522,1.522,0,0,1,1.044.124" transform="translate(-572.001 -548.559)"/><path class="a" d="M607.745,558.068a.658.658,0,0,1,.217.19c.2.286-.038.614-.537.729a1.533,1.533,0,0,1-1.046-.128.665.665,0,0,1-.214-.185c-.2-.289.039-.614.537-.729a1.509,1.509,0,0,1,1.043.123" transform="translate(-574.573 -547.963)"/><path class="c" d="M620.153,567.455c-.067.154-.253.268-.555.34a1.407,1.407,0,0,1-.811-.024,1.289,1.289,0,0,1-.19-.089,1.2,1.2,0,0,1-.379-.348.563.563,0,0,1-.112-.539.749.749,0,0,1,.555-.34,1.409,1.409,0,0,1,.811.024,1.263,1.263,0,0,1,.2.093,1.082,1.082,0,0,1,.366.341.546.546,0,0,1,.118.542m-.685.151c.187-.042.3-.117.316-.226a.479.479,0,0,0-.117-.379.9.9,0,0,0-.3-.285c-.023-.014-.048-.026-.073-.038a.756.756,0,0,0-.5-.036c-.187.043-.3.121-.321.229a.463.463,0,0,0,.106.38,1,1,0,0,0,.3.282c.023.013.048.026.072.037a.764.764,0,0,0,.51.036" transform="translate(-580.486 -552.159)"/><path class="b" d="M565.717,569.2a8.615,8.615,0,0,0,4.287,1.1l-14.027,3.258a2.557,2.557,0,0,1-1.766-.211,1.122,1.122,0,0,1-.363-.317l-3.722-5.337c-.336-.488.067-1.036.9-1.232l14.028-3.258A2.841,2.841,0,0,0,563.9,567.6a5.614,5.614,0,0,0,1.816,1.6m-6.535,1.845c1.932-.445,2.861-1.716,2.08-2.834a2.581,2.581,0,0,0-.836-.731,5.893,5.893,0,0,0-4.064-.483c-1.927.449-2.861,1.717-2.08,2.835a2.554,2.554,0,0,0,.836.733,5.9,5.9,0,0,0,4.064.481" transform="translate(-546.896 -550.58)"/><path class="a" d="M595.092,571.091l-.015,5.329-37.136,8.63.015-5.328Z" transform="translate(-550.81 -554.47)"/><path class="d" d="M595.086,578.162l-37.136,8.561v.382l37.136-8.561Z" transform="translate(-550.814 -557.959)"/><path class="d" d="M595.09,576.831l-37.136,8.561v.383l37.136-8.561Z" transform="translate(-550.816 -557.303)"/><path class="d" d="M595.1,571.511l-37.136,8.561v.382l37.136-8.561Z" transform="translate(-550.824 -554.677)"/><path class="d" d="M595.1,574.171l-37.136,8.561v.383l37.136-8.561Z" transform="translate(-550.82 -555.99)"/><path class="d" d="M595.093,575.5l-37.136,8.561v.383l37.136-8.561Z" transform="translate(-550.818 -556.646)"/><path class="d" d="M595.078,580.822l-37.136,8.561v.382l37.136-8.561Z" transform="translate(-550.811 -559.272)"/><path class="d" d="M595.1,572.841l-37.136,8.56v.383l37.136-8.561Z" transform="translate(-550.822 -555.334)"/><path class="d" d="M595.082,579.492l-37.136,8.561v.383l37.136-8.561Z" transform="translate(-550.813 -558.616)"/><path class="e" d="M585.229,580.585l-.015,5.329,5.328-1.238.015-5.328Z" transform="translate(-564.269 -558.544)"/><path class="f" d="M586.564,580.274l-.015,5.328,5.328-1.238.015-5.328Z" transform="translate(-564.928 -558.391)"/><path class="d" d="M551.009,578.169l-.015,5.329-7.13-10.223.015-5.329Z" transform="translate(-543.864 -552.918)"/><path class="a" d="M612.141,568.646l-.016,5.62-12.562,7.3.016-5.621Z" transform="translate(-571.351 -553.264)"/><path class="a" d="M573.622,568.072l-.016,5.62-26.644-15.382.016-5.621Z" transform="translate(-545.393 -545.39)"/><path class="g" d="M546.978,558.37l26.643,15.374v-.288l-26.643-15.375Z" transform="translate(-545.401 -548.051)"/><path class="g" d="M546.981,557.056l26.643,15.375v-.287l-26.643-15.375Z" transform="translate(-545.402 -547.402)"/><path class="g" d="M573.637,568.072,546.994,552.69v.357l26.643,15.375Z" transform="translate(-545.408 -545.39)"/><path class="g" d="M546.963,563.564l26.643,15.382v-.235l-26.643-15.375Z" transform="translate(-545.393 -550.643)"/><path class="g" d="M546.97,561l26.643,15.375v-.287L546.971,560.71Z" transform="translate(-545.397 -549.347)"/><path class="g" d="M546.967,562.31l26.643,15.375V577.4l-26.643-15.374Z" transform="translate(-545.395 -549.995)"/><path class="g" d="M546.974,559.683l26.643,15.375v-.288L546.975,559.4Z" transform="translate(-545.399 -548.699)"/><path class="g" d="M573.633,569.516,546.99,554.142v.288L573.632,569.8Z" transform="translate(-545.406 -546.106)"/><path class="g" d="M546.986,555.455v.287l26.644,15.375v-.287Z" transform="translate(-545.404 -546.754)"/><path class="h" d="M574.849,568.781l-.016,5.62-4.735-2.734.016-5.621Z" transform="translate(-556.81 -551.98)"/><path class="i" d="M569.123,565.474l-.016,5.62.5.29.016-5.621Z" transform="translate(-556.321 -551.699)"/><path class="i" d="M579.465,571.445l-.016,5.62.5.29.016-5.621Z" transform="translate(-561.425 -554.645)"/><path class="a" d="M586.2,553.66l-12.562,7.3-26.644-15.382,12.562-7.3Z" transform="translate(-545.409 -538.277)"/><path class="b" d="M597.066,573.612c.137.079.181.167.128.266a.769.769,0,0,1-.334.3,1.5,1.5,0,0,1-.526.2.657.657,0,0,1-.454-.076q-.2-.115-.133-.263a.792.792,0,0,1,.335-.308,1.5,1.5,0,0,1,.525-.192.672.672,0,0,1,.459.073" transform="translate(-569.46 -555.672)"/><path class="a" d="M597.215,573.69a.855.855,0,0,1-.432.444,1.851,1.851,0,0,1-.764.251,1.171,1.171,0,0,1-.718-.15c-.215-.124-.3-.265-.26-.415s.183-.294.436-.441a1.866,1.866,0,0,1,.759-.254,1.17,1.17,0,0,1,.713.152c.22.127.308.262.266.412m-1.226.486a1.5,1.5,0,0,0,.525-.2.768.768,0,0,0,.335-.3c.053-.1.009-.186-.128-.265a.674.674,0,0,0-.459-.073,1.5,1.5,0,0,0-.525.192.789.789,0,0,0-.335.308q-.065.148.133.263a.658.658,0,0,0,.454.076" transform="translate(-569.114 -555.471)"/><path class="b" d="M600.179,575.407c.3.173.092.394-.207.568a1,1,0,0,1-.979.122c-.3-.172-.1-.4.2-.571a1.5,1.5,0,0,1,.525-.192.671.671,0,0,1,.459.073" transform="translate(-570.996 -556.558)"/><path class="a" d="M599.893,575.929a1.49,1.49,0,0,1-1.481.1c-.463-.267-.286-.588.175-.856a1.865,1.865,0,0,1,.759-.254,1.17,1.17,0,0,1,.713.153c.46.266.292.589-.166.856m-.794.042a1.5,1.5,0,0,0,.525-.2c.3-.174.507-.395.207-.568a.679.679,0,0,0-.459-.073,1.505,1.505,0,0,0-.525.192c-.3.174-.5.4-.2.571a.659.659,0,0,0,.454.076" transform="translate(-570.648 -556.357)"/><path class="a" d="M612.4,568.157a.394.394,0,0,1,0,.746,1.416,1.416,0,0,1-1.287,0,.394.394,0,0,1,0-.746,1.417,1.417,0,0,1,1.287,0" transform="translate(-576.918 -552.946)"/><path class="d" d="M604.915,563.836a.393.393,0,0,1,0,.743,1.415,1.415,0,0,1-1.283,0,.394.394,0,0,1,0-.746,1.416,1.416,0,0,1,1.287,0" transform="translate(-573.225 -550.814)"/><path class="a" d="M608.656,566a.394.394,0,0,1,0,.746,1.417,1.417,0,0,1-1.287,0,.393.393,0,0,1,0-.743,1.415,1.415,0,0,1,1.282,0" transform="translate(-575.073 -551.881)"/><path class="a" d="M594.952,572l-1.589.923-.259-.149,1.351-.785-.323-.186.238-.138Z" transform="translate(-568.162 -554.753)"/><path class="b" d="M573.4,548.376a9.96,9.96,0,0,0-6.95,1.037c-2.05,1.191-2.694,2.828-1.769,4.028l-10.055-5.8a.663.663,0,0,1-.007-1.254l6.561-3.813a2.387,2.387,0,0,1,2.165,0Zm-13.841-.059a5.5,5.5,0,0,0,4.993,0c1.375-.8,1.368-2.093-.016-2.892a5.5,5.5,0,0,0-4.993,0c-1.375.8-1.368,2.092.016,2.892" transform="translate(-548.95 -540.268)"/><path class="a" d="M568.76,547.876c1.384.8,1.391,2.093.016,2.892a5.5,5.5,0,0,1-4.993,0c-1.384-.8-1.391-2.092-.016-2.892a5.5,5.5,0,0,1,4.992,0" transform="translate(-553.179 -542.718)"/><path class="a" d="M584.523,554.567a2.986,2.986,0,0,1,.89.75c.927,1.2.282,2.842-1.765,4.031a9.948,9.948,0,0,1-6.952,1.036,5.151,5.151,0,0,1-1.3-.514,2.981,2.981,0,0,1-.889-.75c-.924-1.2-.281-2.837,1.769-4.028a9.957,9.957,0,0,1,6.95-1.037,5.151,5.151,0,0,1,1.3.512" transform="translate(-558.782 -545.947)"/><path class="b" d="M598,562.58c.6.348.61.91.012,1.257l-6.561,3.813a2.39,2.39,0,0,1-2.17,0l-10.052-5.8a9.948,9.948,0,0,0,6.952-1.036c2.047-1.189,2.692-2.827,1.765-4.031Zm-8.2,4.648a1.837,1.837,0,0,0,.764-.251c.458-.266.627-.59.166-.855a1.17,1.17,0,0,0-.713-.153,1.858,1.858,0,0,0-.759.254c-.461.268-.638.589-.175.856a1.166,1.166,0,0,0,.717.149m-1.575-.909a1.838,1.838,0,0,0,.764-.251.852.852,0,0,0,.431-.443c.043-.15-.046-.285-.266-.412a1.162,1.162,0,0,0-.713-.152,1.867,1.867,0,0,0-.759.254q-.379.22-.437.441c-.042.149.046.291.261.415a1.171,1.171,0,0,0,.718.149m7.291-2.956a1.416,1.416,0,0,0,1.287,0,.394.394,0,0,0,0-.746,1.417,1.417,0,0,0-1.287,0,.394.394,0,0,0,0,.746m-3.791-2.189a1.417,1.417,0,0,0,1.283,0,.393.393,0,0,0,0-.743,1.416,1.416,0,0,0-1.287,0,.394.394,0,0,0,0,.746m1.894.35a.393.393,0,0,0,0,.743,1.416,1.416,0,0,0,1.288,0,.394.394,0,0,0,0-.745,1.414,1.414,0,0,0-1.282,0m-7.1,4.053,1.589-.923-.583-.336-.238.138.323.186-1.351.786Z" transform="translate(-561.317 -547.406)"/><path class="f" d="M587.426,554.366l-12.562,7.3-4.736-2.734,12.559-7.3Z" transform="translate(-556.825 -544.867)"/><path class="e" d="M581.7,551.062l-12.562,7.3.5.29,12.559-7.3Z" transform="translate(-556.336 -544.586)"/><path class="e" d="M592.535,557.318l-.495-.286-12.562,7.3.5.29Z" transform="translate(-561.439 -547.532)"/><path class="d" d="M612.173,574.326l-12.562,7.293v-.288l12.562-7.293Z" transform="translate(-571.373 -555.925)"/><path class="d" d="M612.169,573.013,599.607,580.3v-.287l12.562-7.293Z" transform="translate(-571.371 -555.276)"/><path class="d" d="M599.595,575.947l12.562-7.3V569L599.6,576.3Z" transform="translate(-571.366 -553.264)"/><path class="d" d="M612.188,579.521l-12.562,7.3v-.236l12.562-7.293Z" transform="translate(-571.38 -558.518)"/><path class="d" d="M612.18,576.954l-12.562,7.293v-.287l12.562-7.292Z" transform="translate(-571.377 -557.221)"/><path class="d" d="M612.184,578.267l-12.562,7.293v-.288l12.562-7.292Z" transform="translate(-571.379 -557.869)"/><path class="d" d="M612.177,575.64l-12.562,7.293v-.288l12.562-7.292Z" transform="translate(-571.375 -556.573)"/><path class="d" d="M599.6,577.39l12.562-7.292v.288L599.6,577.677Z" transform="translate(-571.367 -553.98)"/><path class="d" d="M612.165,571.412v.287L599.6,578.991V578.7Z" transform="translate(-571.37 -554.628)"/><path class="a" d="M551,586.278l-7.13-10.206v.4L551,586.678Z" transform="translate(-543.866 -556.928)"/><path class="a" d="M551.02,579.343l-7.13-10.207v.4l7.13,10.206Z" transform="translate(-543.876 -553.505)"/><path class="a" d="M551,584.891l-7.13-10.206v.4L551,585.291Z" transform="translate(-543.868 -556.244)"/><path class="a" d="M551.023,578.169l-7.13-10.223v.3l7.129,10.206Z" transform="translate(-543.878 -552.918)"/><path class="a" d="M551.008,583.5l-7.13-10.206v.4l7.13,10.207Z" transform="translate(-543.87 -555.559)"/><path class="a" d="M551.012,582.117l-7.13-10.206v.4l7.13,10.207Z" transform="translate(-543.872 -554.874)"/><path class="a" d="M551.016,580.73l-7.13-10.206v.4l7.13,10.206Z" transform="translate(-543.874 -554.19)"/><path class="a" d="M551,587.666l-7.13-10.206v.4l7.13,10.206Z" transform="translate(-543.865 -557.613)"/><path class="j" d="M588.372,600.354l0,.933a2.2,2.2,0,0,0-1.3-1.814,6.361,6.361,0,0,0-3.121-.747,6.292,6.292,0,0,0-3.116.747,2.188,2.188,0,0,0-1.28,1.794l0-.936a2.184,2.184,0,0,1,1.281-1.795,6.319,6.319,0,0,1,3.115-.75,6.4,6.4,0,0,1,3.121.75,2.2,2.2,0,0,1,1.3,1.817" transform="translate(-561.474 -567.644)"/><path class="k" d="M587.073,599.347c1.727,1,1.736,2.614.02,3.612a6.873,6.873,0,0,1-6.236,0c-1.729-1-1.738-2.615-.02-3.614a6.873,6.873,0,0,1,6.236,0" transform="translate(-561.476 -568.044)"/><path class="j" d="M588.395,602.883l0,.729a2.624,2.624,0,0,1-1.536,2.15,8.241,8.241,0,0,1-7.478,0,2.65,2.65,0,0,1-1.563-2.183l0-.729a2.648,2.648,0,0,0,1.563,2.182,8.24,8.24,0,0,0,7.478,0,2.625,2.625,0,0,0,1.536-2.151" transform="translate(-560.618 -570.143)"/><path class="l" d="M586.838,597.734c2.071,1.2,2.082,3.136.024,4.331a8.238,8.238,0,0,1-7.478,0c-2.073-1.2-2.086-3.136-.026-4.332a8.243,8.243,0,0,1,7.48,0M580,601.681a6.873,6.873,0,0,0,6.236,0c1.716-1,1.707-2.614-.02-3.611a6.873,6.873,0,0,0-6.236,0c-1.718,1-1.708,2.616.02,3.614" transform="translate(-560.621 -567.175)"/><path class="j" d="M573.377,603.361l0,.933a2.2,2.2,0,0,0-1.3-1.814,6.364,6.364,0,0,0-3.121-.747,6.3,6.3,0,0,0-3.116.747,2.189,2.189,0,0,0-1.28,1.794l0-.935a2.184,2.184,0,0,1,1.281-1.795,6.313,6.313,0,0,1,3.115-.75,6.4,6.4,0,0,1,3.121.75,2.2,2.2,0,0,1,1.3,1.817" transform="translate(-554.075 -569.128)"/><path class="k" d="M572.078,602.355c1.727,1,1.736,2.614.02,3.612a6.873,6.873,0,0,1-6.236,0c-1.729-1-1.738-2.615-.02-3.614a6.874,6.874,0,0,1,6.236,0" transform="translate(-554.077 -569.529)"/><path class="j" d="M573.4,605.891l0,.729a2.624,2.624,0,0,1-1.536,2.151,8.239,8.239,0,0,1-7.478,0,2.648,2.648,0,0,1-1.563-2.182l0-.73a2.649,2.649,0,0,0,1.563,2.183,8.241,8.241,0,0,0,7.478,0,2.625,2.625,0,0,0,1.536-2.151" transform="translate(-553.219 -571.627)"/><path class="l" d="M571.843,600.741c2.071,1.2,2.082,3.136.024,4.331a8.238,8.238,0,0,1-7.478,0c-2.073-1.2-2.086-3.136-.026-4.332a8.242,8.242,0,0,1,7.48,0m-6.836,3.946a6.873,6.873,0,0,0,6.236,0c1.716-1,1.707-2.615-.02-3.612a6.873,6.873,0,0,0-6.236,0c-1.718,1-1.709,2.616.02,3.614" transform="translate(-553.222 -568.659)"/><path class="b" d="M566.385,549.4c.119-.064.116-.205-.007-.313a.418.418,0,0,0-.438-.077c-.475.261-.462.823.028,1.255l-.215.118c-.118.065-.115.206.007.314a.417.417,0,0,0,.437.077l.215-.118a1.671,1.671,0,0,0,1.749.312c.475-.261.463-.823-.028-1.255l.861-.471c.245.216.252.5.014.627-.119.065-.116.206.007.313a.417.417,0,0,0,.437.078c.475-.26.462-.822-.028-1.255l.215-.118c.119-.065.115-.206-.007-.313a.417.417,0,0,0-.437-.078l-.215.117a1.673,1.673,0,0,0-1.749-.311c-.475.261-.463.823.028,1.255l-.861.472c-.245-.216-.252-.5-.014-.628m1.291-.708a.837.837,0,0,1,.875.155l-.861.472c-.245-.216-.252-.5-.014-.628m.028,1.255c.245.216.252.5.014.627a.836.836,0,0,1-.875-.155Z" transform="translate(-554.586 -543.16)"/><path class="j" d="M584.774,603.533a.485.485,0,0,1-.227-.055.263.263,0,0,1-.151-.191.186.186,0,0,1,.066-.163l.15-.135a.949.949,0,0,1-.517-.671.656.656,0,0,1,.236-.573.376.376,0,0,1,.251-.083.491.491,0,0,1,.228.054.268.268,0,0,1,.151.191.187.187,0,0,1-.067.164.28.28,0,0,0-.1.246.43.43,0,0,0,.235.3l.681-.612a.948.948,0,0,1-.517-.67.655.655,0,0,1,.236-.573,1.422,1.422,0,0,1,.943-.311,1.867,1.867,0,0,1,.847.2l.166-.15a.38.38,0,0,1,.251-.084.491.491,0,0,1,.228.055.265.265,0,0,1,.151.19.187.187,0,0,1-.066.164l-.15.135a.949.949,0,0,1,.517.671.659.659,0,0,1-.236.574.382.382,0,0,1-.252.083.5.5,0,0,1-.228-.055.264.264,0,0,1-.15-.191.183.183,0,0,1,.066-.163.283.283,0,0,0,.1-.247.43.43,0,0,0-.235-.3l-.681.612a.948.948,0,0,1,.517.671.658.658,0,0,1-.236.573,1.422,1.422,0,0,1-.943.31,1.865,1.865,0,0,1-.847-.2l-.166.15a.384.384,0,0,1-.251.083m.832-.605a.911.911,0,0,0,.371.08.664.664,0,0,0,.441-.144.278.278,0,0,0,.1-.247.429.429,0,0,0-.235-.3Zm.823-1.985a.662.662,0,0,0-.441.144.279.279,0,0,0-.1.246.43.43,0,0,0,.235.3l.68-.61a.885.885,0,0,0-.371-.08" transform="translate(-563.714 -568.942)"/><path class="l" d="M584.9,601.468c.1-.09.065-.226-.078-.3a.419.419,0,0,0-.444.024c-.4.362-.262.906.314,1.215l-.182.164c-.1.09-.066.226.078.3a.418.418,0,0,0,.443-.024l.182-.164a1.671,1.671,0,0,0,1.774-.1c.4-.362.263-.906-.314-1.215l.73-.656c.288.155.358.426.157.607-.1.091-.065.227.078.3a.418.418,0,0,0,.444-.024c.4-.362.262-.906-.314-1.215l.182-.164c.1-.091.066-.226-.078-.3a.418.418,0,0,0-.444.024l-.182.164a1.671,1.671,0,0,0-1.774.1c-.4.362-.262.906.314,1.215l-.73.656c-.289-.154-.359-.426-.157-.608m1.095-.984a.836.836,0,0,1,.887-.048l-.73.656c-.288-.154-.359-.426-.157-.608m.314,1.215c.288.155.359.426.157.607a.836.836,0,0,1-.887.049Z" transform="translate(-563.744 -568.671)"/><path class="j" d="M569.958,606.213a.49.49,0,0,1-.227-.055.263.263,0,0,1-.151-.191.186.186,0,0,1,.066-.163l.15-.135a.948.948,0,0,1-.517-.671.655.655,0,0,1,.236-.573.376.376,0,0,1,.251-.084.493.493,0,0,1,.228.055.267.267,0,0,1,.151.191.186.186,0,0,1-.067.163.281.281,0,0,0-.1.247.43.43,0,0,0,.235.3l.681-.612a.947.947,0,0,1-.517-.67.656.656,0,0,1,.235-.573,1.422,1.422,0,0,1,.943-.311,1.865,1.865,0,0,1,.847.2l.166-.15a.378.378,0,0,1,.251-.084.49.49,0,0,1,.227.055.264.264,0,0,1,.151.19.186.186,0,0,1-.066.164l-.15.135a.949.949,0,0,1,.517.671.656.656,0,0,1-.235.573.379.379,0,0,1-.252.084.493.493,0,0,1-.228-.055.263.263,0,0,1-.15-.19.184.184,0,0,1,.066-.163.282.282,0,0,0,.1-.247.429.429,0,0,0-.235-.3l-.681.612a.949.949,0,0,1,.517.671.656.656,0,0,1-.236.573,1.422,1.422,0,0,1-.943.311,1.865,1.865,0,0,1-.847-.2l-.166.15a.382.382,0,0,1-.251.083m.832-.606a.9.9,0,0,0,.371.08.668.668,0,0,0,.441-.143.28.28,0,0,0,.1-.247.428.428,0,0,0-.235-.3Zm.823-1.984a.664.664,0,0,0-.441.143.279.279,0,0,0-.1.247.43.43,0,0,0,.235.3l.68-.611a.893.893,0,0,0-.371-.08" transform="translate(-556.403 -570.264)"/><path class="l" d="M570.087,604.148c.1-.09.065-.227-.079-.3a.418.418,0,0,0-.444.024c-.4.362-.262.906.314,1.215l-.182.164c-.1.09-.066.226.079.3a.417.417,0,0,0,.443-.024l.182-.164a1.671,1.671,0,0,0,1.774-.1c.4-.362.263-.906-.313-1.215l.73-.656c.288.155.358.427.156.607-.1.091-.065.227.078.3a.418.418,0,0,0,.444-.024c.4-.362.262-.906-.314-1.215l.182-.164c.1-.091.066-.226-.078-.3a.419.419,0,0,0-.444.024l-.182.164a1.671,1.671,0,0,0-1.774.1c-.4.362-.263.906.314,1.215l-.73.656c-.289-.155-.359-.427-.157-.608m1.095-.984a.836.836,0,0,1,.887-.048l-.73.656c-.288-.155-.359-.427-.157-.608m.314,1.215c.288.155.359.427.157.607a.836.836,0,0,1-.887.049Z" transform="translate(-556.433 -569.994)"/></g></svg>