<svg xmlns="http://www.w3.org/2000/svg" width="35.162" height="35.162" viewBox="0 0 35.162 35.162">
  <g id="lottery" transform="translate(0 0)">
    <g id="Group_4288" data-name="Group 4288" transform="translate(0.515 0.515)">
      <path id="Path_4506" data-name="Path 4506" d="M28.97,31.722H8.05a.551.551,0,0,1-.55-.55V8.05a.551.551,0,0,1,.55-.55H28.97a.551.551,0,0,1,.55.55V31.172A.551.551,0,0,1,28.97,31.722Z" transform="translate(-7.5 -7.5)" fill="#ffe09f"/>
      <path id="Path_4507" data-name="Path 4507" d="M10.8,31.172A1.651,1.651,0,0,1,9.152,29.52V7.5H8.05a.551.551,0,0,0-.55.55V32.273a.551.551,0,0,0,.55.551H28.97a.551.551,0,0,0,.55-.551v-1.1Z" transform="translate(-7.5 -7.5)" fill="#f6d190"/>
      <ellipse id="Ellipse_2" data-name="Ellipse 2" cx="6.056" cy="6.056" rx="6.056" ry="6.056" transform="translate(8.258 18.717)" fill="#a4ccff"/>
      <ellipse id="Ellipse_3" data-name="Ellipse 3" cx="6.056" cy="6.056" rx="6.056" ry="6.056" transform="translate(22.02 22.02)" fill="#aedb81"/>
      <ellipse id="Ellipse_4" data-name="Ellipse 4" cx="6.056" cy="6.056" rx="6.056" ry="6.056" transform="translate(18.167 8.258)" fill="#ff8086"/>
      <path id="Path_4508" data-name="Path 4508" d="M134.9,308.186a6.048,6.048,0,0,1-4.793-9.747,6.05,6.05,0,1,0,8.484,8.484,6.022,6.022,0,0,1-3.692,1.263Z" transform="translate(-119.485 -278.459)" fill="#8bb3ea"/>
      <path id="Path_4509" data-name="Path 4509" d="M279.19,155.88a6.048,6.048,0,0,1-4.793-9.747,6.05,6.05,0,1,0,8.484,8.484A6.023,6.023,0,0,1,279.19,155.88Z" transform="translate(-253.866 -136.612)" fill="#e5646e"/>
      <path id="Path_4510" data-name="Path 4510" d="M335.3,356.283a6.048,6.048,0,0,1-4.793-9.747,6.05,6.05,0,1,0,8.484,8.484A6.022,6.022,0,0,1,335.3,356.283Z" transform="translate(-306.126 -323.253)" fill="#95cc81"/>
    </g>
    <g id="Group_4289" data-name="Group 4289" transform="translate(0 0)">
      <path id="Path_4511" data-name="Path 4511" d="M327.216,320.645a6.571,6.571,0,1,0,6.571,6.571A6.578,6.578,0,0,0,327.216,320.645Zm0,12.111a5.541,5.541,0,1,1,5.54-5.541A5.547,5.547,0,0,1,327.216,332.756Z" transform="translate(-298.625 -298.625)"/>
      <path id="Path_4512" data-name="Path 4512" d="M264.532,126.811a6.571,6.571,0,1,0,11.968-3.748.515.515,0,1,0-.846.588,5.538,5.538,0,1,1-1.454-1.434.515.515,0,1,0,.577-.854,6.571,6.571,0,0,0-10.245,5.448Z" transform="translate(-246.365 -111.983)"/>
      <path id="Path_4513" data-name="Path 4513" d="M126.812,272.548a6.571,6.571,0,1,0,6.571,6.571A6.578,6.578,0,0,0,126.812,272.548Zm0,12.111a5.541,5.541,0,1,1,5.54-5.541A5.547,5.547,0,0,1,126.812,284.659Z" transform="translate(-111.983 -253.831)"/>
      <path id="Path_4514" data-name="Path 4514" d="M6.571,25.323H1.066a.035.035,0,0,1-.035-.035V1.066a.035.035,0,0,1,.035-.035H21.985a.035.035,0,0,1,.035.035V6.571a.515.515,0,1,0,1.03,0V1.066A1.067,1.067,0,0,0,21.985,0H1.066A1.067,1.067,0,0,0,0,1.066V25.288a1.067,1.067,0,0,0,1.066,1.066H6.571a.515.515,0,1,0,0-1.03Z" transform="translate(0 0)"/>
      <path id="Path_4515" data-name="Path 4515" d="M50.814,104.209h-2.2a.515.515,0,1,0,0,1.03h2.2a.515.515,0,1,0,0-1.03Z" transform="translate(-44.794 -97.052)"/>
      <path id="Path_4516" data-name="Path 4516" d="M114.943,104.209h-2.2a.515.515,0,0,0,0,1.03h2.2a.515.515,0,1,0,0-1.03Z" transform="translate(-104.519 -97.052)"/>
      <path id="Path_4517" data-name="Path 4517" d="M179.072,104.209h-2.2a.515.515,0,0,0,0,1.03h2.2a.515.515,0,0,0,0-1.03Z" transform="translate(-164.244 -97.052)"/>
      <path id="Path_4518" data-name="Path 4518" d="M243.716,104.724a.515.515,0,0,0-.515-.515H241a.515.515,0,0,0,0,1.03h2.2A.515.515,0,0,0,243.716,104.724Z" transform="translate(-223.969 -97.052)"/>
      <path id="Path_4519" data-name="Path 4519" d="M50.814,144.291h-2.2a.515.515,0,1,0,0,1.03h2.2a.515.515,0,1,0,0-1.03Z" transform="translate(-44.794 -134.382)"/>
      <path id="Path_4520" data-name="Path 4520" d="M114.943,144.291h-2.2a.515.515,0,0,0,0,1.03h2.2a.515.515,0,1,0,0-1.03Z" transform="translate(-104.519 -134.382)"/>
      <path id="Path_4521" data-name="Path 4521" d="M179.072,144.291h-2.2a.515.515,0,1,0,0,1.03h2.2a.515.515,0,0,0,0-1.03Z" transform="translate(-164.244 -134.382)"/>
      <path id="Path_4522" data-name="Path 4522" d="M241,144.291a.515.515,0,1,0,0,1.03h.551a.515.515,0,0,0,0-1.03Z" transform="translate(-223.969 -134.382)"/>
      <path id="Path_4523" data-name="Path 4523" d="M50.814,184.371h-2.2a.515.515,0,1,0,0,1.03h2.2a.515.515,0,1,0,0-1.03Z" transform="translate(-44.794 -171.709)"/>
      <path id="Path_4524" data-name="Path 4524" d="M114.943,184.371h-2.2a.515.515,0,1,0,0,1.03h2.2a.515.515,0,1,0,0-1.03Z" transform="translate(-104.519 -171.709)"/>
      <path id="Path_4525" data-name="Path 4525" d="M179.072,184.371h-2.2a.515.515,0,1,0,0,1.03h2.2a.515.515,0,0,0,0-1.03Z" transform="translate(-164.244 -171.709)"/>
      <path id="Path_4526" data-name="Path 4526" d="M50.814,224.452h-2.2a.515.515,0,1,0,0,1.03h2.2a.515.515,0,1,0,0-1.03Z" transform="translate(-44.794 -209.038)"/>
      <path id="Path_4527" data-name="Path 4527" d="M114.943,224.452h-2.2a.515.515,0,1,0,0,1.03h2.2a.515.515,0,1,0,0-1.03Z" transform="translate(-104.519 -209.038)"/>
      <path id="Path_4528" data-name="Path 4528" d="M179.072,224.452h-2.2a.515.515,0,1,0,0,1.03h2.2a.515.515,0,0,0,0-1.03Z" transform="translate(-164.244 -209.038)"/>
      <path id="Path_4529" data-name="Path 4529" d="M50.814,264.532h-2.2a.515.515,0,1,0,0,1.03h2.2a.515.515,0,1,0,0-1.03Z" transform="translate(-44.794 -246.365)"/>
      <path id="Path_4530" data-name="Path 4530" d="M114.907,265.047a.515.515,0,0,0-.515-.515H112.74a.515.515,0,1,0,0,1.03h1.652A.515.515,0,0,0,114.907,265.047Z" transform="translate(-104.518 -246.365)"/>
      <path id="Path_4531" data-name="Path 4531" d="M64.541,56.628a.515.515,0,0,0-.515-.515H48.612a.515.515,0,1,0,0,1.03H64.026A.515.515,0,0,0,64.541,56.628Z" transform="translate(-44.794 -52.259)"/>
      <path id="Path_4532" data-name="Path 4532" d="M381.891,368.85a3.943,3.943,0,0,0-.6.04l.236-1.422h1.807a.515.515,0,1,0,0-1.03h-2.244a.515.515,0,0,0-.508.431l-.445,2.683a.516.516,0,0,0,.743.542l.054-.025a1.957,1.957,0,0,1,.955-.19,1.313,1.313,0,0,1,1.31,1.382,1.312,1.312,0,0,1-2.609.113,1.329,1.329,0,0,1-.013-.184.515.515,0,1,0-1.03,0,2.34,2.34,0,0,0,2.342,2.342h.048a2.349,2.349,0,0,0,2.291-2.218,2.323,2.323,0,0,0-.64-1.736A2.352,2.352,0,0,0,381.891,368.85Z" transform="translate(-353.483 -341.274)"/>
      <path id="Path_4533" data-name="Path 4533" d="M190.964,317.832a2.044,2.044,0,0,0-4.049-.4.515.515,0,1,0,1.011.2,1.014,1.014,0,1,1,.994,1.21.515.515,0,0,0,0,1.03,1.014,1.014,0,1,1-1.013,1.013.515.515,0,0,0-1.03,0,2.042,2.042,0,0,0,2.044,2.044,44.932,44.932,0,0,1,2.043-5.1Z" transform="translate(-174.043 -294.102)"/>
      <path id="Path_4534" data-name="Path 4534" d="M330.179,172.473a.515.515,0,0,0,.616.826,6.531,6.531,0,0,0,2.323-4.242,2.242,2.242,0,1,0-1.645,1.816A5.406,5.406,0,0,1,330.179,172.473Zm-.487-3.77a1.212,1.212,0,1,1,1.212,1.212A1.214,1.214,0,0,1,329.692,168.7Z" transform="translate(-306.091 -155.029)"/>
    </g>
  </g>
</svg>
