<svg xmlns="http://www.w3.org/2000/svg" width="14.805" height="13.395" viewBox="0 0 14.805 13.395"><defs><style>.a{fill:#043655;}</style></defs><g transform="translate(-219.858 -137.014)"><g transform="translate(219.858 137.014)"><path class="a" d="M559.263,365.3h-14.8v-1.41l7.4-2.82,7.4,2.82Z" transform="translate(-544.458 -361.072)"/><rect class="a" width="1.41" height="6.345" transform="translate(11.985 4.23)"/><rect class="a" width="1.41" height="6.345" transform="translate(8.459 4.23)"/><rect class="a" width="1.41" height="6.345" transform="translate(4.935 4.23)"/><rect class="a" width="1.41" height="6.345" transform="translate(1.409 4.23)"/><rect class="a" width="1.41" height="0.705" transform="translate(11.985 4.23)"/><rect class="a" width="1.41" height="0.705" transform="translate(8.459 4.23)"/><rect class="a" width="1.41" height="0.705" transform="translate(4.935 4.23)"/><rect class="a" width="1.41" height="0.705" transform="translate(1.409 4.23)"/><rect class="a" width="13.395" height="1.41" transform="translate(0.705 10.575)"/><rect class="a" width="14.805" height="1.41" transform="translate(0 11.985)"/><path class="a" d="M572.31,367.345a.7.7,0,1,1-.7-.7.7.7,0,0,1,.7.7" transform="translate(-564.203 -365.23)"/></g></g></svg>